<mxfile host="app.diagrams.net" modified="2024-08-10T01:09:48.503Z" agent="Mozilla/5.0 (Macintosh; Intel Mac OS X 10_15_7) AppleWebKit/537.36 (KHTML, like Gecko) Chrome/127.0.0.0 Safari/537.36" etag="2QDU6Y_Vo56mfJ5P-D90" version="23.1.6" type="device">
  <diagram name="ページ1" id="-9t2kkXw1oo4XgbQ1qq8">
    <mxGraphModel dx="2020" dy="769" grid="1" gridSize="10" guides="1" tooltips="1" connect="1" arrows="1" fold="1" page="1" pageScale="1" pageWidth="827" pageHeight="1169" math="0" shadow="0">
      <root>
        <mxCell id="0" />
        <mxCell id="1" parent="0" />
        <mxCell id="ziRwayuzQX1U7kPAkTH5-17" value="" style="rounded=0;whiteSpace=wrap;html=1;strokeWidth=3;strokeColor=#8c4fff;fillColor=none;" vertex="1" parent="1">
          <mxGeometry x="50" y="50" width="560" height="470" as="geometry" />
        </mxCell>
        <mxCell id="ziRwayuzQX1U7kPAkTH5-16" value="" style="rounded=0;whiteSpace=wrap;html=1;strokeWidth=3;strokeColor=#7aa117;fillColor=none;" vertex="1" parent="1">
          <mxGeometry x="119" y="130" width="461" height="360" as="geometry" />
        </mxCell>
        <mxCell id="ziRwayuzQX1U7kPAkTH5-4" value="" style="shape=image;verticalLabelPosition=bottom;labelBackgroundColor=default;verticalAlign=top;aspect=fixed;imageAspect=0;image=data:image/png,iVBORw0KGgoAAAANSUhEUgAAAUAAAAFACAYAAADNkKWqAAABdWlDQ1BrQ0dDb2xvclNwYWNlRGlzcGxheVAzAAAokXWQvUvDUBTFT6tS0DqIDh0cMolD1NIKdnFoKxRFMFQFq1OafgltfCQpUnETVyn4H1jBWXCwiFRwcXAQRAcR3Zw6KbhoeN6XVNoi3sfl/Ticc7lcwBtQGSv2AijplpFMxKS11Lrke4OHnlOqZrKooiwK/v276/PR9d5PiFlNu3YQ2U9cl84ul3aeAlN//V3Vn8maGv3f1EGNGRbgkYmVbYsJ3iUeMWgp4qrgvMvHgtMunzuelWSc+JZY0gpqhrhJLKc79HwHl4plrbWD2N6f1VeXxRzqUcxhEyYYilBRgQQF4X/8044/ji1yV2BQLo8CLMpESRETssTz0KFhEjJxCEHqkLhz634PrfvJbW3vFZhtcM4v2tpCAzidoZPV29p4BBgaAG7qTDVUR+qh9uZywPsJMJgChu8os2HmwiF3e38M6Hvh/GMM8B0CdpXzryPO7RqFn4Er/QcXKWq8UwZBywAAADhlWElmTU0AKgAAAAgAAYdpAAQAAAABAAAAGgAAAAAAAqACAAQAAAABAAABQKADAAQAAAABAAABQAAAAABBlwXOAAAQyklEQVR4Ae3dz4ud1RkH8DOTUaOOgYoxVje2KyvGCKILF+5EshEFd7rsqvgHpBayCNT+A7arbt0VKm6ycFeoC0XwF+ImrRulJkGhTmLUyUxzUgIizJ2859xz5zzv+Vwotd57zn3O5/v6zZ2Zt+PauVPHd5MHAQIEBhRYH/DMjkyAAIHrAgrQhUCAwLACCnDY6B2cAAEF6BogQGBYAQU4bPQOToCAAnQNECAwrIACHDZ6BydAQAG6BggQGFZAAQ4bvYMTIKAAXQMECAwroACHjd7BCRBQgK4BAgSGFVCAw0bv4AQIKEDXAAECwwoowGGjd3ACBBSga4AAgWEFFOCw0Ts4AQIK0DVAgMCwAgpw2OgdnAABBegaIEBgWAEFOGz0Dk6AgAJ0DRAgMKyAAhw2egcnQEABugYIEBhWQAEOG72DEyCgAF0DBAgMK6AAh43ewQkQUICuAQIEhhVQgMNG7+AECChA1wABAsMKKMBho3dwAgQUoGuAAIFhBRTgsNE7OAECCtA1QIDAsAIKcNjoHZwAAQXoGiBAYFgBBThs9A5OgIACdA0QIDCsgAIcNnoHJ0BAAboGCBAYVkABDhu9gxMgoABdAwQIDCugAIeN3sEJEFCArgECBIYVUIDDRu/gBAgoQNcAAQLDCijAYaN3cAIENhAQaCmwdstGuvPxZ9LmwyfTrcceSoc2j6a19UMt39LeSxLY3bmarm5dSD989Vna+vRsuvT+22n3x+0l7d7HNmvnTh3f7WMUU8xN4I5Hnkz3PPda2rjr3rkdbcjzbH97Pl1869V0+ZN3Z3N+XwLPJsq+DnLk6RfTfS/9Vfn1FUvVNPkPspxpznYuDwU4lyQ7Osf1T34nT3c0kVGWKXDPtWxzxnN4KMA5pNjRGfL3/PKXvR7zFsgZ56yjPxRg9AQ7mz//wMP3/DoLpcE4OeOcdfSHAoyeYGfz55/2eowhMIesFeAY1+rKTplvdfEYQ2AOWcf/In6May3MKfN9fosen595Iu189/2il3iuE4H1229LD55+b89p9st6z4UdPeETYEdhzGGU/W5yVn5xUt4vq/2yjnBSBRghJTMSINBEQAE2YbUpAQIRBBRghJTMSIBAEwEF2ITVpgQIRBBQgBFSMiMBAk0EFGATVpsSIBBBQAFGSMmMBAg0EVCATVhtSoBABAEFGCElMxIg0ERAATZhtSkBAhEEFGCElMxIgEATAQXYhNWmBAhEEFCAEVIyIwECTQQUYBNWmxIgEEFAAUZIyYwECDQRUIBNWG1KgEAEAQUYISUzEiDQREABNmG1KQECEQQUYISUzEiAQBMBBdiE1aYECEQQUIARUjIjAQJNBBRgE1abEiAQQcC/FzhCSoFm/NfvHw00rVFHF/AJcPQrwPkJDCygAAcO39EJjC6gAEe/ApyfwMACCnDg8B2dwOgCCnD0K8D5CQwsoAAHDt/RCYwuoABHvwKcn8DAAu4DDBb+r//00cKJa+/Di7Z/tHkXhufJlQv4BLhycm9IgEAvAgqwlyTMQYDAygUU4MrJvSEBAr0IKMBekjAHAQIrF1CAKyf3hgQI9CKgAHtJwhwECKxcQAGunNwbEiDQi4AC7CUJcxAgsHIBBbhycm9IgEAvAgqwlyTMQYDAygUU4MrJvSEBAr0IKMBekjAHAQIrF1CAKyf3hgQI9CKgAHtJwhwECKxcQAGunNwbEiDQi8DauVPHd3sZxhw/E1hbS3c8+lTaPPF8OvzAY+nQ5tG0tu7PrJ8pHej/3N3ZSVe3LqQrX3yQtj58M13+6J2Udufzj1Tr37d4oOFde3O/EPWgE9jj/Tfu/kW69+U/p8O/fGSPV/jbPQjkP5A2jhxLm0eeTZu/eTZdefrjdP6NV9L219/0MJ4Z9hHwcWIfoIN4Opff/b/7u/I7CPzK9zx8//Hr2eUMPfoXUIC9ZXTty978yW/jzrt7m8w8NymQs7v3pddTupalR98CCrCzfPL3/HzZ21koBePkT4I5S4++BRRgZ/lsnnihs4mMUyqQf3jl0beAAuwsn8MPnOhsIuOUCuSf3Hv0LaAAO8sn3+riMQ8BWfafo9tgGme0331UU9++9t/7O/X9vH6xwKJ88y0yi55fvPP/n5X3zSiVv8YnwHI7KwkQCC6gAIMHaHwCBMoFFGC5nZUECAQXUIDBAzQ+AQLlAgqw3M5KAgSCCyjA4AEanwCBcgEFWG5nJQECwQXcB9g4wKn3cdXeN9b4OLafKDA1/4nbe3mlgE+AlYCWEyAQV0ABxs3O5AQIVAoowEpAywkQiCugAONmZ3ICBCoFFGAloOUECMQVUIBxszM5AQKVAgqwEtByAgTiCijAuNmZnACBSgEFWAloOQECcQUUYNzsTE6AQKWAAqwEtJwAgbgCCjBudiYnQKBSQAFWAlpOgEBcAQUYNzuTEyBQKaAAKwEtJ0AgroDfB9g4O7/frzFw59vX5u/3CbYN2CfAtr52J0CgYwEF2HE4RiNAoK2AAmzra3cCBDoWUIAdh2M0AgTaCijAtr52J0CgYwEF2HE4RiNAoK2AAmzra3cCBDoWcB9g43Cm3sdVe99Y4+PYfqLA1Pwnbu/llQI+AVYCWk6AQFwBBRg3O5MTIFApoAArAS0nQCCuwOy+B7h2y0a68/Fn0ubDJ9Otxx5KhzaPprX1Q80S8j2eZrQ2JtBcYFYFeMcjT6Z7nnstbdx1b3M4b0CAQHyB2RTgkadfTPecPB0/EScgQGBlArP4HuD1T37Kb2UXjTciMBeB8AWYv+eXv+z1IECAwFSB8AWYf+Dhe35TY/d6AgSyQPgCzD/t9SBAgECJQPgCzLe6eBAgQKBEIPxPgfN9fosen595Iu189/2ilzR9zv+3tylv95vX5u8+07YRh/8EuN9NzgdZfm2jszsBArUC4QuwFsB6AgTGFVCA42bv5ASGF1CAw18CAAiMK6AAx83eyQkML6AAh78EABAYV0ABjpu9kxNYKLB++20Ln9/dubrw+QhPhr8PsHfkqfdx1d431rvHaPNNzX+qz0FeL1e3Lkwdt7vX+wTYXSQGIhBD4IevPosx6IIpFeACHE8RILC3wNanZ/d+MsgzCjBIUMYk0JPA9rfn06X33+5ppKJZFGARm0UExha4+NaraffH7fAICjB8hA5AYLUCF8+eSZc/eXe1b9ro3fwUuBGsbQnMTSB/2Zs/+c2l/HI+CnBuV6nzEFiSQL7PL9/qkn/am3/gkb/nN4cve3/KowB/quGvCQQTaH2fYTCOyeP6HuBkMgsIEJiLgAKcS5LOQYDAZAEFOJnMAgIE5iKgAOeSpHMQIDBZQAFOJrOAAIG5CCjAuSTpHAQITBZQgJPJLCBAYC4C7gNsnORB/r62xkez/U0I1ObvPr+bQK54iU+AFXiWEiAQW0ABxs7P9AQIVAgowAo8SwkQiC2gAGPnZ3oCBCoEFGAFnqUECMQWUICx8zM9AQIVAgqwAs9SAgRiC7gPsHF+U+/jqr1vrPFxbD9RYGr+E7f38koBnwArAS0nQCCugAKMm53JCRCoFFCAlYCWEyAQV0ABxs3O5AQIVAoowEpAywkQiCugAONmZ3ICBCoFFGAloOUECMQVUIBxszM5AQKVAgqwEtByAgTiCijAuNmZnACBSgEFWAloOQECcQUUYNzsTE6AQKWAAqwEtJwAgbgCCjBudiYnQKBSQAFWAlpOgEBcAb8PsHF2fr9fY+DOt6/N3+8TbBuwT4Btfe1OgEDHAgqw43CMRoBAWwEF2NbX7gQIdCygADsOx2gECLQVUIBtfe1OgEDHAgqw43CMRoBAWwEF2NbX7gQIdCzgPsDG4Uy9j+tXf/wgra3v/edS7X1ljY9r+58I7O7spH//4bGf/B1/2ZvA3v+k9TbpIPNc3bowyEnnf0xZ9p+xAuwsoytffNDZRMYpFZBlqdzq1inA1Vnf1DttffjmTb3Oi/oXkGX/GSnAzjK6/NE76cqXH3c2lXGmCuQMc5YefQsowN7y2d1N5994JW1f+rq3ycxzkwI5u5xhupalR98CCrDDfLa//iZ9+ZcXfBLsMJv9Rsqf/HJ2OUOP/gXcBtNpRtdL8PWX0x2PPpU2TzyfDj/wWDq0eXThLTKdHmXWY+VbXfJPe/MPPPL3/K5/2euTX5jMFWDPUV37B+nyh/+8/p8bY+53H+DU+w5v7Hvjv6Ptf9Dzus/vxpUT8799CRwzN1MTILAEAQW4BERbECAQU0ABxszN1AQILEFAAS4B0RYECMQUUIAxczM1AQJLEFCAS0C0BQECMQUUYMzcTE2AwBIEFOASEG1BgEBMAQUYMzdTEyCwBAEFuAREWxAgEFNAAcbMzdQECCxBQAEuAdEWBAjEFFCAMXMzNQECSxBQgEtAtAUBAjEFFGDM3ExNgMASBNbOnToe+vd2t/59cEswtgUBAp0K+ATYaTDGIkCgvYACbG/sHQgQ6FRAAXYajLEIEGgvoADbG3sHAgQ6FVCAnQZjLAIE2gsowPbG3oEAgU4FFGCnwRiLAIH2Av69wO2NvcMEAfd1TsDy0moBnwCrCW1AgEBUAQUYNTlzEyBQLaAAqwltQIBAVAEFGDU5cxMgUC2gAKsJbUCAQFQBBRg1OXMTIFAtoACrCW1AgEBUAQUYNTlzEyBQLaAAqwltQIBAVAEFGDU5cxMgUC2gAKsJbUCAQFQBBRg1OXMTIFAtoACrCW1AgEBUAQUYNTlzEyBQLaAAqwltQIBAVAEFGDU5cxMgUC2gAKsJbUCAQFQBBRg1OXMTIFAtEL4Ad3euLkRYv/22hc97sh+B/bLaL+t+TmKSKALh/50gV7cupI0j9+3p/eDp9/Z8zhOxBHLWHgSWKRD+E+APX322TA97dSwg647DCTpa+ALc+vRsUHpjTxWQ9VQxr99PIHwBXnr/7bT97fn9zun54AI545y1B4FlCoQvwN0ft9PFt15dpom9OhTIGeesPQgsUyB8AWaMy5+8my6ePbNMF3t1JJCzzRl7EFi2wCwKMKP89x9/S/9547e+HF72FXKA++Uve3OmOVsPAi0E1s6dOr7bYuOD2nPtlo105+PPpM2HT6Zbjz2UDm0eTWvrhw5qHO87QSDf55dvdck/7c0/8Mjf8/Nl7wRAL50sMLsCnCxgAQECwwrM5kvgYRN0cAIEigUUYDGdhQQIRBdQgNETND8BAsUCCrCYzkICBKILKMDoCZqfAIFiAQVYTGchAQLRBRRg9ATNT4BAsYACLKazkACB6AIKMHqC5idAoFhAARbTWUiAQHQBBRg9QfMTIFAsoACL6SwkQCC6gAKMnqD5CRAoFlCAxXQWEiAQXUABRk/Q/AQIFAsowGI6CwkQiC6gAKMnaH4CBIoFFGAxnYUECEQXUIDREzQ/AQLFAgqwmM5CAgSiCyjA6AmanwCBYgEFWExnIQEC0QUUYPQEzU+AQLGAAiyms5AAgegCCjB6guYnQKBYQAEW01lIgEB0AQUYPUHzEyBQLKAAi+ksJEAguoACjJ6g+QkQKBZQgMV0FhIgEF1AAUZP0PwECBQLKMBiOgsJEIguoACjJ2h+AgSKBRRgMZ2FBAhEF1CA0RM0PwECxQIKsJjOQgIEogsowOgJmp8AgWIBBVhMZyEBAtEFFGD0BM1PgECxgAIsprOQAIHoAgoweoLmJ0CgWEABFtNZSIBAdAEFGD1B8xMgUCygAIvpLCRAILqAAoyeoPkJECgWUIDFdBYSIBBdQAFGT9D8BAgUC/wP1xO1CM5rJq0AAAAASUVORK5CYII=;" vertex="1" parent="1">
          <mxGeometry x="413.5" y="310.4" width="93" height="93" as="geometry" />
        </mxCell>
        <mxCell id="ziRwayuzQX1U7kPAkTH5-10" value="" style="shape=image;verticalLabelPosition=bottom;labelBackgroundColor=default;verticalAlign=top;aspect=fixed;imageAspect=0;image=data:image/png,iVBORw0KGgoAAAANSUhEUgAAAY4AAAE8CAYAAADXBlYCAAAMP2lDQ1BJQ0MgUHJvZmlsZQAASImVVwdYU8kWnluSkEBCCSAgJfQmiEgJICWEFkB6txGSAKHEGAgqdmRRwbWgYgEbuiqi2Gl2xM6i2PtiQUFZFwt25U0K6LqvfG/yzZ0//5z5z5lz5965A4D6Ca5YnINqAJArypfEBPszkpJTGKRugMIfDdgAJpeXJ2ZFRYUDWAbbv5d3NwAia686yLT+2f9fiyZfkMcDAImCOI2fx8uF+CAAeBVPLMkHgCjjzafmi2UYVqAtgQFCvFCGMxS4SobTFHiv3CYuhg1xKwAqalyuJAMA2mXIMwp4GVCD1gexk4gvFAGgzoDYJzd3Mh/iVIhtoI0YYpk+M+0HnYy/aaYNaXK5GUNYMRd5UQkQ5olzuNP/z3T875KbIx30YQWrWqYkJEY2Z5i3W9mTw2RYDeJeUVpEJMRaEH8Q8uX2EKOUTGlIvMIeNeTlsWHOgC7ETnxuQBjEhhAHiXIiwpV8WrowiAMxXCHoNGE+Jw5iPYgXCvICY5U2mySTY5S+0Pp0CZul5M9xJXK/Ml8PpNnxLKX+60wBR6mP0Qoz4xIhpkBsUSBMiICYBrFjXnZsmNJmTGEmO2LQRiKNkcVvAXGMQBTsr9DHCtIlQTFK+9LcvMH5YpsyhZwIJd6fnxkXosgP1srjyuOHc8EuC0Ss+EEdQV5S+OBc+IKAQMXcsW6BKD5WqfNBnO8foxiLU8Q5UUp73EyQEyzjzSB2ySuIVY7FE/LhglTo4+ni/Kg4RZx4YRY3NEoRD74MhAM2CAAMIIU1DUwGWUDY3tvQC/8peoIAF0hABhAAByUzOCJR3iOC11hQCP6ESADyhsb5y3sFoADyX4dYxdUBpMt7C+QjssFTiHNBGMiB/6XyUaIhbwngCWSE//DOhZUH482BVdb/7/lB9jvDgky4kpEOemSoD1oSA4kBxBBiENEWN8B9cC88HF79YHXGmbjH4Dy+2xOeEjoIjwjXCZ2E25OERZKfohwLOqF+kDIXaT/mAreCmq64P+4N1aEyrosbAAfcBfph4b7Qsytk2cq4ZVlh/KT9txn8cDeUdmQnMkoeRvYj2/w8kmZHcx1SkeX6x/woYk0byjd7qOdn/+wfss+HbdjPlthC7AB2FjuJnceOYA2AgR3HGrE27KgMD62uJ/LVNegtRh5PNtQR/sPf4J2VZTLPqdapx+mLoi9fME32jgbsyeLpEmFGZj6DBXcEAYMj4jmOYDg7ObsAINtfFK+vN9HyfQPRbfvOzf8DAO/jAwMDh79zoccB2OcOH/+m75wNE24dqgCca+JJJQUKDpddCPAtoQ6fNH1gDMzh/uUAnIEb8AJ+IBCEgkgQB5LBRBh9JlznEjAVzATzQAkoA8vAKrAObARbwA6wG+wHDeAIOAnOgIvgMrgO7sLV0wVegD7wDnxGEISEUBE6oo+YIJaIPeKMMBEfJBAJR2KQZCQVyUBEiBSZicxHypByZB2yGalB9iFNyEnkPNKB3EYeIj3Ia+QTiqFqqDZqhFqhI1EmykLD0Dh0ApqBTkEL0WJ0CboGrUZ3ofXoSfQieh3tRF+g/RjAVDFdzBRzwJgYG4vEUrB0TILNxkqxCqwaq8Oa4X2+inVivdhHnIjTcQbuAFdwCB6P8/Ap+Gx8Mb4O34HX4634Vfwh3od/I1AJhgR7gieBQ0giZBCmEkoIFYRthEOE0/BZ6iK8IxKJukRrojt8FpOJWcQZxMXE9cQ9xBPEDuJjYj+JRNIn2ZO8SZEkLimfVEJaS9pFOk66QuoifVBRVTFRcVYJUklREakUqVSo7FQ5pnJF5ZnKZ7IG2ZLsSY4k88nTyUvJW8nN5EvkLvJniibFmuJNiaNkUeZR1lDqKKcp9yhvVFVVzVQ9VKNVhapzVdeo7lU9p/pQ9aOalpqdGlttvJpUbYnadrUTarfV3lCpVCuqHzWFmk9dQq2hnqI+oH6g0WmONA6NT5tDq6TV067QXqqT1S3VWeoT1QvVK9QPqF9S79Uga1hpsDW4GrM1KjWaNG5q9GvSNUdpRmrmai7W3Kl5XrNbi6RlpRWoxdcq1tqidUrrMR2jm9PZdB59Pn0r/TS9S5uoba3N0c7SLtPerd2u3aejpeOik6AzTadS56hOpy6ma6XL0c3RXaq7X/eG7qdhRsNYwwTDFg2rG3Zl2Hu94Xp+egK9Ur09etf1Pukz9AP1s/WX6zfo3zfADewMog2mGmwwOG3QO1x7uNdw3vDS4fuH3zFEDe0MYwxnGG4xbDPsNzI2CjYSG601OmXUa6xr7GecZbzS+JhxjwndxMdEaLLS5LjJc4YOg8XIYaxhtDL6TA1NQ0ylpptN200/m1mbxZsVme0xu29OMWeap5uvNG8x77MwsRhrMdOi1uKOJdmSaZlpudryrOV7K2urRKsFVg1W3dZ61hzrQuta63s2VBtfmyk21TbXbIm2TNts2/W2l+1QO1e7TLtKu0v2qL2bvdB+vX3HCMIIjxGiEdUjbjqoObAcChxqHR466jqGOxY5Nji+HGkxMmXk8pFnR35zcnXKcdrqdHeU1qjQUUWjmke9drZz5jlXOl8bTR0dNHrO6MbRr1zsXQQuG1xuudJdx7oucG1x/erm7iZxq3PrcbdwT3Wvcr/J1GZGMRczz3kQPPw95ngc8fjo6eaZ77nf8y8vB69sr51e3WOsxwjGbB3z2NvMm+u92bvTh+GT6rPJp9PX1JfrW+37yM/cj++3ze8Zy5aVxdrFeunv5C/xP+T/nu3JnsU+EYAFBAeUBrQHagXGB64LfBBkFpQRVBvUF+waPCP4RAghJCxkechNjhGHx6nh9IW6h84KbQ1TC4sNWxf2KNwuXBLePBYdGzp2xdh7EZYRooiGSBDJiVwReT/KOmpK1OFoYnRUdGX005hRMTNjzsbSYyfF7ox9F+cftzTubrxNvDS+JUE9YXxCTcL7xIDE8sTOpJFJs5IuJhskC5MbU0gpCSnbUvrHBY5bNa5rvOv4kvE3JlhPmDbh/ESDiTkTj05Sn8SddCCVkJqYujP1CzeSW83tT+OkVaX18di81bwXfD/+Sn6PwFtQLniW7p1ent6d4Z2xIqMn0zezIrNXyBauE77KCsnamPU+OzJ7e/ZATmLOnlyV3NTcJpGWKFvUOtl48rTJHWJ7cYm4c4rnlFVT+iRhkm15SN6EvMZ8bfgh3ya1kf4ifVjgU1BZ8GFqwtQD0zSniaa1Tbebvmj6s8Kgwt9m4DN4M1pmms6cN/PhLNaszbOR2WmzW+aYzyme0zU3eO6OeZR52fN+L3IqKi96Oz9xfnOxUfHc4se/BP9SW0IrkZTcXOC1YONCfKFwYfui0YvWLvpWyi+9UOZUVlH2ZTFv8YVfR/265teBJelL2pe6Ld2wjLhMtOzGct/lO8o1ywvLH68Yu6J+JWNl6cq3qyatOl/hUrFxNWW1dHXnmvA1jWst1i5b+2Vd5rrrlf6Ve6oMqxZVvV/PX39lg9+Guo1GG8s2ftok3HRrc/Dm+mqr6ootxC0FW55uTdh69jfmbzXbDLaVbfu6XbS9c0fMjtYa95qanYY7l9aitdLanl3jd13eHbC7sc6hbvMe3T1le8Fe6d7n+1L33dgftr/lAPNA3UHLg1WH6IdK65H66fV9DZkNnY3JjR1NoU0tzV7Nhw47Ht5+xPRI5VGdo0uPUY4VHxs4Xni8/4T4RO/JjJOPWya13D2VdOpaa3Rr++mw0+fOBJ05dZZ19vg573NHznueb7rAvNBw0e1ifZtr26HfXX8/1O7WXn/J/VLjZY/LzR1jOo5d8b1y8mrA1TPXONcuXo+43nEj/satm+Nvdt7i3+q+nXP71Z2CO5/vzr1HuFd6X+N+xQPDB9V/2P6xp9Ot8+jDgIdtj2If3X3Me/ziSd6TL13FT6lPK56ZPKvpdu4+0hPUc/n5uOddL8QvPveW/Kn5Z9VLm5cH//L7q60vqa/rleTVwOvFb/TfbH/r8ralP6r/wbvcd5/fl37Q/7DjI/Pj2U+Jn559nvqF9GXNV9uvzd/Cvt0byB0YEHMlXPmnAAYrmp4OwOvtAFCTAaDD8xllnOL8Jy+I4swqR+A/YcUZUV7cAKiD3+/RvfDr5iYAe7fC4xfUVx8PQBQVgDgPgI4ePVQHz2ryc6WsEOE5YFPw17TcNPBviuLM+UPcP7dApuoCfm7/BX7CfHXhFkK/AAAAimVYSWZNTQAqAAAACAAEARoABQAAAAEAAAA+ARsABQAAAAEAAABGASgAAwAAAAEAAgAAh2kABAAAAAEAAABOAAAAAAAAAJAAAAABAAAAkAAAAAEAA5KGAAcAAAASAAAAeKACAAQAAAABAAABjqADAAQAAAABAAABPAAAAABBU0NJSQAAAFNjcmVlbnNob3TemvKMAAAACXBIWXMAABYlAAAWJQFJUiTwAAAB1mlUWHRYTUw6Y29tLmFkb2JlLnhtcAAAAAAAPHg6eG1wbWV0YSB4bWxuczp4PSJhZG9iZTpuczptZXRhLyIgeDp4bXB0az0iWE1QIENvcmUgNi4wLjAiPgogICA8cmRmOlJERiB4bWxuczpyZGY9Imh0dHA6Ly93d3cudzMub3JnLzE5OTkvMDIvMjItcmRmLXN5bnRheC1ucyMiPgogICAgICA8cmRmOkRlc2NyaXB0aW9uIHJkZjphYm91dD0iIgogICAgICAgICAgICB4bWxuczpleGlmPSJodHRwOi8vbnMuYWRvYmUuY29tL2V4aWYvMS4wLyI+CiAgICAgICAgIDxleGlmOlBpeGVsWURpbWVuc2lvbj4zMTY8L2V4aWY6UGl4ZWxZRGltZW5zaW9uPgogICAgICAgICA8ZXhpZjpQaXhlbFhEaW1lbnNpb24+Mzk4PC9leGlmOlBpeGVsWERpbWVuc2lvbj4KICAgICAgICAgPGV4aWY6VXNlckNvbW1lbnQ+U2NyZWVuc2hvdDwvZXhpZjpVc2VyQ29tbWVudD4KICAgICAgPC9yZGY6RGVzY3JpcHRpb24+CiAgIDwvcmRmOlJERj4KPC94OnhtcG1ldGE+CuWGKywAAAAcaURPVAAAAAIAAAAAAAAAngAAACgAAACeAAAAngAAX/A7C65MAABAAElEQVR4Aey9Z5MkSZIlphHJOSdVWZx0dXXP7PQMdk+wuwLBB2Dv357gAwRyd5DFigA7O+Smp1lxnpWcc54ZEXhPzdTDgmZEZmRWTaV5lbuZG1FT1wzX52pqJJXDIfGIEogSiBKIEogSqFECqQgcNUoqFosSiBKIEogSUAlE4Ig/hCiBKIEogSiBuiQQgaMuccXCUQJRAlECUQIROOJvIEogSiBKIEqgLglE4KhLXLFwlECUQJRAlEAEjvgbiBKIEogSiBKoSwIROOoSVywcJRAlECUQJRCBI/4GogSiBKIEogTqkkAEjrrEFQtHCUQJRAlECUTgiL+BKIEogSiBKIG6JBCBoy5xxcJRAlECUQJRAhE44m8gSiBKIEogSqAuCUTgqEtcsXCUQJRAlECUQASO+BuIEogSiBKIEqhLAhE46hJXLBwlECUQJRAlEIEj/gaiBKIEogSiBOqSQASOusQVC0cJRAlECUQJROCIv4EogSiBKIEogbokEIGjLnHFwlECUQJRAlECETjibyBKIEogSiBKoC4JROCoS1yxcJRAlECUQJRABI74G4gSiBKIEogSqEsCETjqElcsHCUQJRAlECUQgSP+BqIEogSiBKIE6pJABI66xBULRwlECUQJRAlE4Ii/gSiBKIEogSiBuiQQgaMuccXCUQJRAlECUQIROOJvIEogSiBKIEqgLglE4KhLXLFwlECUQJRAlEAEjvgbiBKIEogSiBKoSwIROOoSVywcJRAlECUQJRCBI/4GogSiBKIEogTqkkAEjrrEFQtHCUQJRAlECUTgiL+BKIGzSCB3SqXT8sPqKMviPI9S7jxmHOdONierOzlZ2sjJ/NqxbO9nJZNukROUY/nmtEhbS0r6e0WujaRlpCsl3cjrRF6rpKSFZRhHWjNqIAhOUvhbOsi9HWHc0mJ4WRKIwHFZko7tfFkSOE3nnpYfSgNlWZznPoBiB6ixdZiT9T2cu8eytncoazsHsrp9IPvHKck2d0gOZyrdLC3plLQCPbqBFEP9KRkCcPR3pKSvDQDSCgBBfjvo4jYCRyjzGD+XBCJwnEt8sfKVlUAtwFCtDPP8RzOjOcQzODcOaFlk5MP8srz6MC1zy+uyfXAseyc5OcqmJdfUIU1tPXq2tLVLS3NKrY6WppS0Neekpz0lw71tMtrfIdeGu2SkLy0DSKMFgiLShBBGip5sPn8qF0j5nA9ya0cYt7QYXpYEInBclqRjO1+WBKqBQrknDctbHLovi5PdTgcAho19kVl0R72dXpDXU/PyZnJallbX5fA4KydAllS6TVItndLc2i0t7b3S1tEprW2wOmBxNKXZDXUiHbAyervbZWigS8aH+2Ssv0uGemGBwArpRL9VB4DGLBADEReyvjFW7gE+h7QQLML458Db1eIhAsfV+nvHp22UBM6iY60OQkZT0H3H+PynL2MZfoxXU1vy/MOMPH3zUaaX1mVn/0iOjo4FvVc4qSjhrUi16dnU0i3tXV3S3tkuHV1tAJAmaQICNONsaUlLW2uTdCCtt6NFBns7YYV0wgpphQUCiwROkG7ABDBGgCNqhcBYkXQqi5TgIJPh8cl1dchAGA+ZjPHLkEAEjsuQcmzjy5NAsVKt9QlZD2cOZwqgsZ2B8/tA5P3Cofzw8p08fT8t76YWZHPnEJocqp3owvKkn0NXVbZFsplmSaPLqqW9Q9phXXT1AUC6WqWltVmaiByowmqpVA7dVyLd7a3S39MB4IAV0tcq47BAhjpT0guneheskE70YaE3CwBSBByVngllP80RNhzGPw03V7nVCBxX+a8fn/3sElBNfsbqHgjYRTW/nZMX09vy5P2M/PTqvUwtrMLSOJHjbBPAgWOi0IFElMGRQ79WLtss2RMgTq5FUk3N0trZJl393dLZ2yFtXR3oxiLYID+dVuAgGDQBQGCAaFdVL7IHOtMyBj/IxFC3XBsAoMAK6aGvRFtz/g9QIP4IquIgwzjL6epyaaxyIUfYWBi/kMYi0SoSiMBRRTgxK0qgogScLq+YXS5DHeDIyODcx6ipNYyaerdwID+9/iDP0EX1Ab6Nje09OMoxcBbWBkdNOYuDipu6G8CRARTAi57LONXe3N4i7T2d0tnfIz2D/dLagRFXoJ+DycF/KIgGMwCArKRzJ9LWdKIAMtDTJteGev3ZKoMYjdWOEVidaLITlogbheVBBATTCl6IqL5mC+GBxEvR42EjYTzkJcYvQwIROC5DyrGNL08CxbrztCeEnmNHEP0ZR6g7v56Vp29XtWvqObqn5lY2Ze/wRE5OslD6MA8UNGhZOMJqdWhXFYbjniAZI6x4pOkYb2uRroE+GZy4Lh3dPZIBSKieZ38VHSS8wUnwaEplMAoriyG8OemAL6QXHvNhdHUN0Q8CMBmD9TGOYb196L5ycz/QhYXqzWA+lfhAyBRPHKq/ecGpcU29oEvYQBi/oOYi2YoSiMBRUTQxI0qgigS83qxSoiCLupuT+jaAGkvonno7syV/ffFOXn6YlZnFVdlF9xT6maB8HSA4LcxuKlTSCwN2VSGEEaEh7tNQ8KmmtHQO9MvIndvosuqTTDbrvRVQrjRz7ASpFO0dAADgB0ByAgCBDwRDsfrgYB/uaVcfyI2BZhnlfBDOBUF+h58LQuAAB6ivTJExnOCXABWixoXp9JBwGEfz8bhUCUTguFRxx8a+GAlQZ5Y7oOSZRbXG7iLqbHZNwZCQfTjCp5aP5cdXU/Ls/QKG3S7K0tqW7B1hNngOPg0FDoKDU8zOynCNuDjykGXAoTnskoJi7wBwDN++DUd5nzMyqMzReI6KHZaKKnjHlSp+5pCzJoBBC4bytsDIaW/KwteRwbyPnFzra5c7Y/3wgWBoL0Zh9aD7CrCmc0FIzalt0rAjjFsaQlcwSDhPNCQWxs9DM9Y9iwQicJxFarFOlEAFPUnBqJKH4uYcDXZNYU6fbMKfMb+2i/kZy/LT8w/yFuHy+o7s7R9Dr+OzvqkV1gNCgg0shjxoAIisLYQKHOzz8vEUAQJnez+A49YtAEe/QoLSUdDw4JFM+SMxdzKHFkgKSMQznTvGEiVH8HVkZLC7TW6ODaoPZKS3BQ51gAcsEAze0rkgrUAPuu4JIsAcT5KM8QD9RK/7SHLvSpztGhIJ42ejFmudXQIROM4uu1jzKkuAurfCYVlYHUR2cbN5nJP38zvy/dNX8vr9vMwvb8v61pEcHGJiH6wQ9DXRWQHLgWoYapdWiyKEo+SAA3H+Z1ISogECBw4HHM7iIBxQc6u1kYR5O8F5W1iC/V4k6Lqu0uj/SmMSYRPAhKOwOuDk6MZ43j7vB7kx2qv+D1ogvcjjREL6QQgg9IM4UwhhCBzKn+OROcqaRs5yCeicj9BZGo91AglE4AiEEaNRAjVLgIqy3AHdRl2cYdcUIov7OZlc3ZanH+fl+19eyfTMiuzDBDk+xugodE+xbIp+Da9g2dGloEHaqtQZ+MYQaNTfuuapTDEKCpbGyC0PHNpFhXTQdOCB+R+ABB1lRbL4xyvPZLgtqfAGDbCWggC88M1wpusiipgHMjHCris40HswDwQz0RHVLqwusN+B7i52e+X1Oeionnf8+Ru04g/Ns5taw7BSGK+1fizXKAlE4GiUJCOdqyMB6tzw8DqMyfRn0IjgEiKbGHL7emFd/vT0jTz7uCDzS5uys32I0bEEDf1OV/XtqrsraeStDddQCBxsthA8WC8PHN2+q0od6arFARrqcA8tDkcXlEjO0SMV/xyaqBnOgU4rhBZIV1ta+jBTcKADq/B2t8APgjkgmA8y3NWs62F1oyurhb1tIKtnQojErU2fqG0VpYXly8ZDBsN42cIx8QIlEIHjAoUbSX+BEiij63TQEh6VPfyY740VbkXWtrPycWkD8zPm0EX1Rj7Or2LuRhaWBgm0QGVTwzZBtTsFmCdLiwNF9MLA5yT3yOORVGB9Bxyjt++oc1xBw6wO5BUCR1JRySghJDkrxCcpRcZpkWTgcznWsEnngWQwzyOHFXhbsHxJB85ODYfhExngUiYAlg48WitGe9lyJoQsGCTqD/GPq7SDh2BjNRwhWITxGqrGIg2VQASOhoozEvubkUCx/jwj4yRDJzhDDKhVnwaH3L6d25M///QcK9zOyiK6qrawPPoxl0QHqLjuI3zCwxIw9efYwZX/ARKGF8oWbww4mOAKaxZBIwEO7aoa0Oy8xRECh69SEHhiIX2lyEJBt5X6PzAKC+DB7qtWIEE7AKIbKNGPZU90PSzMBxnpa9GZ6HSmcxivzQVBUQUOx62jXfQgTDzlMGmxWBg/pVrMbrgEInA0XKSR4GcvgQLFez5uaWXoCreI7GEY7SK84ZMr+/J0EpbGLy9ldnZFjgAYx+ye4rLoSdtQfEnfUF55awyF8uXQgN4zxyvLgkykwbpow6iq0Vu0ONyoqjxw0L9hbfn6ySP7dnmf0LQ0V1b9HVoe6QAPG4HFOSCMc1n3TqyF1Y15IAMAkBHMBRnDelgj8IMMwA/Sy7kg6JXjviAciYXAQx2JUnr1HCH/YbweGrFsIyQQgaMRUow0/rYkYLrxHFyTBNUe99CgX2MfPo1VgMaruQ3545PX8hI+jcUVzNHYPYJOxsKE6tMgcASNF+g+KmbfYQQAcqVQgGlhHfJs96zi1TBHVSXA4bupHA0PHAl4kIAdroRrzMctq0zonOZ8anZhMcQoLPgumoAGzQCQNgyt6mzKYNJgDhtKwQcyiLWwcI5jQiGXNOmG+YHpIGp5wN5KAIRicKIIeQjjKKCHK1Ua99kxuDQJROC4NFHHhj4bCZTTSTUyF/ozCBico7EL0FjezMnHxXVM7JuVvz57IzMLa3KISRxZmiMpOsK5cSvVZdB4qAeZriDBIgYcrngl4HD4QSIYGgtLw/k4YHEUAQfzDWBQ2LQ0Ip4XDQK+tFDpxVkfjk/WteG8GgJEUhyFlTvCeYwNpZpkBKvxjg70yNhgD5Z1b1UfSC+6sDoxF6Qd1hZBhF1YlApP+kLK8pTIKYmgXBjXivFyiRKIwHGJwo5NfSYSOF1HVmSUOEDA4Pc2lxDhHI057Af+ZhoT+168lfeYDb6yvqsr3J5g+VsqcapF9Wsky4mUY8ApZAUDAw5f7HzAwfYDqwN3eqjetQaYUo4nVzS8OvDw5R2zCksKJDqR8Bh+EEwkhCXCYbztWA+rE31UfdjbdmyoBxMKu+X6MIbzwpHeBfDAiF4FEIVWskC+HCIygtMfyq9ewgTLjeElSyACxyULPDb3GUgg0Ed1cQO9RQc4gQOrhMg2QGMaixW+wP4ZzzF66sXbKVnBYoX0Z2SwLDp9Gs56QEX1Z4SKjy2HjPguKYKGJWsY3LMKD1/ABaRZzuJgMZdHJ3yBxUEayopvyLfD5HqPQiDhREI3C53zQGiB0Brh/I6O9jYZwgissYFOuTEMKwQLKQ7C+uB6WD0wN7rQ3YUoV4P3YiFTnj8ypfzqxSf7uA9YJB6XJ4EIHJcn69jS5yKBQB+VZYn5ZRQSrQ1aGWppYI7GzMqRPIMT/M+Y2Pd+DgsVHmSxYx/WncKS51kAh37pV6Dl2g0ZaTRwmLUDpgFajQMO0nPcJ1d9DLbACBAViOa6sQAebNn7QVrpA8FaWBi5C4ujRa7D+pgYgAUy0CrDAJHQB0L8YDN2GlgmbWqOL5BPjLFLkkAEjksSdGzmM5JAqK/LsWX50Frm02AxHW4LvbiO2eAzKwfonlqQZ++m5cnL99o9lWruQClstASEyXFWOHvti5VsQXvWEBKhbK1LykLq4SQe1tNqLJ+oVfg4BuDj4MzxwMdh+Q0FDjKCdu25PC8ulTf+VHOIFohBFtbfyhxjPschJHSsw3hHARpjOMfhB9H1sOBA78U8EAJLiQ8kaCdp3Hhg4/G4VAlE4LhUccfGPgsJqBIqw0mQrlEoJupe+jN4T0uDw21fTK3JC1gaz9/NwAm+KpuYDX7IzFSrqkl1TnNFWu2eQroepuWCRpQqMjXJAUcCFEmarx4GyHPdVEwk3XJdVQQvn99w4LB2GWojjOhBoHAHQ3e6J0c8SwvkBHCKYbwwyNrh++CeIB3whXBZ95E+WB9DXXJrFPuiA0Q6wTe7r9QPoqRwMZmaOH1rMbhcCUTguFx5x9Y+BwlQCVU6mAelpHoKUXZPETgOuYQIhlC9XdyS719OytMPC/Jxdlm2NvcBLpwJztOtPUXSrgnTbhYyh4fLTeK4VcCg1WF5luYKFV41j0mk62iXH1Vl7ea/+xNCmuX50MDHkwKNiWgzXG5EyTsIVm6Qoft7wBeSxtmOxRQHsf3teH+H3BrulGvYF32Qy5sAOfoxCqsbPhB6ahQ4SFQJN4bHSKV+CUTgqF9mscbfugRO0ZGaDcVEJzi7p2hMrG1n5M3MogIG99OYWtrC5ktcQoTCYLcUhttq11AhLDC3VMsFDBhYIMlZG4y4Won14W7zVy3LW9OgZnGwqwozx5VEHiwcOSvryajitYaY5uM+++wBCCvtQgrkpqAFWA5M00mFkDTngrTD8ujE1rZdOIc7m2RisFNuwQ9yZ6RNN5bi1rZ0nhc9SWFD8e5SJBCB41LEHBv5rCRQoMEKOaPuZza/jQkaO5iMx4l9k5iX8eT1JHbsm5cPWOF2Y/sIZdiJwu9gWhrOnVtKuowWTVQoFSf+a58Su6pAThNc6O4ZLzp8I3kfRzFwONBwxQxASCPgRaNGiHk+zui5DxAPmipPmwXYJiTNGemIc/RVU+ZAUif72PcjhZFXnXITI7DuYkOpG4NYGwuz0XUhRdTi8F1KPB6fRgIROD6N3GOrn1ICVXSkdU3R2qAxMQfQYLfUk/cz8vzNR1nACrdcFv3kxFsZBA7vhHZuYHuwAs1piT40he3CswIHtbO17bqqzOIw4HA85PnyPCWsGR9kq4pQiriv7dbaKkc3YcC1C4TkyCvORk9hDkgKiyo2A0TaMQqLq/GOYAXeO2MD8s3dHozCSksXamE1E508WBsvsVSjJRCBo9ESjfQ+fwmU02XkGsqIVgbcGbKPhQrXMLz29eKG/I+XHzDsdl5m51Zkd+sA5Whp6Eaq3kowtWsK0UISLT6CxqEwtQOHSRpnWdzwf0VzwxVhSWUYoEVgCIEj69MUWKycFi/my/OigY9r+QZeipukkMsebJ/gwZBWCOLZIyySeCxdWI13YrhXfv1gVB6OpeUaJg8OYvVd/gXi8WkkEIHj08g9tvopJVBGR9JoYPcUt3rlulMLa4fy4uOcPMXkPoLG3OouLI2MnABQJIeFMvzaU1R2peQqKUcQp2K0bMQVIEjSqGgahVNKlakOLCwPhCoCh+vIIahYtXzDLilpQ8kZTctrUGjPmpALE8I4CxgPLp0LKTZxCRP8VfqwTskNOM2/vtYtv7nTLrcw6orwbRQsTJqJkQuVQASOCxVvJP7ZScB0k2fMAIOgwa4pztGYXTuWd7NwhL/9KG/hEJ9bxgZM+ydQaxg5RV+G7tzHCX6BugqiBem+HQ0IGgUHgQMJBAsqTZ9tXVdFRR1ZMqwFEWoV3pezOGoBDrZgjTJ+AUeBXEL65TI8L16unERIq4NnG8SN7T/kq/Eu+advRuWrESxlAhJc64qU+LS0vU4/yrV7eq1YolACETgK5RHvvnQJBLqFUfo0bPQUN2B6v5iRP/78ShcrnFlel43NPTk4xmxwTuqjmgJw6Fc8Q0/LphaUii5UUkHDQUGChFkdLrn43gqH9UFXwYb03Rl2VdHvwd3DeVS3OFwJLXjpl1A25RvXTjgM1RVYHpiLjzkdh3J3uFX+8Zsb8s14k25f247H5JM6GA9lVIkm009vu3ztmGoSiMBhkojh35YETtcRFZ/HFD4/3unTYO/TJpzgc+uH8uTjkvzxlzfyFvtobO8cyfERSmCnvhxOVVH6xe8VsvKAC+icpoqsqDLFwprAuyKgQHpZi8MVzVfjvR4k5i0ObuTUz+G49QCHJ1OGsuU0NjxNUvnWXEkKhPYgRl1l9uR6r8jv7o/It9cxUXAoLb0YfcW/DC0PQnoth6NbOx+10LxqZSJwXLW/+JfyvLXpiJKnZTWMsHUzwqE74P+Wbaw79WF2W/7080vsDb6Irqo92djL6RyNTAYFFCyoaJyySZrWCC5qciTf9iVtMsHAqiRTLQ4t4bLImxZOWkmqlKcBnlC0HYAxSuDgPA7wWbvFkZD/7CNpAMdQ+5E8GG2Xb+Hr+PZOP/Y+x/Ls4NwNzyXAVDvc3y+8Visd8ypLIAJHZdnEnM9ZAqV69VRuWYWqRTdfwg0d4ZyjMbWEHfvgz/jTj8/kIxYrPMy2yLFuvsT5GSjkgcM16dQOUvNogKQgVbOKL+WVvqPh8hx1gkBdwOEtoPxaVQ44uE6Wsh5yVrlPrZjdz/I+ndmX3uZ9jKoS+eZ6j/z943G53pfW7WndGLcIHJf1h4vAcVmSju00VgJez9ZDlDpWh9uiEowM2cGy6G/njuUPPz2TZ1gSfRrrTm3vHAInoIZwYjqafs07WAhdrx4mDA0+BXAkz+94UeCwriqAxZcJHAdYfn1XhtpO5NH1Pvmn30zIrf50sp4VFrI/5efgZBVeT6kQsytIIAJHBcHE5M9cAonirJ1PAgd37NvPYI4GLI2Z1UNM7puDM/wFuqpWZA8jpzIYiptqQsdHio5wqpj8WdKkJaAIS1U7DGNKyiCjbovD2lViAAncd9jquN7HYcDBbrSk+N+8xXEgbbld7N9xAODol//172/J3UEHHO2QBdYlLhFvYYL7K4XXwvx4V6sEInDUKqlY7vOSQKINq7DltTmL8qS1sQPQYPfUu5lN+Qu2eH3BiX3YG3x779jto4GCzt3qBng66iTkFLAn6ZSx8YBES3flS68XAhxo3zwrCXB4H8cXCRzZQ2k52Za2zLY8nBiQ//0f78uD4bQQNNxM8ggcpb+8i0mJwHExco1UL1oCprSrtQNtzqG2tnzIHqyJxa0cNl3akOfv5+Sn59wbfFX2sPnSCeZmFM4KcMNZHSQ4WGCTBhDavPGAREuvxE7DgQNtu+Zdy1cFOJqPt6TleFOB4z//81fyEPM5InBU+tVdXHoEjouTbaR8HgkESrksGcsvm+kS2dPESX08aWksbebkFfYG/wuG276ZWpZVzNHY3T+UEyBLVhcpJHhQERefSMLBJp2a9krbeECipWvBMpeGAYdvM0/PtXxlgAMWRytOWhz/8k/O4uD2WdHiKPOju8CkCBwXKNxI+owSMIVs1ctp5eIyVjYIObkPvVKyhYka8+sHcIQvY2Lfgvz8AosVruzKie4LDhCAFnaLBZZ2Txk5a85Y0fsg0dKtfHGYV/RFOdo20zwxBFVHVVkxJchWXctXCTjaMjsKHP/bP96Th+iqisBR9Ju6hNsIHJcg5NhEnRIwhWzVymnl4jIsi3JMtpM+jRUMn5rE5ksvPs7Kjy/ey+TsuqzvZOTgCGNwsOZULostTVlXL9YQw8CpzHx/WIl8HWQg0dKtXHHYUOBA44A6XByfbPwqAQctjgcTg/BxADjQVWXA0RKd48U/uwu7j8BxYaKNhM8sAdXKRbVDzVwuH8WpR82nwdFTmwCNKVgWz95Py9P3U/LizZSsYXJfLtWhZ5Z+jRJaXhmTXhELvDU2NM8KINHSy1TRpEYCh9Iqtjj6+7Hn+B3phnPc7W7h51F/SaOq4BxvBmi0HHvnOLqqInBU+sVdbHoEjouVb6R+FgmYQi6uS+1cKQ9Z7JqiP4NLiKzh8o5O8MlZ+enVB5mcX5bNzQM5IqKk4E7F0ug5dYiXa8SllWvKAELzrAASLb2Ymt1fHHCwhRQsDg8cGI77RQMHQKPlZEseXIeP458f6GKHtDiwbQdmj8dRVfZ7u+gwAsdFSzjSr18CppDrrMkZ4TvQHasAh4/LW/ILJvU9/zADR/i8LlaYyaJrKkMHOOZp6LLojJc/KrFgAPE5AQf9M51mcVwV4EBX1X/+Z1gc3scRgaP87/iiUiNwXJRkI92zS6CS1i6mCC3OonbS2ljAGlMvppYwsW9GnmDHvunFNV0S/fiEq9nSp0GwwInQOcSLifp7Q4iibEv+3ICjA8Axxq6qisABzo35omf6W7lN+64qN6oKPo5/yjvHI3Bc7l8xAsflyju2dpoEagUN0AmXROdihRuwNN7DEf7Dy/fwa8zI5MwCuqf20YGBfTS4a5/OBsfIKd1Tg0BSSZN6JspkW9LnBRzOOT52pxg4wC3+u6dx8dPE/znnJ8DBUVXoqorA8en+WhE4zir7WhUc3tdajgaTq6XJiy1T6wOdgQsjza4pLlTIdadWYGm8mVlTn8bPryex7tSa7O4eyRF8HdyAya2fSmuDS3Twj4LTCOGu9EBmmb+dJWlVq49ESy+l41IuzMcBHsgGfRxjd+4WWRx+ZJgtNWJhRSYrZQTp2Bv8Ux0ROD6V5EvbjcBRKpPTU+p9d07RKg0mdzr/F12i3geqkx+S53kCuW5iNvgSJmt8WNiUJ++m5BW2e52cXZat7QNsvuS6plz3FNeeMp9GNQYtD2GZv5slaSkrikRLr/QoFwUcShd8aFdVVeDwHFZi1J6l0gMUpFthCwsyL+yGOwG2YLmR2FV1YSKumXAEjppFFRQ8y/tS6YUF2XrJVSEVMPkJo/U+UB2ssnuKY2c47Jajp2Y2s/LT2xkMt52R1wCNxdUt2UO/1bE6wQkc6JKiX0NBgxP8yJydiJYcxjzCMoK2JC1lRZFo6SXkfMKXBxz28JWeuPHpKfVx7Pi1qqKPo/ESrp1iBI7aZeVKnud9qaBd6iVZgUy9T3Jx5et9oBo5seG2dIJvAzWWt3PyemZZvn/+Wl5NzsnC8obs7R7DhUF/BpdG91u96nwNW3uKjZHBSkxaOsIygrYkLWVFkWjppF7u+HKAQ6ce4hHt4cs97cWkFXRVYVTVv0Tn+MUIugaqEThqEFJSpBHvShkNUy/ZMiQSFj+LSL0PVCPT9GnsoyzcGTK1nJW/AjCevZvGSreLsrKxK4cAkwz7r/x+Gm4nar+MSOIIN+YsLG7c0hGWEbQlaSkryiaLyRTdXyxw5JyP4+69Kj4Oz2ElRu1ZivguvY3AUSqTq5cSgaPS37zmF6kCAatf7kUtSrOiFSiVJBdVL8n/5An1PtBpDIMet3vVHfvgCZ/ZPMaQ2wX5H09eyjvM0Vjb2MMSIiBCwODu0xh2a7tQl6p0Y87C4sYtHWEZQVuSlrKiSLT0Ymp2f9HA0Q7n+HgEDhN3hdD9lcJrhYIx+RQJROCoJCBTCpXyg3R+zFYrbkrFwqCqRqvVLS7L+0p0ypX9JGn1PlAVJnUJEdA7xuq2u7h5u7grf8Y+Gs/QNTWzhHWnMNz2CH1XGYBFCsCRw1Bb+jVsyK0UjAIyxiws13CYF8ZRtljwlo304qxiyp8HcJBRY7qIwwrJRaVwGy2OUplcvZQIHPX8zcOXi3G8h6Gzlk5bJttJ0hzHw84SO5lGJXOaomG5Ssd56lai2dD0UE7nIMyuKQ61PYC5wR37Zld3MNx2Xr5/+ko+zK1gSfQTgEYO1gjnabQAOBDqHA0MQ+UfpuAImQrjBYX8TZV8JevzrRjSilsrpvr5AIdxZsyf/shWw4UROArlcTXvInDU83e3d81CaAsqNzprdS9rpBM87KQysU6TZtwYeDCdcYZnOc5a7yxtnamOyedMlV0lkqBcuYTIhu4NDkvj5+dwgs/K0vqObMEJTksjiz+AzghXSbt5GkARJZJX1saQha6N6tcKZRPhI9+KIC1JrkA0z0tRAWS4PE+MZDXBiOfLW7ILmc9nR4BL5a4qMkfuAg41WkS/6DbfanEsAkexRK7ifQSOev/q+qKiEkJG99CFsnmIPR+g3DDfTA4QHkPZEVCagQ4dODuBGj2Yg9aNdRHaW1KaTiDR99fCOvjQenWUv/SiNSuhypxBrLIPOS7sZeX9yp788mFW/vzTc5mdX9F9NDIYYpvhUNsMTtp1xSOnoEwdG8aMhZXbrCkn6eoBPSNZw99QFXy5Bsin0vHESFYTjHi+kiW7kPn1Agd/OaiX/ICCNoJovsVysWK5litzMWlxVNXFyPUsVCNw1Ck1vl88sY2DHOJcxifxh4VtmcZQ0PnVTVnf2pFdeGqzKWxp2dYqA52tMtzbKdeH++T2tREZ7m+SzlYACHSddWPxPbazFnaS976Wwp+qTM2KKM8gDQWIVM8j+DM2MUrq5fyW/P7nV/Lk/azMwaextwN0TsOXof4MrjcFZPY+DaeASc8aLw7zbZ05FoHDS9dke2ZJ1l0xAkfdIruwChE46hAtlRoH77DffQvrIi1u5AAYW9jDelmmFjdkaW1DNgEcBweHUH4paQNw9HS2yVBft1wbGZTbE6NyYxSjXwaaZaArJV0wO4AhSXcWu69qPT4NeJymLIq4Oq148LAsSrcEjDe1NFYByFNL2/IEixX+6ecX8hEyPoDgM7AwUk1tzhGuI6hQSUcn8Oub7VujFrKRMM77cxwXARxkJ4968M+Q31KeG2JxJPxro7y4o7Q5yykKo8VRJJAreRuBo44/O/0YO3jBuMzFh0XOI5hycwiwd/UWHLWH6KM6wQbWuhUpgINqrLkJANLaLJ0dbdLX3So3x/rlVw9uyN1rXTLal5LeNPJRkANJaYHwYL2zHuepW7nNUq1SmuJqu6euQCmsxLhnllHqfMp3C+jMdadez2yoT+Plh2mdDb57cAJVSuc3h9siVNDwEkPlQO+SGk4eFrq7hlwTxQvaRh68nyb3Qv4CTpChZIIC2lUV3FtpTWKzrKCXGrqqEv8GmSSXxjSpBvEgypzKRwSOyrK5OjkROOr4W9PaWMBX71tMPnvycUN+eP5BZhdWZf8oq8NBOVM5hZczBTDge53LcjBpTtPSAJDmdFZGBtrl63vj8tWNIbkz1ivXAB4DMDu6YW5wKT5TQBbWwV5S9Dx1EyIFkUKtUnhXUFBvKoKHVbSQpcGszggHanBv8NmdE3m3hHWnMNz2B4yemscGTMcA6ixgNQ1Lwy2N7udqsJsKh/MJaJR3FimKB8nniX7GwKGLHA4M8heHk74fhBE4gr+2ezPCa5AZo3VIIAJHFWFRBVmfO0N2Ub1ay8q/fT8JxbYiyxsHGBJ67Jy0UPuptP8C9l925uSkIlVAwTihtpYTWB5NcmOkR76+PYadzAAgI20y0gm/B37RpMCTKtH9wBGp8zhrvfLNFCri8K58eYONMlygclKfcRQhaBBeN2FlTKHb7+nUovz11aS8m1+T9e19dPvBX6RDaykVrD2lTnADDteG+wZOKLsPa2XOpenHecCs/nlwX2t6UBV/FGuHD+BzwIbjpKBkwU2+LVay0o6G8u9pVbI2SExp4OJo+bqsh4T2vj7sx4HVcRU44PuBj03BowQ4lBIvhYdvvzCx+M4VKpZ3camLuo8+jouSbP10I3CYzOzFwTttUSo09rlzt9EtoMYi1kZ69hHO2h9eyOTcphyj20RH9lDNc12kFJRboETsNbMmUrkT6J1DAMOR9Pa0ya3rw3IPwHEf582hdhnpwegrOs5Bw7quTMVYSFrGn9EtF4bly+XXnpZvzSkMq5lPzytCl2fQUZCO4qxBAGZI0KB8TbYzy/vyHKvbcrFChlxChA5w7gtOBahwStDglzQsjZTCq39KKlPkmGQMGDSJqU7T6i0BPDwsr1y6lrTy1kZS3T8QiSEtSQ6JB3HlL3/J5xhdz6MDjny2xpKmGCERJ0VfRdM6evtk9NZt7Dk+hLECAFj8Hs3qwBcN6pBJ41IZcY0EUZdw2pWytkoWnlanMflprI7LPcdbsULuw7hWVWOEekYqETjK/PaZRMXGeQTACllj99R8Vr5/9kFe44t4aX0PI6fYfcK+dr6UBA5/hn8Ivqch/RxUZe4Y4HEiTc1YX6g1LQO97bA+euX+jVH59t4IACQtfRiy24267LrSVz6k4d/9MCls8rS4r35asSA/31KoMFwqr3mYUOWkKaxuLeUZZmmCBYcqU/Vh5LKsonvq/TxA4/20/Ii1pz7OLmHHPszRwJpTWe/HSIbbKmigorZJujgZKDPgzmvSQhBgOuugKMsmfDFeKc9XYJGkvEsLr5rtL0o6TCiK5ykipjeekjHH8ojrbUFaWJx1KDmcavmwM4oHto7t7ZWRiZsICRz4XXIypIIHSpQAB6qEbSiN2i/g8lz1a2+psGQaH10ROApl8qnuInC497dA/qrU0Oe+jb71OXShTK7n0IWyjj73N7KAIaFc3oJfw4IvO760JOHUJ1/SkJTd8EVjOi9UDmiBJ76gWoEOfb1tcnN8SJ3mD8e75UZvSsY6YH1g1FUzPrIJHq4+QpLEqeSYfobDuKpalQ1oQddS/qpqA5l5Dhw9o1oMJEhnUZyUK3ZwVSf4ARBkA4D8YfkQQ21nsGPftLyGpbG5voUH5nBbwiaH20IAtDrU2mAbIIT/CgK4ZWumyMoDB4p7JVkIKCBFamXymJaUTb7StbDWIQN8pFoOk0q+vI9pu/wtkAouSXI+niT7PCdBCC6FMXtpwGlTWto6OqV3oF+6urqltb1TUi2d6P5rA3hQhvx9wkILgSOhVQv35crw2cnjuQmVI141TbuqYG3ofhw34uq4VYV1wZlXFzgq/O45skdH9wAwZtYz8nJhS37+sCjvMFdjFesiHeBrWF9IfNV5lV75T2RKJ3nJVNPly8MCSadOpKUpJ91dLTLS3yH3x3vl7+j7GOuScQBIF4ZcsYMGRdxHJjWRaaM8pbpiNVWnfLSgE1T+6hVH0KKjZ1QNOHjv0ryOVLkeAThoaejIqel1XXPqCVa4nV5Yl+2dAzk+ovTZ7Ud/BgrjNPBwTZITQhCKYBCCtapcJcNYLVWL4cI6KGt/D59soGGlikMtjzpJNZBxStOHxRXK3Bsn5MAdJGJ3oMa4Jvm0fFbSFstrMi1W2MEpSLIZP79WjNS7duOm/Po3v8WovU6ZnpmXje1DyaTbcWIggYIvgYNcQJYMjb7npv7A86wVz02srua1qyqzFYGjLqldTOGrBxwVfutMZhfKLnTSJr6EZ+EEfwXF9mJqSV6he2oV08Oh4vEO8wWEKtevOVMLtf5xUD6pwgi+HNF1Jey6whdke2tOxgY65dEtAMfEkNwd65GxfnRdwenRhWYVPDwJ1k5I1dp8rXVCGSXOYOocZrhMr8oCHhw3TpUbZ7AGUJz6nLWOkbyDm3U4jiYXD+SnV+/lBSyND9OLsokd+9SfQfk6qETo/Bmq9BRESMWfoKW9g54D8qPzHxKljKI8jBVEagMOz6wChq9jyKEKnPloi2zwSOi72+KrZVtxV5F3pEFaJOdzfUAamqT5WV+OBY9hgZ5Ie3ta+tHFOTyC38j9h/Kb332l5b//cUZmMJ/oJN0hmaaOUuA4jdli5svee741L2C4bNnGJkbgaKw8z0MtAgekx58/zyO85cvsPlnJyovpbSi2SZmaX0WfOxbTw45yqSaY/6rMqA7sRLTmw9QIKujXH1vFVyS+JFPofmjC2daSk56OZkwY7JOvbl+TRzeG5cG1tHZdcbIg1Wp4WtMBZUs6W1isC0qAg2RNYtaEaz1/RYxzK5BN0ODyIdpNBbxdhCX3anZXnmK3vicAjhlM7NveOYSlwSqwNAyY2T1lMqbDiXGnTV37uK0EHGyXB2vZxel+TWGqU8YaK3PxijyVhqQJIL6IU/ABaDDdMsuQCbONJ7Ssz+FAg6kBPV8o/5gEDUhOuzUxPwg74HV3puXmtX78Nsbl8dcPZeLOhAyMpDH5NCv//qePMonRaCdNXXpqdyp/r/rw/NWcwmyFZyhMjsBRKI+reXd1gcNeUrxLjB6ih4R97u83MEdjZhs+jVV5g5VYN9e3oanRL4A+41QTV2CFQoQ21OqeRu0/nfDFtTiJ2AkA0ZFXx9LV0yk3Mdrq0fUB+ebmkNwbapJhDNntRNcVfOfszAHQ5FsOovnEarFaeQ+AQ5Wc0iytnG+fMZweOAgacBXJPmS7hgEFb5cByJgN/hxW3OTMkmxDvpwNTmvDPRUVHOJqeeSpumbZLk7PUwFwQNvmlbGW9nrS0QiBQ/96JKVyt3wXhjTYFaZEWJn0Wb6o3mm62FH11bRJEshbER6jkgL5e/c8KYAGPyqa4ezqhKUxMdSBQRTj8mucjx7ek/7RtHYBTq7k5N/+4528m12T4+ZuyeCkr4OfGWWBo4QxMlfL4fhyJVUYtVRqSJlocTREjA0hcqWBgx+y7J5ir/o6poS/md8DaKzDp7EkH1f2MUcjI8fHtAagpuEIT+ZpJEqKf4N6Xh57W1kviCdR0iJ4QFG0pKUDimK4p0luD3XK19f75du712Qco646wU47lBoXSjTrgyQSMiRf7aiL5bCwi6sC9fQL2+Qdu5dcpk7sQ5Q+jYWVjDyB8/sXgPEzbMI0v7Yr+/CQn2C2vXN8w8LgmlP6FAQRixe3z3s6rxHwYKhFqNCYwItl8t4dVj4pkvzdKnVhOTrWvaXPzAaUAGgaweKmLJ/N+rw8i6Z0SYcFjWeNIsmnI3Rx+sAwdg9/6IGBPrkHK+Ob26Pyd/fH5f5oN4Z0Q04wQw9B591yTv6fP7yRt3MAjqYeOWnuUeBwjnGTZcCsRUN+yfOphz0DC9Zd+VTq1QpE4KgmncvNu3rAQfn63zt3Gd3xo3u4FemT9/Py/OOyvJtblQ1kqKkPfwYBI6V+Dfe26TtPIkqnnpfH3lYyEcbtlrTYqcNOGuf/aG/JYF2rFrk9DuB4cFPuAkDGONsc1kcXwIPdV1Sz9H8wTA6Sr4e1pGJRpMjisFyoD/BY9AwEDRTgE7CLivLlbPCVLVgaM6sYzvxaXmBZ9NmlDQxnzsvXLA23hwYVucFhvjWLuYdyD2a6W5WsFmB6MU/5moUxR4PlHR1Xz9Eql2fK3Jrw7YTNWbXChhxLyHO02fXEAoEC9vW0W4qrDdDKQH4TVhro6miR4aFerHM2Jt/cvymPABz3r3XIKMZrs+l91D1A2bewOBQ4ZtcBHN2wOnpgtMFBnnxaGHj4xoxvf1vMcuX7gG9Qv8wjAsdlSrt6W1cOOPSnjgtD+jTmsUHQm4WsPJ9exf7VcC5Cqe3A0qBPA2MbcWKymfaJ8MXzh0MO3NT74tjbSjph3NNVJe1oOg8BnOZ+1FVPV6uMDXXrhMFf3Z/AciVpgSEiGICp4NEKfcTuq3JkPfWzBRWAI0/MPwfNN/wnaHDsD7unDnAztZqVn9/MyFPIVvfSWN3CNq9Y0wvLorsBBgYSZqlQkZOmp5tvCDGTN0OLWwG7D+rxy91na6ohjVUpzAVJV5pXK6+8GEnNpuJMCBSyGaYHRSzqrAhKyGiggq+jNDlqKgv7N0snOLolsYTyrYlh+d2vH8nXdyd0tYERrm+GHqhO5LMqgYP7sL+FX+5f//gGa6etyxG6qU5gdZQHDnKDSgXPxLRajwgctUrqSy53JYGDX8PHeD830YfyFort+/cAjak1+QjH4vbWnhvdw+4pnIkSM6Xj3nD/m+CrW89hbyvqeEVbUtuKUGGjrZSbMoc+bi7TnkJXVac8vsulSvrl1iC+PDHbvB/41gPrA4E7jIbdnyesChy+IT6LP9jtByNDtuAEn8PwqRewNLiEyOvpZVkCaOzvYkiVDmWmfGkjoS7qO0k6OiZqo1kYOrnklZ+1zXRfUgl4BRekWbdTnp6rY0UKEAE0WN6Ag9/3oJi0ofE8IRdLCBVn+Hv8Pc2icSDiKrifFPMy+FDIYIBESvp6OnSAxNfonvyHXz+Uhze6YWWiixKAQanRwmRXIMSswPEGv+N//cNbeUsfByyO6sABAvZ3PY3nkkexZ2BG3ZVLqNWTEC2OeqR1sWWvFHDwZ25fxNuwNKZWD+XnmU3586s5eb+8J3sHABT4NJx5z+4pfA2bFkveEUbsxsJa/0heyWk1Hze9F5II0/QFB0cAhnQ6I+3Nx9LbIXJjuEseYb7HV/givT8GAEHXlXOFeu9AMWu8D+mG7VWKm3KplB8SBH36i2hl7MLcmJzdkz//8lKewqcxtbIja1i88BCIkqEpol1aHjSUBtUyD1yrtom6VL5e/iVAoHlKCBeWtbgLHQgEQjBaReW0NEGDkQA8NN2XNR40zS7l6FgeQ7aH0z0DBMVBFhwxxTT+MmFtdMDKGEHX1L1b1+S7x/fl4a1RmRiEdYll+DsAGolfC1XYFUiLYw+1X2NUFYHj3Uw54KCsA4sZdyocPiCbruvwz6B16q5cV0vFhSNwFEvk091fKeDAq6mOcC4lsrwOn8aHFfkBjvCf3i/J4iaW7U614z3iC4Y3KumeUvURvGB8WeyFsRBJNR0hLR/3QUn1JD3fHid+pbL70K37+CJtlTsTI/Lw5hgWSxyXWxh1NYjZ5l1QLvR7cK0rTA1xh4W8K6Ab3ruitV0TIgrEJM/RU7Q0VvEJPL1yiCVEsI/Gj8/lA5YQ2QaaHKPrL8uuP7UurHuKdKigPT0D6US+RdyogqXKpiXGqqjp61Ah29e81gqfWcu6lnxFLeIUOAqWlE040ja0esCbsuEokGj+KKaTz3Ex4xFgofxqtxRsNIyka8FgiO6uNhnDhl/3buBveu+m/Oqr6zKBobbslrIFMP2vU3+ltO4MON6cBTiK+avp3uTMwqc9cE0Eay4UgaNmUV14wSsFHOx759LoVHB0hv/+p3cADQwLhbWxdYBRPU3tyHXKzFkaXisEXTHuZbEXxsJa/05Gj+UDjRNECyhpetgGR1xxwsMRFI1IF4ZXjQx0YW8PzPXAJlGPbnbL9X4sVQIlhw9UwXJY7rBQ73Bj7VlY0ChvCirg3gr60GdTLJQpz0NcdtD192ZuX/6IHfueAThmFtdlCxP7Mhham+UyLehkcSo/r/6UYqKUQaja4YFDi6CigYarAoWmw6SNd6/8E9qWHjRgz4EkxwfzNOYLoUCZakHhkuK+YvnAA0eO20cSPODLEMzNSGUOZXAQqyU/vCOPH9yCP+OG3BxtlwE4wLvQbWXDr8lZeOaBA12uWBbnX/8DFod1VaVDH0cFi6M8l6ekRuA4RUBXIvtKAQdfNFvt9vV8Rv7775/IL+8X8JWMIY1ZdPQocNjf3SuQRHGYQmGCJVpodU4LQ5pGL6hTJklzk3TaTBzXT1XNEF0b8HsM9XfJLax19RgTBh+MdsgElioZRTqtDyxnlGdXiYFno2ehpvMSPo/FWcgXLABQcuBA+BAKm8OZp1d3sDf4vPzhp9fyAcNCOXcjc4JS8GWoJQcAcVQdcKhqV9IljJCZ0qMqcFAXQxn7FhxtXI11bRiX8LHsuUpbClJcndJqnnAx61YwoJCPEtwIGAQOSAR/R64W0N/dIncwZ+e7bx7IY4ycujfRLoP4+7FbiuR5UmJ2WJMGHPt4qDcEDt9VdUIfRwQOE1cQOsmF1yAzRuuQwJUDDo5A4VLez2Yy8n/833/GMt7zGM6IheHS3bA4AB6qnAIJJorAXlcmWKKFQfmqUaNBEkE8rFMh2TSIupG930NX2kX3VStMi27sbT6Gta4eYFbxb+6Oy8NR7DDIL1b0WyXrXFk7bMNoWFpBWPxcWoGVklI6wADF9uCz2IIR9GEOO/b98kqeAjimlrbgHHebW1Gc8M5oXd3aVUl7eqbVE6qnRGoGDgKGOx1FfiUjhgsDfQrNZy4kqpmM13mAUF4i1eqiVX1utJ85kWzmWAG9va1Jro/1yW++vgsr45pajmPwZ/ShyxH/k+HVldpgl6sbVeUtjhA4OKoKEwBd1+tFWRx8Zn2wag/fsLzYVdUwUZ6b0JUFjidTGfkv//X3Chw65t2Pe8+/B/6FKKvgmXeWFyZQAWXpgmxQpOCv69OdrnXt59BHnsMKu1xltxkOjY62tFzDkN3Hd67JV9jrQ9e64vBNODw454PqQ+krLSpR7ysoaMiey0KrxBBdTiBASwNjCBQ0lmlpwPn9HLPB/wJn+OTssuzC0jjJYtQUZtsnw5nxvE55K/SBCpioFzgSmTveXHUnGFX+BcBA8swzYMDT+kfSGsizri7zjRTm83nzZXjnjlAulmY5ZfJA1HOIvxN8VAD6Zgxy6O1qx6ipfnmIv9Xvvn2IZfV7ZZBADzMj7JoiZVff2nAhr/UDBymV4TFPskysuLzJsTS9TOWGJkXgaKg4z0XsygKHszj+lLc4YN7nqOhK3ofwtTVZs1BxQcurFga0zggcjrq1DRVOB2uw1lU7h+a2N8vEKGea38BaV4OYZZyWUXzC0mFOn39eExEG7HA03b3RZ14Yb4LaS+tM8D04itbhCH8DS+Mvz9/Ky8kFTOyjT2NfN7fiXhopDrtFg7Q4VH2ClClnMqHgYc1bO8pAnqskO4kYPxYmGQlxy0mABY26NF7zYMB85UfzkZcw58rokiMefIwjo4TCQXm9Cxhh1PIdcOjoKfgyuBbZECZi3Ls5Kr8FYDy8dR1gD38GR0150OCfiCBvbZKaHXwCO8OuKvVxnGpxkCJr13sU1jGgLaRSWKYwrzF3ETgaI8dGULmywPFiLiP/57/9VWeL7560YuVWDJLXtX1CsfpXt+CdsBsLw/KnxQNVcFbgKGiWNzg5pBOh2gJ0uKIrpKe3S+5DOT0GcPxqYkDuowtkkEN20XfOHW4dJwYc9lVM/gvjSp/JSM8BDA4xcW8HoLGyeYAVbjewhS62en2BxSAXN+HTwMQ+G87MGfc2296vO5XoZXt2fvV72hrYRRMDWVl6QdkCQeRLKAjwlvmlNBzpwvTEWkFdhxMeOHijCXnyLublXpTsFKol8u/Ck74oAAHWmmpHt+FIP0AD3Ynf3hmT776+JzcwlLoTJgb+LAlYkLtwVDLrW4theDbgCPizaE0hW3ZHyXNahnKZ3DQ8EoGj4SI9M8ErBxyhc/y//ftP8jOc4+v7dI5jRBWWaFBlgzfVqTS+wnxpqQA0GlxKEoK8SlFHz+V6bRAWDbPDdMaZV7FJy0CIJSvYhcVF8Xow6up6f6s8wh4f3070Y9jukAwPoisEX7bW602yzh4gYJCOAYej6VJdDqan6eZWSxtH8vbjIpYQeavLzs+v7wu20nAbXNH5ocySsjsdYPh7Jcs4sysAh+YlF0aCw/FVRRjQ1yjjGnX1rB1q4OID5ZSilUcR6+Ji8YI81lUSjodScqCldFz7OfwtUrQG0bnX09cjt7HL49dYMuQ3Dyaw70qfDHenpQvjbK1risOnjUOlTTKWgKbZqvtEcPHzAQcf5rSDLdqRj0fgMJlc3fBKAQfHIrFfGF3wcOBiGeofX8mP2KRpEgsabmM4rhtVxY4CnOxiyWuOAj3k1ckZfjWBFkhUxBnIsEr+PXY3RprAQWUFBcZ1U7uBh9cHO+Xe+IB8fQfzPa73yOiA2+ODXVccuUMQcQNlqeR4OPDgNQMrgwqKQ5hpaSysHWDdqWXsozEjv7z8oOtOHWBbvww7wtjVpxRAxWu8vEOcdI1JH0K+1h5zSw7NtDqWaw9uIagG5ajUCoADeSEQkIphhAoxT8Y14Gnpn17zeMHJQPMQ0bCwXVeAbeNXhlFTBAt6hNpam6S/B9sDjw3r3IzHd6/Lozu9MoauKZO9/uJAliEP9zwublc2T74pVo3j/mw+DqNYS8iW7MjHI3CYTK5ueKWAg19rBA8qwpVNrE+FZUb+igmAf3k9Jwvr2NkPm9+415fA4WeOI4VvLP8lRxBN0mqKeI2jZcN4TZULCxXzQHKqEam8qLhQAEqshbPN0UXS24nF8tC3fv/GEJyxtzGCJ61b03Lmin3x0oPBwywP7BAC5dSkoLGBoWjTS7tYpHBOfoCl8R7gsYl9NPYxgUM3YOKy87qVLmQH7UbAcApcSSpVi7kQDLv/hcmV7lRc+pC+RF4A5uR2GXj+ZD4HgIltm+VomgAAH7BJREFU6GRO5GoVyoey8WS8li6k4Sl5eRpdDQv6kPQR/AW57DJUnxM35sLyIJjUdw0T+n6N+Rlf376OBSqHsWRMi/ShV5SzwAkUfCINwQ/j5UADycquso1CZJ1nBI578nAYq0hDFpwg2aL2GG4qHpSw/blcvGLRmFFVAlcKOOyFI4DsYhzjHGaL/4glR/6/p5PybhHLfB/iyxnzDmwIY7HCoSRJw10YqfcIf6xhvF46KK+MlKsXZKjvg0tz44mgnVqxe9wEluP+3Te35Wv4Pq71N8kQRvL0ADng/gBEcNSPkxJDdHhh9eC0rGFNi2nso/ECQ205se/ZmylZXd8FPsDCUD8GnSYeaDlXQz+LPXCUY9HSoCXrkkJB4fxzFip9Aw6vINgGRpTxHwHDgQZC8OCUNHIKtLWjq5hBPiE7bTZp29pl6OOWB6DmMuhYVkx6MGpqHJP6vkL31P/06Db2VRnW3Ry7MEiBxe0MSRSwwbbDA02xNa5PZS1H4IjAEf5ELjN+pYCDgtWvNoQnMD22MQfhNRaH++PrBXkC62NmAct973A6FWY5637NVIhULP5P4l9evePbW/dhhFgxjNdNKNFZp9eE4mNTONOYN9/ZlpXRPizTPgqldnMYq+0Oyp3xNhmAVYIBtHq44lgmBDUWtzJYoBCLQGK+y8+vPmJv8FXM0TjGIpHQjt7CsDW98oABCgSP5KggLMo2KVNjJKmQp+n+Pi4jAQeQ0xS2AeDQOwCpyw/yXGVtPF+XYIE6BBzWR9SBCwGH7fJ0tNTK0C9d1MHSIa2wMvq6O3QZ9O++vi+PMUDh9mC7dk1xqG0TflLKOWlqq8GlJCHIQyVtFWUY8qR96BY5rHUeR7UGgraSKFuxIx9X8LVk9zT+Ll8myW5gJDrHGyjMc5K6ssDB3/sxdN8cFjt8MXckz6ZXsL7SnMwvb2KviJwc67LfGE5KFaJdHe6lS75EKfi635PwxQ3jZ/gr1ty2FUSIPaubcofovjqWQXRbcbbyg1sjwsUSbwzDmY5+qxZoSYgFQ2pz2JME2+gubGIL3WksOT8n7z7Oy9bmDoYtQy7YRtesDMpHrTQ2wea0ST6fPaMmlD4klXJp6ikpoFW1krcqtHUUVMXvKrALz/5+Dgz4pO5Q0OCMbvuj4pnSMNPUWgnbg0WRI1AoLfoz8N3PtaYACp3trTLU1yU3RgextesERk09wPL3zdIPULY946295BlC2klmmQgem1IMLY4IHNHiKPNLuZSkKwUcpjRMN3B10W0qSAy1moSz/Je30xgltCyTsDy4LLjO64AadcNKnZJxNIK3PSFay98rqJdojlrqlSlTQReXlgwKqtP8GC3jyxhfvl3YYXAMq+w+BHg8uDmCuQVdMoBl2ml57ABQ306uydO3c87SmN+UPey9fnwCdQWl6vbjpmwoF+uegnJTebjnVFgIH7mYuTMCB5+IXWlOhEEDaFstAntkBQ02yjLI0RFfvOXHgDuZa6ChS4EwWy0NPBscFUk3Fp8L3VYEDW7lqhaHDn3GjwfzM/p6MQDhJpZ8waq2XyG8A2f49cE2+DMw1BYi0mEDCV9sNTiCRwhSC6Ooy+oROLak9WQby8wPyr/8UwSOwh/J5d1dKeDgm8eXT99TROgoRxe+mvyr+Lp+NbMlT6bX5OfJZZldo+M3v9aS68tHYRLAkeBFEnHp1a+hhgjj1WuVzfV8lM2rmIhK9HuQZ5xcMLELiu06uq1uX8NcD6x1NTrUputfba4dy9MXr+U5LI33sMa2twAYuo8G6rPfHycuaAln4tdgw8aYV8zVHlPr+79HRZ4LMxQYfBtK2tPQlv1zOR6QS3Dw1VmPwOFYdoBgoJAN1o9icQUMWBtptaRYL98tlcKufHz+NNZxUQDGci+9GPZ8E1bGr7BA4SMAx71xOMF7m9wChfjJkAeKKzmMqSQBkXJpYT7/ZLiPwBGBI/xZfKr41QIOSjl8gXGr3454aQ+wsusqHOZvVuAwB3C8wE5q0/OrsoOZ0NwJMMVRQ01c4RXfulBA1L/1H6F2COP1Uyp+jlMpaHO4mO9BHdhcM+lIOrB9YG8nJghiuE8/5hv093bL3vamvHz1VuYWt7BPCRzlGTw/HeGEW3xxu69uCpPyAFmly0YIGBowxtvqh+bnFXz1wvzzsU33RzTFb3WcxWB/YLbt6GqKAjxjSPM+D/KZtzaQp1UAGHBEkLblZWBlcU4GR6kJFpYkaDSht64VXVBjw73yK4ya+gajprhC8fWBdumDedHtl7cv+/z6zMa1D8ulhUXAHrmPwBGBI/xZfKr41QMOSppvoD9UfyLOXgzMYZMFdNG8nj+Sl9i57iWGns4tb8j2HrposJ9EqpmDVzE6v0BRekI1BaF2COM1VS4sFDxDYUaFO22OF3+qFoIVkT3A1/AhRgLRsct++jbp6emUo4M9mZ2a1WXRc9wiirPqPXA4a4PICSL8T1oUpCIGA23M3zK9Ak+WjPKnFWFRNuOuLqbtWEXyEfooQNHylT/PKxtiOk8FBmRqPdRn9xtP+jZ40BLJZjAvhifQkWCZhn+opQUT+npasJVvr3ZNffcIGy7dHMcoNTdCjZ4xrCyS3w+FPJJl4xXRgqNSeliIz4f7CBwROMKfxaeKX03goLT5FvqDUZ70eezio3IDXVRz2Bjn9cyKzozmMNQ1LgGLeR45bCdLR3AuxxFX7LoKCBnBimGoIcJ4xQqVM+ppNqHCNu0E6zqzmYM6dQUq5EAxok+lCV/kmeND2dvZlaMjzNPAQAF9Xq1LwHBKlIo3f9jzuFCVNjNxm8TzhQtjNQCHa8m3x3aNrjWLpDxwaGbQLsBBq7r6BgzqLKf1qJlcigUfBwQPggpAw1kafF6AAPJaYGF0tGYwqTIrt7F172+xDDqd4Ncx7JY79HHpEBTBsGacZNE1p7wqkXIX479cXpgGWiQXgSMCR/iz+FTxqwsclLi92F76vOX2p8AOzCTn/hLH8gyL+P3wBv38SztwmGew/Sm+QqlIqR74Ba5KzL/9Tjt5auWCUEuE8XJlT0kr4v2U0prNKu7b3n1Rq8Kkw5xPjNC6Y2zpb35tZ7G1H+e2qJVFs4zdNU6FIXRKFZpW6Rde+FXPlPyXf2F+cFcrcKh8wQPoOtJhu7QcvFCSdl37yi9ZJzesq4y58mZ1MC2NrkjtxkLBLEA1c8wRU3TttEhbR4d0dbXISF+T3IQf6PGtQfntoztyc6xXl663HfoIFmxeWdAGg+cMo1ogTDglDlokdyHAAbmSdrlDRRXkarmC33lYM4yXo3a+tDgc93zya2Ttqw0clGSZ3zqTuGz4Fvwes+i6erd6Is+xl/Mvr6dkaWlD5zBksKMd+q6ohVDaThKsdoTaIoxXq1MhrwzfFUomyaxSCBxIIBCow4a5AAJ1WMAZzKVLcGYz7ss7g4kvWZxcB0vLKGiETOS/3J2ywfMhQoXsRFTleVkm4bJ8JK/aXJtO+QdlVfkZP44e70roOraQg/FRCoS+DnhQi4M5tDawb0bm6AhdUxgV1dkhPf29GDjACX0D8vdfY9Xh670y0g0HOFYnpJXBkWiJhYF4xaOEoYolCzPAJjltOHBUAQ3HgJdPuRdFC1g+b8K4q93IawSORkrzfLQicJT5rZvfg504W8hfgfXxfiGL+Qwf5c3Uksxj/4kdbFSUxSIH7Lai0zinw1KhFUivqnKollktL/+HLvjgyyfXFHMqle24Pn4DC355IwXp/gSA6Nc4+/kBGBnt68cmRHAUZ0+wPAtAhQDiFDrqKFOsi0OBAG0QMRjX02VZfnBHVnBUB4+kHS3Ji1ZiRRxsn/9d+5bjufHkfSq0u8GKm9fh65hvg8/kN1vKnmDgQEerjI5iaC2G194aH8SoqRH57qshmehJ61It7Jai/cbQN8+YfyYXbdSVnPKknceQv8+6NnJCJdar/QhLh/GQgqVbGOY1Np7GNrvNGIrbmsFw3AkMx/3nOBy3sRKunVoEDpOV/e69fuEtO2W4mi5fzi34PZZhfTyb3JZ///65TKIL6yjTDKc61IZaHs73YeQ0NA12emJBiWpax4GGMVtU7dRbMmSnL0yCtDJUpRhdhkyHKtZ8F1LRZo6P5OTgAHtHHeGL3VkfWkatFdTxQKHtoCm1DACqeT3PRN82Ao0y00XCrHwhr+4KgCFP0PFarBLJvk9ToPBt5qs5YNRG2DwyaF1wdeFshvu6cy3grIyP9MnfYSLf47s3sdbUEPbOaNYNlzhqykCDpF3nX8DyBUT9X+WMwMEPBS+Emnlji3YEcfcjtAyEQV6Q2uhoCsDRAtBwwDEA4MCghLhWVaPFXBO9CBxVxMTXgSrVTmCHLlHyb99PYm/tZVleP8CaV8e6yB+tD6oP1gkVFW69UtRYcKn2EiOvwrvoknGtkB80UBjV5ngpalfp8GIELWR1i/t8KAxaG8f72KyJwAEQIXio9UEnCMtbO1DEDjR8yAyvtV3Ae7bBZIvonaa5i2ufuQYCSQmt4nLCsi5e5aoWB/NJEdYHSeDUEMDIAQJNKNOJrXiHMQv8wcSI/A6+DC4dch0LFPZgrSkCBk9fFTEX18gFXvxf4WzAAdCgrVXf4eTv6gRx/aDwlBJ58j4o47MbGaS40+XJlrTR4uAEwAgcjRRvXbQicNQhLnyHyiLQ4+1yVp583MQqse9ldn5N9pFxQoc517eCBnJLlBR9g576zgYFqnwZulcT1zO/o9aOhUbIwiKBQDEkjWk3Dr7I4TSm4zhzdKgWiOu6AoD4L1GlzIvXyoUA4tJdGhUuChorRU3rreYZbwy1RlEdyy8kYIDk+LIyCKns2KynzeHFXA49B1BshrOiF2tN3ZwYl+8eP1TAuDXUIWOYKNmN+RlcWoR/WVZ19QvbvMg7PgFPsw/r6qpqFHCoGCkve1IPvnqbJFpmQ8MIHA0V57mIReCoQ3x8UTHBXDbhVH0Hn8f3T6fk1eS8+jy24fOgwzzHWdRc/A9+D7ccR1EDqqzCtKIEffeK0oLi7tXE1UWCnHqixfSrEUOeFmebUBh4dnWcw9eh4AGrg91Xod9DmaNm0Xq4+JCKvABE9J58swDo+kcwhe9uLdXoMdWDhxbw+dqGq2FXo2PdbZpOIEyAgxaGG1XGZdBbAQr9AI2JsSF5hK6p3337ldwdb5ZefA90ohsLk8S57qFyy+a+GODIo4CJLh+qXL2MmarRCBx5AV3NWASOOv7u5vOAr1zWOFx3OSMvPi7LD88/YOtUzLCGQ+QE43nV8tD9tjG8s4xCU82TtOsL6AtZrnBSUCPuFcbVRQoz67qztmohhDIsTuDgiZFWbtIcHecAEDiR2W2l3VdwLNtIrZByCBhhXAkbK+Tfx53ctFH/VJ4Hf+cZSvK0Giv5+prhGXDAgSyAg5u8yBDf7bAyUlj4EbuoYxn0NgWMexNj8uj2DawaPCITw5gFjvkZ7ISEsYEuLEeeTZT9u2qjF3fh4/BsqMXBv2dVli3XQl84uY0WR1XxfaGZETjq+MPyhSV4KIDgxeFw3XeLGfnry2l5iWXZ5zDaanvnSFfWVZ8HneZ2eIWW6DWN+Dt9CZMcq1E2dO8rri5StszFJXrgCIaxqvXBoau+6yp7cuitj3zXlfETAobrosIzQwMnIGEi8GGhcvYPbGWMqIa+995XYKAf0YFSZHs68E0Fh78grI50KiNtQAVucjUBJ/ijOxNYoHBcHlyHP6O/WedntNCZgabZrFkbbFLZKMsLcy/moAR4Xh5weJnr44Rxz4hPz/+dispofuMusauqcbI8L6UIHHVIkK8FTwMQWh6r2E51bhMLJE7vyl/h85iaW5Xt/YwcnWBMDud6UMXwzbLhuoyyzfzbBqKawtRTD/dq4uoip5ZvZAH9NmW7vm33JQ9pqBXC0Uj0exzIySFGXQFAkpncnt3kuVUGvISg4eMqF99AIJZEXEGaPZsm8UK0SAriVh32UPicDU6tD8ZzWNGWo6bSWKywBTO9RzHr+9HdCezQdw2WxnW5AX/GAGbzdaPbivMz3B/Lt6QNFSYxJ2jSF7yYgFLhGYEjOscv5hdWO9UIHLXLSl/a8MVFp4wQPPaQM72akx9eLMirj4uwPLZlbftYDuBIR08ONBd9HgQR7SvxmoffwHbkY5ZSKWT7qj5cpFKxC0nXJvVTHvwydAmeHyplzrbGcF2Ah464ApBotxaH+/IsOswHkQAINDDTSFYlEooF8QIFHeYldJUhBxKIcuY7mWzyixZy3wyuCCwY1slZ4GMj/XLvxpj86v5trDU1hhVu26UfoEHAsLWmHEVjKGko+NsV8ZUv0vAYeeEZgSMCR8N/XHUSjMBRp8DspeULTLVEXECPle4muLiBEVfzO/KUmx7NrsnS6o7sYoFEwcq6OSwSmKPDnO1RA3otGMIHs0472K6qDxc5rXjD8xU3PAuOuGdEgcSBB2eXs+vKAES7swAqnAeSBxsj4sCCggmBhPJxsrJyCH1CAiB677hIZII0Whi0hhQ40GZa5Y1yGM7JTaww0lZu3xiW//Sbx+oEv44Z4cPYQrcLiMF9SrjOFE+OnuJRySA0PgrYcFUu5EpJ87TfYENGVUFOpFn+CHPCOEont9HHUV52X3ZqBI46/758X8LTXmKCCK2Pmc2sPP2wAZ/HirzFPhZL2LB7/wg7N2Q5y9z5PLTbRLVOvbBh7ysaIhOf6FDwKNs++WIGlfYJuqzg78BiiZyBbaOuFDzIt4FICRgYkCBDZZRvyIssABjSyeeTrAIQgIPpyaq2lDzG2bZjR6UBbMV3DUufP74zJv/zd4/l7kSf9GDZkA4ARhqkOOjKk3GRkhuXbKBRITtft4ExssbTfnMROOIEwAb+vOoiFYGjLnG5F5dVvH4pCPkib2JRwCXMMH+/eCJP3swCPJaxNDuc5rsYgaTrW0Exsusq7aaQ1fu16trF1Riok/9GFE90dcmnuDFFy4Mjr9zyJPR7uCG7R16Zk3+v/lglEII50NXiMO3s812eewIdHYWojZhSwAjLQUC0dIBYAIOsdPd0yc3rw5jQNyhfc8dDrG57c6QXw2/dqCmOnOKoKeOFbCXPGfCn7SAvPMLsML3RceUJRCNwxK6qRv+26qUXgaNeiaE8X2AexSG7rTi7nPt6EDxeTe/B57GEuR6LmOuxi1nmWQzXRSb2607pbnoEj/qOpGPBGq+vekNKJwrVtKxRTTLIHE7cu24rP9dD53u4mebafaVWhyun5T1QhOBB0vkuLMaZwFQerOtDr9EJKAQKeko4R4NdT91Yb2pidEgec4c+WBr3J7B0yAAc4LA0Wuh2gibWrinQJX0lSeqMJG3l42ESW+dRLs3lNO5KdnhG4IjA0bhf1dkoReA4m9zyysXXtxeaVgd9HgSPdSxy9QHDdX95MyOvsZf5DPYy397FqB5uipTGplDhcN2qfICg10wFurlqnYvLdDyUU5WUAg+EGmXINaFgbXHhQJ1x7uZ8JF1XHPnEMl6iStXQATcGIoXgEbSj7bEgy7Jpzs3IwD+B7imMnBrGXuAPb43LN3duyLcAjhtj2KgKs8A74c/AoCo3xBbk2EXFvUhISKmTVniQfnhfIV5LmQpVT00mXzwjcETgOPXHcsEFInCcQ8CqYFDfQr7QdjINI3VlEY6Pl1N7OlGQ1oeurAtUOc6gcyTFaWWFh9HKp9ocBZfyWQAHVWgpo55ly7DQKVwFD51tzomCftQVV9kFoDDP+T6sjlO/BaABVHDggTJeOytQsFXNY4RrFWNxQgAA15oa7e+We2PYC/zONXl8YxST+rqwNS73Ek9IsJJBhdbXBE20RvRGk31KUqRSpNZylepXSqd0eEbgiMBR6TdyWekROM4paVN1YWhxdl1t42YF3VYfdZb5kloe77Et7eYO+qzSsDx07A77S9wYHqsbsqWKyGujTw8ctajFck8BpQfrgpaGW+MK61xhocQchuzSGsEFStHXs4c0sCgJFSv04nwdUKWsg+G2LbAyOtubsdbUmPzDrx/Lt7A2bvZj6C1mgPeya4pmBh9BT6pgp4w14i/KhRZzZesdwkDSF3GQL54ROCJwXMTvqx6aETjqkVaFsqpokFcc0p3BhRE52moN3VaTcJi/RJfVL2+mZWZpW30ex0QXLI6Yq+Tz8FrIvq5Np6JWvkG94eWiVFbSgI+c1g4e2IqYUHxN+jZ0eRLttuKoKwAHLQ9dZddbHuFDgk7e8vAT+RIgoTVG53dGmuGkaEP300BPu1zHLPCv794AcHwt9661SD8MO6411UR8sSdQ/gBVPix4QuOdD6H/k4SCYuVuai9Zrnb1NPLOMwJHBI7qv5SLz43A0SAZm0IycvaSExd40mnOPT0+rmC47rt5dF0tyntsCrWxBeUJf0cu8Xk4ZZVo3kQTJRFronyojNRYtjyFGlMrtQEGirOUJ09Wu6WgsGFl2CKJOlmQjnN2W3EkFIADA3qdlgQt10Xlu6p0FjitM2T4CX1N6ROsNdWie2d8dXtcfvcNNvjBcujDvWnptQl9rEGNyyPkT/0aTAyYNJQOy7EIDpdUrw3i6p73Sg55RuCIwHHe39J560fgOK8Eq9S3F91edgLIMsyP9wuHsDyW5OnbWZla2pLNPQDLCed54IRmcsuyk3AZzZW0VyWvZJhsUuniI5XYohCCQ/0a3NOciyPy5P4enO+RgIf5PVylBDwUOLh4JN3fJ1jRNiN93c2wMrCtK4bZ/uredfnu0YTcGMAOfahKXFCW7I8R8KDR4ky9x0XD4sKWHIEjj7Ow+hJZFf2RS8V3rpS4VtW5xNfQyhE4GirO6sQIHHB3yCYsj7n1rLzGPuZcXffFhwVsCnUoJ7q2Fbtj/DwP7/dwVDnaB5WTdzN5W0sb/RsADjLNORi6TSu6qhIAAYiow5wA4q2T4KHV+uAEyjTWQW/CjL2hgTZ5iCG2j+9g5NTda3JnrFtGMTejF76MJtR3qt6NlEpEVyIxy/GhacJiESPbZUXgyP8OI3CU/JyuQEIEjkv8I9PnocN1EW6dADzWcvJmZkN9Hh/m1mV160D2D/GlDad5DsuUcE8PHqbWEtzQBGg1hmWUW2mikrmcSzE/1mryEJbgQ4IDLQ9bnp0gYqdZH5xMSL8Hh9qm4c8ArnZhGfShgW7M/MaoqQc3sRf4KLZ27ZEhOMG51lQriqcrAIexWMhScKcFrFQhv0w1XCnMufg7csgzdlXFrqqL/7VVbyECR3X5NDSXLzzBQ53m0AA7mPCxjGFX0yuH8np6UX559VEXSDzMtkom1Q4Fwc4WKgu1NZzWQD31HZe1KsorOyVymZdiNqjtKh3uYXTElQKILozo9vhg9xW7sdQqAbjkuNZUE9aa6kjLLUzi++2vsEPfvQm5Mz4g433Y1hX+jDZgLRd24YQ+/Lh9q35uRiUemF7Mc5WyETggHBMtInl5JIlVpHf2rNhVdXbZNbpmBI5GS/QUeva1yFdMu66wRMnGvsjkwq78COB4ObOObqwj2T7kVrRYHBEF8b2dvKj8iM4DRx3a7hS+Pn02HxQAqaOraIHYsF0PHnjwZjjBe9ENdXOkUx7fHcWoqQfyAKvaDvekdRl0SCzxaahkKGQgQlmMPccD5xXlOYicoSofh6f9huJaVXGtqjP8jBpSJQJHQ8R4FiI5WB4pHaq7D/BY30PXFVbXfYINof74yweZWd7HaKs26lIABbtqXBsMtQdG76kevyDwwMPpREDO6dDRVW7exwn2Nm+CT6Onp1XuTfTKP3xzU765NeD2zkDXVCcWmWoDDKfRlZXMi1G5OPkkojrLn6lMnQgcEIr/PTKSl0eSWEZq50+KFsf5ZdgoChE4GiXJmunw5XIvGBfG4FcjZ5jvQ2lu4OanDxn5r//+VN5NbyhwaGkCh9FHREFEP6MNNCy0Qn+roX84j4x8Ko6yYndVW3ubDA/3wAE+LP/L727I1xMYagvAQO+Udui1oI4DDg7bteG6ebkk8qNo8slnElReUZ6p+pkr8Rl4Rosj+jjO/CNqUMUIHA0SZO1k7LXnTIXmxFm+h2TuY/7D+4z8X//vj5jjsS65pg6n5Lwe1G4X1YDUfKb9ECZptXPx2ZZ0qOjYI4AQNOEc7+zukmvj/Rg9NST/6Zs+eTCWlj4PHPRptKAe9lxEzGTj5GJSsudVUfGmOMMK1BBG4ICQEkFGi6OGn8wXVyQCx6X+Sfm28XTgQVV3CKtjHyOsVrewIOLSvvzwbkn+46d3Mrt0gDUQOzCwCsNzoSDDPTzYN8B/eGU991SSFr/UB7rYxhQ4+JQ5ae/skOEhjKIa79BuqodjnXJjEODRgW4qPDpX/eIoKsqlABUg7mLJqM4rTqzjSSJwQFgqRAotAkcdP50vpmgEjkv8U7rRUe6NYzwL4NhFt/zaTlbefFiR3//1hTz5gIUQ0We1d4Sl11s63XyFFuwcCADh3IUUNyliV4x1xyj/0IJfJHBAVmqBoBsKz92GMbZ9HRkZ722SRzf65e+/vSe3r7VLD8bfAj8gTQcSaqChqmKDhcHf2f0FfOEgvdZoBA5IKhFiBI5afzdfUrkIHJf416SdYcNx6dvY43DcjROZnNuUJ69n5E8/vJCPmM9xnINTPAXQaGnHduWY6NbSjDiBAzOmcaaxhzYiOKkaCRp8CFWTjHxBBx6MwOEtD8F+4S2pI+lsOcHy6H3y3eO7OqpqfKBZhjDaqhsA0g7UYNdVM6oRQEzBFUtHRcb84gymnXagzlmqnUb2tHzyzNPZq25OEJZAk32kvl3Pyb/+4a28w6TSk6ZunD34lsB8IJUCfiv4sMhbqEFLkG8iiyDZRcOcMI7c5DYCR4nYrkDC/w8AAP//9yJY4AAAQABJREFU7b33kyRJsh7mVa21FqNnR+7u7fHd4UAj8Q40/sJ7+EtJMxrNyB8IgGYgHkAS797h5KrZ0aJnpqe11rKK3+cRnhmVXdVV1VM1Pb0dOZMd2iPCs9K/9PAQuSIuiVfdHDCm5eooWUDeQ9wHuDcPizK3siPP3y7JXx9NyfM3SzK3sCmb2wdyXGiRYq5D8q1tuFukpa1F8rxbWuG2SUtru+Ra2kRyqF0bUk8r6mjw55BVf57sJO7CkeTBwZbcsXR3tshQX4dcH+uXB7cm5e71Ubk1mZeRzpx0gB3tKNHqi7EblThUiX0az4KZS+kExAJvJmfjg9Yd/o7o529pF55dhF6uFuU//vNLeTW9Ikctvbj79DdUBMdEWlAgh1xlWgv+Vuqr/3GhPK9MriQIqgnZJNIVafDfXOFAWo82pON4U+5fH5bf/fau3B/NSxfqwWOXNiFnTrtcQ8O/p+WOaZU5kIvAUZk5lVKyr0fy3lQq4OOP4e6g8PpBUT6srMuzqTn56eWC/PB0Rubmd+XgsEWOjopS0N9/HkBBsIDbRn9ecq2tAJEOae3sAqBQNFIo/Nwv4zZcgkixAPHnRGCueCCDfa3yxbURuX9jVL66PS43R3My1p2T/tacAoc+GxQ77RlpDUEGDVdiK/IFWTVXNlyp6MfGs128I3BE4PjY39LHlo/AcQYOZgXLaYLDXna6/EJcAWi8g2bx05t38qfvn8urtyuyulGUvf12aBptkIsFlY8UT/ySy+XhAh9yLXTz0tLeKe3dvepqQtL+01qRZLqgnoDj+HLO6Scu3OKhtOUPpbu9IBMj3fLg5rh8dWtcfvFFj1zpyUk7+YceE17zIEG/csn7Q2aAbHIFtSVxiQf5gqwanQ0neRvsYbt4R+CIwNHgn1bd5CJw1MmyckKlRHCEGZBwBPq896BubOwV5f3ytjx+80F+fPFWHj15I4uLWxAEXe4uYviJl9GAgMzlEAAdJytzqnG0dXUDODoAJq2IJ6pAG1GUKWkJCGXDSv2C/TFmZPjCvhWPJVfYgyTdlZ6uVrkyPqBDVt/cuya3JzpkGODRh3GrDhRtQ/ZWuOQIQYR39jLwKJOUZgUB0she5eKyeT42zHbxjsARgeNjf0sfWz4CR40crCRMSgRGJhMFEe0Z+4hf3CrK65kVefz6g3z7+LVMzSzLxuaB7EMDKWJEvogR2mIRIKA0QqqIQNCAI5fn8BVsH23t0grwUDsIAQTxmkmL+vJ0TtCrscOnZjttXPzUgvUnavvTYr5n2tccRSi0jlzxSFpaitIJFWOgp00mhnvki+tj8sv71+TmRF6GAB49IEHwAJf0zqNoQsuTD1mVqbakAdlyaWJ138eUZZt4R+CIwFH9l9bcHBE4auBvRSGCsokgCDN5P4Fj47goS9tFeTO3Lj9Ay/jp1Yw8fz0rK+v7KNwBQaADKUqp6D95k+kKpEONg05SETWMHMAD9g4Ah94AEYKJYCiLQ1vIoGWSQvYp7WI/+q/CRtjfj6ZYHwHtnf6hrQMNAY8URAownOePpQtAMTkxJL94cFMeXBuS6yMtMtELUIHdg4Zzah40nHvWllRurKrYPZTXqktK1Rc4a3m2iXcEjggc9f3iGp87AkcNPK0oRFBWhUAmgwUPkTi7WZQn75bkh1fv5DsMTb2fWZUtWMgPjqBh5PzQFMWBL6SO+YOAE5AmcuBieMrNsoLm0dGJISyCRznNIyhTQ19ryXK+wOGYo70Kuua8NJxD+8gdSWdnqwz1t0Pj6IXdY0zuXxuQW+NdMgjwoO2DUwugpJx4fkod6a6WMtxAmqurTFqNUWctzzbxjsARgaPGn1rTskXgqJG1oSApefHDBNA6RiJtGruYHbUCgHg1tyl/e/oamsZ7eTU1I+trmDyZxwTCXCdytXoBBSIBHfUmYUuDm6gdvgUePEzrIHjkMBOLRnTeKuLcGJfz46+7SnpgkTW7nwNwsLEJO5R5tAdBpMLuocNXEK+tuUMZGmjHsNWo3Ls5Jg9uTKr2MQSjRx8mG1D74NAVNY/Q5lFR68iwLROsmX9nLcefBO8IHBE4av6xNSljBI6zMpZvcHghTIFzgJs2jfmNAmZOLciPAAwawqfnV2R750gOYdPI5WjT0G9eT4GFU2LqTcLeY+NXqbREAQhL2DbU7sGpuhy60rUf1DwwIEPwMOCA6wSWiS1z03pr9X0uwBEyLWULtA6CB8QrtY+2Fkw96MzL2Eif3LsxgaGrUbl/tVeuDcBwDqMHtQ8OXVH7sGegHEd88gjIGB8ux7VycSxS6ao3v9GxJkbgiMBhv4nzciNw1Mv5EmniC/u4AuT0Ghb2LcAQ/uLDmvz1ySvMoJqWdx8WdWEflyipAZyiqshvXWoFdnkicJIq1JOELGPGhRgiKABAWrg4kENWWOORB5DorCvVPDyAeOnqIOSs4ovtCxuZaU7TgyE/Qr/KdtRucXQhYmH3EBjPu7o7ZAKLBb+Y7Jevro/IvfE+uT6M4SzMvNJZV8hNzYNcUY3DsyehFrAr8CK31avemv5ky9dUCJnYFt8rdeMCwLgAsNbfTqPzReCol6MmSXw5e5kpbPgiv18ryF+fTsv3L9/JE0y7nVtal13MxT3CanD9tkVGBx4Q5vBTiGRIIsLFVBbQSGcWlUBeDHnwoJFcwQMAQiCh3cNpHgQpnxeurYVAZN1X5XbVTeoMBUJuhf5ypJzxnFOaW1rzqn0MdBVlcqBNHl4blt98dUduT7ZB8xDpxqQCs3lwfkGqwfjngzirzbhoNWbDFl/JrTe/0WH9vKPGETUO+02clxuBo17Om/SAa2BBI/gWxqcWsZDv+fSS/PnRc3kKe8bMAoantveRjzOeaAgHeHDKLTQNzqBysFHaAIcZJO6EhP1NpFaS3RqCyhMvKHK6LoerABqtqn20ec0Ddas0RH7vOvAgwfpE2WcLHMqHhBnoFoEDDhUuMKl4vA+7x4F0txXlxuSg/ArAcf/6uFwZzMkIVpv3AGM7YPvg0BVv5YpnjVEtx6r6uOfpgn69F9vAOwJHBI56fzuNzh+Bo16OmgSBqwv7IDW4X9DUfEH+/OMLrNN4J2/nlmV5bUd294/cFiIEC0ovZ4rF208/xQ1uo6ftgHDTMP4E8acJ6tKtxpwmocZxTtfFkJXTPrjnFQCEbQiN5tRSEklYu/g7rT3ajab+CRgTMol1Gu+0fvRH//v89HPBoO51dSTdXW0yPtwrX1wZkq+/uCp3JrplvA9TdjFnoRN8aUcxggdpKAW4yRX6k8jaPWctznbwjsARgaP2X1tzckbgqJev/u3FlkmyW8AaDSxcnl4vyOO38/Jfv38sb97Pqj1jH7YODJAoELi9pygueDvQUIENWiSnl3mAHM7rI+CUhE/NbyIJ1AEQyXRd7G/lNkz003XVaI52qObBVlnbjPjp7ucNHEHbjR2I0h5qGA8OAML1km1AhvGhTnmIbUruXx2S27CBXIHRfKTL73XFcgENEtFnEcYF1dXqPWtx1s07AkcEjlp/a83KF4GjDs7ai0v3AMDANXzPZ3fkD9A0fpqalQ+La7KxtSuHmNRTgKWci/tUI0ABW9znhLRpHCDENPcnbUkCHj7KqSFJeja/0zrYKl4mlgLwgLZBzcMZzjls5qbsOi3I5a/H5pGt39X7qf5aP1lf6K9WP/iRsgZ+LKLkeo+2YxnsaZHro71Y64EZV9gw8d7VLpnEgkGd94YyLGaGc63V6FSrskL6WYuzt7wjcETgqPDT+mTRETjqYDVfWN1CBJ4VTLd9u7ArP76ehqbxVKZml2QXU22PsFKcQ1KqbSSfqKwE4kLlnIohF2a0xkEUq8sIXgj4sHNKEoNky5ct76iwzkTzoNG8nbOt/LCVLhYkgJnmQcFam0i7mMBhPAFX9BGgv5htlccTbQWADPS1y3WsNv/i6gjAY0xujnXIGIaudK8r5A8nT6eUzuarjcsnafNXwDsCRwSOk7+OTxsTgaMOftOmsY23dhWG8Bfv9+QP3z2Wx1inMQNNY3PnUI5hu1DNQu0Z1Di8iKAVPbngVxywNCZkBb8Bgs/qCiBfSMfKWF4LJxWpR8EA7XEAQqO53+MKrq4BYVv1Bm1IVFdDWE8pPYYuOnB4xqCvbq1HTo4Fcwn0jI+B7jYZ7e+UO9jr6tdfYrPE8bxuVQIFJDWYg8DpHNIaKv45a1n+bHhH4IjAUfHH9YkSInDUwWhOt53DavDns3vy3YsZ+SM0jXcf5rAlegHTbSGAuehORQpFQ0Y88I23uBN+L4yZRdMCD8JJVErBxSVDWj4H1RbzkkRwOQDhWg8MWekWJbB7UOswzUPBDm3W/5m2WzChndYTVPGJvL4RWlvor7d666sTw5yym8cBUa3Y66oDs66uTg7Lr7++K19ew3oPaB4TsHv08YwPPGKyw+56a2V+Y2e9Zdlb3lWBI+8OcirkuULFaZVuCniZmpPfULnWhPwN/b4hWoQLWq1sJo9FN8iNBzk1iJENIBOBI2QifvclP328EPaS0uUw1TPMnvoPf/hBvns2LbNLOLEPNo0j7nLBGVM53Holb1KGIBJD7aOkMp+1dMzK03PahFI10klbTdNgRJag6gaeBh1nMOcK8zwM5s7m4Qzm1D78GA4cq4Rl4LegJ186k4t5PvWV6eeZqmenQIfd05tDdU4D4SmD3dA8JrDa/M5EHxYMDsv9sT65NoI1HwAQPmXeFMm8jD3mutjKf2vNl6XAXvO23+SJBYC/f6EnAB7i9L9jnAJY0G1tnK3NtbZMzRE4smyO4Ro4EIGDTArkEGWvBvGOFXATLHiWxjrm3M6vH8GmMSv/7x9/kFfvFmUfCzho0ygQDAga+tVOgv4FDegyVq8kzucpic8KeiRq/qSQRVgpn0zwCPMwGWH+L4mHcOQ6D2gZHLIyYzlPGnTAYed6eNdLVQMSrcFXU0qX9WX6w6iGX75ypRv6663I2upoKE7ij9vrCgOS3GVXt2kXGRvskrs8YfDqMKbujsiVYRxZi9XmwI9k6Mp906ccMOrlWnVaWrn8YRxby7sccLzg0bEeOMKjYwkY+lFDmKvAsgrRvjZrQSZXEowah3HoMrkROJIXwL0nDNp9jHdtk9uic3jq/ab84duf5NnrGVlY2Zat3QIAowU381N0UCTYDW+lK6wvmyeTZjBiwsbCJcX4xehvE/Ca7uNKpQUoAdyYj0NUurKcxnIMsenaD2odmKprtg93SBQFKvrnpKsjTQ7xv7aXf6yFJS1rUkAr9bRDfy3VZduZlnfdY5haB25oHxy66oRVfLCnHWd89MntK9A89IharPnADolc0slV5hygDDUQtiRbUzbMPPVebJ1roXNDjePFCs8cdxpHeeDgjgX1tiLlj6sxaHGSFIEj4Mql8V5e4Eh++P5Z+zAdgsEhAAPnLMkHbIv+amFdvn81LX/69rHMzS5DE/GbFOacTSMlVeXFVElbJU/y0wNVI6xFGC4LHXrcrOY10nQ1O75NlQb+qGSkQOMaariQeGrjAGiYxqGaSGL3gBZCwCCQKHAYeHjabKeCEz12WQMs3GhXOwOi5jaCvqeFpmvrOe8Wl568yPUetHtA++jp6cCCwR65e7VfvvliQu6Md+tq817skshddhVE0C7HAXI5vUJ/Glu/jy3jndU4dhD7shpwADSsdbXX7HmjBQJ/4E2fRUlk7VXUkTNfxMr/o01pP96UBxg+/N1v415VdbCvoVkjcGTYyZlT3Ft1DRsVvsOxro+wsO9Pj9/IS5zYt7q+K/v7SNVzNCgq+J2Zvjoa0Ff7RKRLqvtv+DLCnwEOag6qbbgVho66SSnNzvIpjVKNBEnMCxoEhnwLzjPnjCvub8VNEjF8xWEODsEVcasWQo3Ei0TTchQLEesuq9zCzXCtP+Y2qA40PWm9Ltqg8E+1j1YeAgWj+RCOErwy2C4Prw/J3z24JTcmOqUX25R0orBpHaQDzqX0Mv6zttie5vkDR5b32fBZe3h6uVxhX9oAGu0Aj/vg/z/89h5sT3kcvMzV/gRvcua0yz3h8O9puWNaZQ5cTuCo8DvnWRrbwIU12DOmF/exfci0/IDNCn98PiVLGJ4qtnCWCod1CBrUNigeSi9HukIFzHpKUiklC1kB75qk9hqEE+CmWaCMeytcYdUIrDyStAzBxicr4BAmi/iqxtBLR7t0dHdLd28vFI08ZothyxQwxe21xTPOuW2JL0vH0zd6LoV/w0aksY3xWX/MbQxVpYJm87vc/OSLniyoAEL/gbTluddVAQdEYa8rzLriVu2TQ3kZxl5X3Cgx2aYdROzXYdxIaLsa/F9LLYksG2DLeFcFDj+rqohZVckJk5wqXvdzCXkc+PnAkyA8SReSyLLt/9hIzqpqO9pQjeM+NI4IHB/L0bOXv3zAUea3zSjeR3gB5nHM64uZHXn0Zka+e/pK3k4vyNomNA0s7pO8WwaW4xAVjeEVxozLVBE8IaSeniHIS69lNrc0mYNXRTW0ID15gX0eL9jTEsyAW0lBjAE4ikWMx+GF5DTTru5OGRwekomrV1TozS8sY33KsZud09KFLqP/qqE4ikrmk4OH8cHctHcN8UHbSNnIOtzNoSuu98jhjHMOmfRgr6tJbtOOBYNffTEJw3mfTGKzxD4PHqaPGi2ChvlPtrNySpjXWlMROH7/vOysKkJYaocLKVbzhzwO/BE4qjHuZ58egQOPmC8itxBZwb5TLxd25G+wZ3D21AuAx9rqBl46rgT3YIGXUMf8KVorAMdpvxp9/fji1XxZXnOzBTGri8CBFp64tB4X76qEgNI2U1BBmGAMn2d0d2CQfqCvQ0ZHB2ViYkyuXpmU46MDnFg4LXPLO7K1hwmqBWhb0Li80pLRPEAWFZR2qzZheKLNVSOsn+ZWLVBnBkfXaVZBHegOe1QsHGGrqwOafqQTfJsY7pL7OF2QX8B3sN/VlcG84MRaHb5ydg9XzrSNylypnGIdYGt4VweOXkzH7QPg2zoO/n6p/1Svw+pybtD/8PfFB50kwZOQTSJLyTQoFDWOBjGyAWQuPXBweIqDNUvYEv3ZuwX5DoDx1+fvZGpuXba2D3FiH74y9TQ9Dk1hrF/fEr4puM/wnmiRUglb5TFaJeZms9cAHCga1uuqR0+w5UYvt9rAV/O9W5Py8N4tuYLtxnsx3XQbNp6nL6flOc5Ln5pZl3VoYkVMCgAzcKPvlJzkAVmR0Ic36RsTmnEZH8xtYh2+e1qDQxJ0EFpawQ3vtXDWVduR9Hfn5dp4r3x5exLG8xFsV9KjO+32wC5i4OG45bQOxxm2P+RR6C/fJ5bgnQUOHEYsOqsqahzlGZfEOh6Hf5Ok6KmLA5caOPj6b2P21OquyJvZLfkWQ1M/Qtt4AYP46sY+XlCnZfBwpJyt00i0DPz8ziC7tEgiXGt5VlaJudkypwNHKshRnlv6cqYQetbW3qLDLdcwVv/1/Rvy1Z1rcv+LMRkZdgvctqF9TU3vyZO3i/Lo1axML3AK8rEccvYAbTzgiWDIzslT/z2Nfrmusa3VBWG2J7WFjQ/m1laqvlwBbXQj7ElReYh0dY8Avnv4nDhQje0WNknk0BXvmxjGmsDQVT+0Es66coOcjlY6bMV6Quqh/2SLmZt3ZeDgdNxl0QWAeWgc4crxqHEkvHZcPp3XJ7kfY0IOXFrgoIDjAUyzmG775P0ahqY+wKbxWt5js8ItnA1+AIOHDk/hheM0Vf3S5svHN9eu0G9xVVwt8smBg7XixjALd4Rtx/DUyFCv3L05KV/euSrf3LshNycHZAAG3nZYd/lKHWH4awOAOrWIRY8vZ+XJ1IK8fr8o65s4mKoV81i8zSOcqdV80CBzjenmMq5Zl68DDDEx44AY8R6EBTYPam5tOL+8p6tVRnCgx1WAxl1slPj13Qm5MZrXrUqgxCXaB2k58CB9o2x9yIZdvPWWblngWE4XAB5i1fgRhqpoHE/tG15DtGpqcq1WZg78fNBJEJ6kyUlkTdTrzRSHqurlWPPyXzrgMJl96LdFfwabxh+fTMn3WNj35v28rK9j9lSxFcMybmiKLx5tGjr1lW+IETjjO6LFjEZNz9UqMjdbKKtxQPBrM5Ff63HldN0Gjp7qwZLnyeFuuYPFbF/CqPvg5gSE3Ch2gsV0XE+aShVLcYHZvJ6fvitPTfNYxDYr0EYOC/iG1llm2fYwnEiScokfGWd8MPcjyVUt7uvRLnm/8VVdanGctuuM55iYJoOwF12fxAFRd6HFXR2QG5h1Nc5ZV9zrCvWlw1ahwTzkWeh3z8KayRYYcFD54yFiXMfxQoHjZaJxcBFgMY9TqbRlrDECh/0uHXdLeQwGxasODlwq4OBLZ/cGNI038xvy7Zs5+f2jl/Jydk22ORRzyNfSbYtuL5v7BvcvMAmQirrwnvb7szws4i8M5qRlLbKiGxII/WGBEDgcaLACNVZjLJ4CrQUzfXjmdkdrUW5eGZS///WXOPUO00jxdTwKG8dgVx7HprLfHLyDgAHy0JiKgRhdOb8CzWN6uYDZZmvyFDaPJ+DZyvoBwBXTPYEyDgdRjosFyRDlibkgWanpYTdq9hsxc2sueMaMvh7tk/e7DmfoAQR0GPAQU5sL0ou9rsZwSNS9q4Py6wfX5B5mXXGb9i4+C5QM13w40CE50teKApfxKQuZg0+Kl60cLw8cpnG4Z+l+yyxl9Omvdvn+arbAz/4nQXgSkklkNcJnSo8ax5nY1pRClw44KBr5pTa/VJDvnr+VP8MQ/tenb2UWhg6d967HutosFH6l4UrsGvSr6NdofV/0zykvTCZJg+kfpVPbnwyhpJABByPsC5bAAfFyTCGGGT7dAIfebuy71K1axr/6zddy71qnYCcN6YQgowG3laDBMmq0cOBB4OBeXdhFHodWFWV2rSDPpmEL4uSB2VVZ3zqUPWzkVaCGRircuoTNUBrwaQDhSk1n3rovI2Zu3QTqLODrCZ+zRpWpH8DBqc3c64qrzTuxYHASB0T94h40jxtjcmuiX8ZwwmAfhgNtrysDELfKwmga49jU1M9Ud7vfIAbJTtE4UuAgaLhfRkorpFuZIdYe5gj8ETgqs+ySpFwq4OCXGr/SKAzfTB/I//fnH+VvL97J67k1WdvBbBl+QeNl1D199EsaLxrel+SVoQdR+vr5P7o1BaIrXknhNEdqsE7jTveVIZIUyAIH8hIAoG1w2mgfxt1vTAzLgxuT8s39W7BrYLrtGIAEg+4YOXFfvsifxzg9v02paXDfKtU6MERHkOXNZSxbRwAPzD57hW3ln76bk59evAcAb+mwVaEI3nFFfdJUMkqZ5BkGIkla0vgzeIyIuWcgUVcRX492Bf4T1QYR4CO1Dmpu5GVLvoC9roqYddUqV8c5dHVd7l0fUbvHaA9WPIMmQdtpIOR8QMv9yjItdU8Iv1TNiRUlETjiyvHMb+TTBC8VcPCVxmmv+gX9ZGpf/v1/+md8Pb+Vpa0j2TuClsE9qAgYfGkpI/ge+3dZ/Qi6j2k/eIVsKk/0DxItM73hFcoDxDtarCDMBH9CJxNfJVjQFeCOGFc6UwC1tbVId0eLXMMeGV/BjvHLW1dgBL8uV3AwUSe+eDFyBSHnNRMCTdBBBxwePFA3KRvorsNovgC7x8uZbfn2yVt5+WFNlrBr8M4+dJYCNA9dU8IGn2AOIxtwGdPMbQDJU0n4evTZwF+2WovUz46UlwQQTEgQLLLs7++R2zfHscfSELYrGZZbI+0yCvDuwbPgrCsCSF4BJ/wRhH7XSEJGChwtNQIHf9N4nnqFNEO/Ty5xrF+MDPz8rSRBeBIySWQJlUYF4lBVozj58XQuJXDs4ff9w8sd+V//z/9bvn86JTuFNnxVw5CIleFOfuJNUI3DGJy8GelHtEUBSdTL/Y0qXZmkROPIxKcvYBlCqMSqTD0U/LipXejXLnd0BWhg+5DhoQFoF1fkqxvj8gsAxx0MmXCMvZsTopDulAEKtVQG2JYkJzvp8iRj6qhzEes63i4eYrruMgAEpyBiksHBEUQf0ZlCitOXk4b6ljtGlelcPVHGNHPrKXvWvJXqCuMDP70qXAm31D4KamPqxoZKk8Od8vDmKMBjUL7AmpmJoVYsGHRDV8YxiniK+nLX2YGDzLe7HOVqcUF7tG+WH/H+8aa/JEtrrBuBo7H8/BhqlxY4vnu+Jf/z//7vMAV3Sg7z3VJo6a4IHM7gm7wdym8bheFLoymlyekzCd43i0yAwyIquUozJeC0HWRO4m1IisNMEE6QONwKY2yoX25dxXTQL27iC3cCAqpTxvB12wECzJPQ0WEVqxxET3TK0pwc5JAVpzBjQprAXi6rGL96NVOQv/70BkfpLskirOjbOEL3qMDt5vENjZlp2nr+Ae1w6m5aV1pHbb6UH7Xl/5hcYV2hP6QZxns/HH3G1OTwXBwIwH+8D3sTFgtODMgtzLq6g3M+bmEdzY2xNt3rihv12Vw+uiXgQdJIrxU4kpXj/mGX2jhAqK4r7CMKEjjsiyMhlclTF/3aMkfgqI1PnyLXpQQOGnu/f7kl/8v/8X8pcBzku+QY4OE0Dn0703cDeZMvcf9EEvnKMLIn706NT8wBR5UXLUuU9VCrSVz4IfiLMMQWvRG8p7NNblwZlV9/dU++hLZxbWRAxvpbZQASKZkKSroJ7XJt8IlJHt8pZKUywf28FEAQ5rDfMuaDvlvAjCusuv8RRvP3WHG/ibiDI1jeYfNQGaMkUFCnNSPghVnaDs1Qxx/f7nLNr4NK1azKg7CS0B+WDuPhZ1CjzONdDFvp0bTQMPowM2FsoAubJI7Kv/j6ttyZxNnmGLPiTq9YEpLYPpJaPCOL+A0QjgggOG6q4lDV6cBBqtq5hHxlj3YkSEZYo8rEB7ma4Y3A0Qyuno3mpQQOGnofTe3K//Zv/6N8+2xKtg5b8BXt9mKyISr9WNSXlS8Ybgo7viv0Jrx2ESVAkqRV8uCV13dO/5TPlFaAdOTzYd1oL88wvh9heOW+STwvog1W7v6+LrmKvaa+xKK+f/kVzimYGMI0Wwgi2jNQ3oZBSkhbh8q34kQsW8xTEQkgFF50uY5gAwx9N3eA43TfYehqBUCyjW3psSUgtA6zeRTBJJwAgraDAP+rW9oakKv9ShGp9jJnyalNZM8rXZZmLvIF3pKA2pI4aQEAwq3YARTXcTTtr768obaPKwOwe/Ri3zCMmnKrdqd1GD1HlIDBSX7k/2nG8QQ4HLNRih35CH6jtLvQjhLel3TWMjXFjcDRFLaeieilAw6dVYXf+vPpffl3//mfMRV3SubW9mTnEELNL5jSF8xsHHxLM8iQff1KhmCqPgYCh71s5mYKhRWo3+XTo00BFDncFNtFTP3s7GyVUWgWX9y8Kr96eEceYsXyNa7PoJYB4aNDU8htJM3N1FhbEIXZEvfF64CDM9QIxNzLanr5UH56tyx/evRW3mILl90DHK2LmVhq79AdhVk7bg8a7oCo2qo+kcux5ER0YyN8Jcq0ShWG8d4fRmUbxGePmyzgKv6ejoKMDkBTxP5W9zB0xYWZX1zpxV5XWHeDPAr4KKLKJv7w56jgAbrnDxyndTTb8Y8PR+D4eB42isKlAg4KPA6z8H6/cCj/9LdH8uen+ErGMMsqZlYlWzToWg6+obj1wmiz91uMT3By0OdJ4ip63It26lBVWIH67eWkS0PrAW6sE4AJoQfrM8ZH+uUOptp+efsGZk3dlusjWMyHtRk65IESCTkUz+BfxVaWTfCE2Aq7HXx5AEEkNY9XswX5M2wez7DSfG55WzaxUeQx1nlAL0I5iEEW9hslJsBxloaRTtMvX0nJc8hWGjbE+8OobHaGPXhwuxJu0d6eP8Rq83a5AbvH3etjeJZXACQdMmyzrlDEzbqCh+BBEvhXHTgwXOi1PKdxIJj+Ihg4w4Xaq334nIFqLUUicNTCpU+T51IBB184G2ZZ3sBitnfzWAD4Xv7LD8+xid8m0vxKaL5sPPgmAA59W8NnYsIBQkWN52HaqX688iUvXiLaS9/pUFi5cTOUw9AUNtXL5w5kGMeY3r9zAwv6rstXt6/LjfFBNbD2YoBcx8jRPn6thu0+i3zWrgRNtG7TJRDzNgCh5rEEzeM99rd6DjD+ATaPaazO39zLyf5Rq18oSJMvCfobjeJ2KHWjmjUElJp3+Uq0/5UqDOPhD4OVGqZ5mBcfAgQPfMpwoWYX5PwEj6fFcOM9LBi8d61PrmC7kgEMNwJD9Hk68k7nqA04HG9TnrNR2qFKrasSz3a7VtTW2Srk6kiOwFEHs5qc9VIBB3lpwyy7mJM7hx1wv52al3/8y2N5+h6HFu3ixDscDeuWYvHrGACCy70n/mWzd0YT8IfvZV0vogFHSMjRIUm9kvfaXlK4ELB5bE7Y2V6Qob5W3YH17778AocIXYdhdUBGYc+wMXGaQXiHl5JM6IYpVfxlyhhpuryNpwQQtXlg9sH7+X0AB7Zl/7AqH5b3ZWVLcKIgtL0j5ILGoTxGYR3mA3DUbfOwRlRp/scl+0qUB5UqRHySlHiqV6tZWdbDL9fiYOixp6tFJrBJ4s3JYV0seG+yX26PIQ57XXV4ExFhg5XWAxz8laZaB5tX5sFWb7XWG4GjJkb9rDNdOuDg0+Rrx/UG2xh/f7qwK//040v59uUH3eRwE5sc6mwgPVfctA6+ZP5F0xeeVBCmH45L8elMqni5wvri21dbpphpBZpH12egoRAuLfgk7ezMYwVyv/zy4U35mmc/YHPCK4OdOhsHszwFWyS5q6RdPi5TT8UmZhPKlEtYgLzmp0vgMBsSZ1bNYYuSF7ObWDMzh2m7G7K0uiO7u5gFphtIciNJD8woR+CwFesIOqYacY3I/DktLZP17EFfifKgQoX2HLWSCnlOa4AVoQuNsgV2D55t3osV/6P9bfLwxrD899/cwWaJ7fqc2xzLqBPrkCuBWs/jWMLuuP/MTQ5XsK06DnJKtlVHRv1RReAofVPL/LBPe04xrYQDlxI4lAN44bgmYQabHT7CePwPPF/82RuZnlvRzQ6PjgEaKuAMPPiq+h+bvuzOn/78Ul8Jh0sCWhDClq7zlyQjzoCD3/GcZsvVxNyye6CvW66MDcp9HLj0qy9vYyx8RMax75HNvsH+hU7LMLJoTtKixFNaW82hMuWtGtIwP4GD2EWXNvEdrCKfXgF/X61iWHBR3nxYBnhsq9H8EKvMdZ0H8qnsJXC04KAs3SgRBFBniUxGVMlllZZENjrgK9H+BxUG3rT3rLskobQxxsNyWSyO2gf3usJWMTwkqgNnm9/Amo/ffHMXiwbHcLY51ntg1lUfJj5wzQd5TeDYQ70vCRy/B3B8AHAANI4BHu48DmTUuiNw2BvhHoX7W/qQYqhWDlxq4ODpf5uQcMs72CkXm/Z992xKfnrzQV69X8C5E9j9VVeSEzAIHh449CXnjy47QFXDD5FTY/Q/iSihzHPiYAJuVgUhUsSCMSzNwBkP3RjznpR/8c0DHFN6BauP22QQQxddmGdLewZtGTpLl5KEF+K0NTU0yRWo4W8FWmEvWD1vxqn2Ac8GVgsurBexKeK2PIJW9xLgMbMIo/kuesotXthjblOCTudw8LkBh5qXQuLZJp6Wls175rCvRPvu/SfqDSNCf1BpBd6V/AS0KP5Ay6TmQfsHbR/d0DJHB7swbXcIHw3jcp8zr65CG8GUKxbBDvdYT4NJCQYcqnEQOHiQE43jvnIAM3mdXqE/ja3uQ60JomujqxdpUI5o42gQIxtA5lIDB4WTLmYDI5fWj+U5zuP4HluGf4vN+94ubOgqaB4d60ADX8N+Gw2+N7nQcF7rgyBw4CqZVWXvr76MfLWxbQjG/Fux11QnBrXH+zvlLqZofoOZNr/GdNtrk23SBbSAvdSBBegpCbZJqQd/TkQEaWf1nkKTvQtvggin6+7hlMWFVQwLvl2Sxzg069n0GnYjPpQdSL0jHCmoW20BOPTALGocvg7HrQoNPTWxQpm6o30l2h7vP1FvGBH6fWWn8EtzhEXo5+8At+5ujHU6mNCsmyUODPTIrWs4Q+XGkPzyDk4aHG3HcBZwBlOu8YkjrwEc//j7V/LShqoUOHiQEy80QtvhwCaJc546/7r2uUJh4+skc4bsETjOwLQmFbm8wOEZal/Je5gStLJbkFeYXfUtTgP8EWePv8Dw1drKhg5Z5fD1lmvBrdoHChM49L2pJhmCJxcCh/eroCAhahj6lQl7BlSI/sE+CIoJ3aDwV9hV9e54n86a6oEs4F5UXNRnJJxQ8PXU0ZygZbV7a6Bv4oSKBIGZ2scODOaL2Bzx1eIB1nqswmi+Lu8wrLKxgYOzoDPxtMWcnrTIjnljOcoZrRMNrJhwIudHRPhKtM/ef6LeMCL0+2pr4FfaSWQGCfcN4cFDdy3GIcbYlbIbz/7qSJt8fWtYvr6JLUtuTUgvjqflb3gKQ4L/+E9vYeNYkqM8TwDkQU7UOHiRp85NW1hLw7Rw5o81kNEptUympgQjcDSFrWciesmAI/tDd19gjLWvY935dXZDHgE8/vbTC3n7YUGPkj3kuJaeeIdxpAKGrvgm+llXNXPegENfOP8CAiwIGmxJHqvBuztaZQhDUzcmsREep9reuipf3uqTCWxQiElVqmUANzAltwxwIO6TXDXUQ55SAHKlOXkLpUN2gSRzAI/X8wXMYlvBtuzT2ByRB2gV5OAYaMmzzDlkpSoHO+gqIq0TV9nIE7k+MsJXos3w/hP1hhGh31ftulC9HVoUmeGqDYwuVTH+PuDyoyKHNR84VkWu4yPi7jUMXd29LRPXemQAa3fmcdDWf/nDjExhKPAI2+dwC50i+akX6Go7osZBdrhH4v46/sS/9XLgkgBH5oXWTzr+gggA7mIUsWEH7+mGTifFmPyrdwogz6ZmZGltF5v35fEO0wDBia+86a/jOgEcFAr4JsfNHWu7sQqcY9n/zQOsAIcR/Ob4sO6eOsRjRzE8BVzRHz1rTX725jG3juZ8VNYa6iNPTTGj9sEZV1tAEBweKO8WC5iuO4fhqwWZmuGhUBCOPCMbz0R7l7iulfackjafiEhSGujxlWhfvf9EvWFE6PfNqIFPSYP98KcOZYKU2n5UEyWA8OZeV9jHGWwawF5XI9gx4Obt2/L1N8PCWc5//su8Tu44bunEt00neB+BI+GtetzDCP+WpsdQrRy4hMDh5jQRMdyXLd5Hfd/xc8J/vJ46tMItNKawYd9PMJR/92oa50+syOIyttHY4ai9P/HOLbGrwOsyQgQ5uUkd/urN7dA5a4qLv/oxYH0Vs6a+xBbo/xLrMx5cHdJ9i7gVN43fvO1yP3wfsoC5lukzco0TkG06k43DVyuYkPB8eg/DViuY0bYg04v7sHkU1ebhpukC1M3YYW7YJyMaxjXc7ytR3nr/iXrDiNDvG1PpuVh8SRFE4seogMt49cMD1GUw58FDp+3iB9HR0SbjVyfk6188FJ51PjU1K6vru2oUp2HczQpkO0BX64sah+eG4wkD8ToTBy4vcIBdNi/KvvBsCwy+uLDZ6hYaHzaO5OXCuvzwZkb+8v1TmZvFUAC2DedRqRyXD1/KE0+AbztfeRty0RffQ5MXAu1+qu2t65O6q+3XAI7bo5264Is72tLekZUxXgak1VmGNOaz9JEd1OoIIHtgwxqA4hU0j+9fr2Lbl1WZwvj85gZO0OZ27JiIoJMS2DfyT3kYdJQP6VNeBPyyVZaNTFsWNDmNhM/is8VZjQGG+pGXfbV82m8MlKI9vDuw3HwA9rBOTr8DjwrckRhDVMZDVyf5R18EDseF9C998aqfA5cQOPgO2lvo3159Gem3F8y9p/wy3sDQCo26z6dX5c8/PpPnAJC5xU3ZxJjWsdk6OKxiQyvBM3Czp5BEoafCgENTOCka20xg5ql04WUfHeyFPWNEHty6Ln/35V25PYFjXTEUoeszrJlG08K+2Rod+i3fZ+qy+WbzIHxSd1sAeLzEmR5P3q7JY2h2H+ZX1eaxj0OhnNEcwk5BAzzmCnOU0ccF99NdxvhKNVZJr+cZgVQCHGCSfdSwZtdvta4h4Owe1JG5kWVHd6f0Dw9JezfOGifohptKsrC2oQHAoY2w/prLCpp/ReN483lcaw2XBDiMHe6Hnv71b3Ty+3dhC/LrmMJtl+PyOLloceMQs61m5P/5w/fyCnsx7SHxmIP3eaBAeOKdCjoUVEJGjWFA0fEejhPdlwFMs/0CWsaD29fkqzs35TbAY2wAp8FxcRcEAefDZLcNQVR6+aanERfDR24QPOgSmDFiJWuwKU1D83gytYLNERewjmZJVsDrY3+UL1msw1cA50RL/GTdZUtruU7JV/OzImM4VOVujpsacCj19I/PxwyYWEHNA0c7DoyOwu3R36LjV1Cxel3YtTRIq6V7licCh3HiUruXDDjwnunjTnWO5Om7BATTFyox7CJWv5CR59n8kfwHAMd32IdpZhFrPbYxpswNEWmFUK3DUTT7SUIfZHn+dEfbsQz2YBttrAj+GrOmHgI4HmJTu4kBv4028gE3SkEjaZunljYxIX+RPNYdAgjBg0bzdWgeU5ht9QxnmP80tYh1NNuyunkoe0Bnbg/Dk9QTrU77b0wwap85B6y51ZqZAAcy0rZBQc3/1k26pOXzuQQPHGNj0tnT4zU0X2FYr/+gcbTChGqNCtPZgLAxYVpz/VHjaC5/66EegaMObmGQSeZo1J3dwQmCH+SPsHlMf5iTXWyMeMyPP5tlxS9jvKR8T0M3jyGqiVEc3PPVF9hr6gqGpYawjQTWZ2Dr0z7YM7zFJGiRf0HtPdUUEg2yfK5ea/MpbWUWggdtHgfg3zo0j1kMC77F1NIn77bkx6dTMr+wgtMEkScBZ/afN4HE9A8vyhLp+hky5RQ+lLQWTEk1jgxwhDz1+bTn8Lf3dMsAgaMb83XDukr8LhCBgxwPGVPyBGKgBg5E4KiBSZaF63i3IeA4tPJyekf+63c/yfOp95iquyUbO/tygFXmR0dcCY3xZxTKYxV0e1srDJcd2PW0U/q62+QLHLT0337zUO7fGMcmdnnpwxJwrgLnxMkWEwyssKIQROaf0W+emhzBgy41D2wdJksA51czx/K3xzPy8u2cLGJ/qy3alBQ82H9od3mn4YWanX6dg8ZnedX6zND/CBzln2DUOMrz5TxiI3DUwXUu06Nw24eUW9ks4LjUdXkzsyCvp2dxngem666uYyX0Jqbs7qrtoxXzbHVzwvExuYFpk3euX5FbOBP8Gs7OGMFmdbZ1CESgTrflxB291LWAj0scCs4kcOE97KXe6BOHrTBihY37sH8YTxTENhpPptbkLz++0LPM93Hg+TFRhoZfrDLP0baEqwQ8GFERdJl4Tletzwz9j8BR/hlF4CjPl/OIjcBRF9fdrBQKOk7X5dbhs6tbCh7TS6sAjg1sjriFr+M9TNkt4CzwFhnqwQZ14yMAjHE1ho8Pd+O4UJytALQgYFCe6E2ivKoKPQpOl/Xn9JfdN5sHAQRKnU6HfoETBf/ww7Q8hd1jHprHDtbRHBc5awg6GrQOZYUbE0zY8llqHrU+M/Q7Akf5X3YEjvJ8OY/YCBz1cB3Wcr7/vLkMg+PyW9jjah0HQG1imGoPO+0ewNhxBKMmD3nl1iA4l0d621ukH1uJ9CHQiXUb2L8wAY20ekqMNFTZB6JswM/wYvc5ZEWbh2ofcBcxbDWFGVc/vd3GFjAvZWZuGXzG1n9cS6NbvoAZujEiN6E8yZjPBkRONg29K3M1GziSn1mtDcq2kU+JNy9zXajZfyNwNJvDtdOPwFGOVxXeB/eqlRpkeaYHdg5XQUehx8uKMz+1Cm5ISJc34/RGJrous5VgRLULpbRgtXwXL51cIA9500/ecrruOhj8eq4gf3k0I89h85iHlre5cwStDwve/NAVh61yavdAIdXaUp5WVeJQV9OvWp8Zmt00jSP44fjVIGfoNvlqvDX3DGTOUCQCxxmY1qQiETiyjPXvQuX33KXwL7PaSmgTdiE55tGptd5lWEujoLrMXLdUQ8mkMAn8jC7wRfmI/pG31Dq4jgYnzsoqhgWnMdvq6bt1+duTN7AvrWKLkoIcwuiEJXDgSTtGrrh6GplZOBFu9J+Bza5Y4/7W+szQ9ggc5dkegaM8X84jNgJHlut4cWt7x10uyiiVUwjSZWxYPglrpqCyugHDyoJiWIFF/xxczyPd6w9+DlkpMKO/GBGUDQwFvl4oyF+fYnNEnCg4gxX8G5t7cnCIzScxL80BBzIrHU9M+eIYdq7DVrU+MzQ7Akf5H3MEjvJ8OY/YCBxZruPFrfUdzxZl2JWtQuHMoOFrqEK+XLsuXBwFKBpN8OBoFF2edrcMq/nMBg6Fer+L6bqv5O30omxuHWGtB4+dxXp7PXrWrfFgeQci9DimnRt41PrM2G/8PrSd2QWA2iHfFZ9POwh/Tes4gl92HKqq9YHwtxOvLAcicGQ54l/O2n5W9ianRFILSBpX1neyaNlsJyPRstoad7LoBYzh0BXP8qAWApOG2jx49NP75aJ8+3Qe62jmZHp+XVY3DgAeZvPgkBV3MOZAYXiRcRTKYdwn8tf6zNjXCBxlH0rUOMqy5VwiI3CUY3s1wZIsuCgtbLLhVPAw2uaWkqghhFqsohpyX/QsZBNvAgg1D9o7OFV3E2iyxBMFZ3bl+6c4+e79sixhuu7u7jHyQfPgrQcZnWRWBA7y9CRfwNoaLnsizEr/p7sicHw6XlerKQJHNQ6VTa/8wvB1dK/kKS9m+O6VpX9aJOieQvq0khc5jSwjeFDroNEc5g41nM9iKf+Pr9b1QKjX08tYS7ODLWCwUPPYtr1nr0sZFoHjYgNH2/GmPLg+LP/w23tyfywvOHpdsDcorFz8hZx2ud9B+Pe03DGtMgcuL3BQEpXKk8pcOpHCwuUvI9k0raPMWoXyLfn5xZLroc2D06C38NW7jJ2LuUHiT69m5DWOTp1d3MKJgsfYAgZgAzsBp+nmuNV48MA/S/DwPysdqkK7Oaamtg7nTT/w+SPTOBag57xsHJ/2N8ZdpVuPNqSdwIGjc//hX99PgKMLPGmNwPHJHsilAw5yFq9jAxhcmcapoOEa8BH1GzR9BIkLWpQc1yEr7+q294jklN0VoMiL94e4l+QFZlx9WNjQ0/AOsAFlroXDVjgRT20e5B9ulKv8BJGlGVe1R+cbxCNjHWCYi7YyLdNgy8OmtmNzQ93kEJsd6pWty4dT8MxmcMWq/7VGmFu9RKNyJMAB8HhwncDxIAJHo5hbJ51LCRzk0cf97CuXPv11PD216rNjtR9Jomodn2sG9J3dD28Chw1bccbVGsDjHabrPn49jy1K5uU1FgtubCClpQun4uEM7mQJJo3m4aFGn7DTlZ4fO8aL/Uw0jcrAEYIGP4Q6AuBIwKFSXfwRVUxzzTj1r7bVGnxqzoYm5ope4zhadxrH//BQHmCoqhO1RI2joayuSuzSAkdVzsQMnx8HKFTZKu9yppUtwOQQFoeulqh5TO9jc8Q5ecQzU6B57BzQ5kGNw2ZacbquAw/XSSPsQg39mxXQ2bBVph1DgE2pCzgILjgBEJpGf7Vt1UvQolJDrEGfn5sr7Enb8Ya0eeD4N/8au0yPR+A4jycVgeM8uB7rPDsHTMCCAr0cugrtHthUV5axxe7b+UN59HIaW5QsyLuZNdg8sN09zlV0B27xxMZ0d93w6/3sDatQspx8zsYFfSIKEAisTc5lGPSDfJbOyMsDHPsAjnVpJ3DoUBWAIzCORxtHhd9gE6IjcDSBqZHkJ+CAF6IKGhS2mDRgNg9O2V3GFiWvZ3bkOewdT17Pqs1jA+Cxz33xczjUHUNXOW5RwovlvavhRv7JggRpZ+MCQNC2IGzAEIEjfRimcXRA63hwfRCzqhxwcKiKs6oicKS8arYvAkezORzpN5UD/Nqm1kHZS5cbI3KqLm0eG1jw8WEFx9G+XZRnsHk8w3nxK2t70FBo8+jGaBUXCmIqg5+pZsIaRRt3ZUGClLNxbLxdBDGErS0ROIwxYJsfquosADgwq+p3v3XG8QgcKY8+lS8Cx6fidKyneRxQQeuHrSCUbYsSAsgqFgq+w7bsnG3144tpnJ2yISsb0DwOMGyFRYLEjBy2KdFLNQ8vxb3z0Y3OggQJZuPCuiJwVGQ5gaMd2kZnges4BuV3f/9A7nnjeNQ4KrKtKQkROJrC1kj0k3LAZD1cggaN5mb74LbsXGW+gP2tphYO5PGbRfnbozcyv7QLLcVN0c3p+eVc6+EBBI1Xkvz0/9grCxKkl40Lq4nAUZHjChzQNggcDwEc/9O/8sABflLrKB2qyjI5JetSKqenOaOvEgcicFTiTIy/WBzwwleHrSATGNSZVnA522oHMSsYv3r+/lj+9MMLrPVYwv5W+7K3hy1KONtKtQ8azb1AQRm1fHi6Z2ZGOfmUjQvriMBRkdWpxrGhwPG7v3+oGgcO1AyAI8vcUnIu9fQ8pSViqBwHInCU40qMu7AcMBlMlyDCdR4EEG7LjgXmsgQV5D2Grp7hKNrvsLvuB5wbv3fUCrsIDeZYKGjqAPJH4AA7PqPLAce6dGBm1cNrNI5/Jfc4HbcO4Eie72fUr4vYlAgcF/GpxTbXxAGCh866gquGc7iYbCVbGLp6g7PM//zjS3nydknmVg5wfjzO9Chi6IrDU6p1QBopeKDQxwxZVfq4tXg2MryixhFyo8RvwNFJ4FAbx1e6jiPVOEJmGoNLSMRAgzgQgaNBjIxkPiMOBPJDbR5oGqNM8+CMq1Ws9Xi3cIizzJflLz+9k/fz2zCYY0ovMvEYWq7zcIsEiRuAnYBmXT2tJL8sPks3AkdF9hI4Ogrr0l3cgsYxABvHQ7lL4zh4CX1Rl3emhY3BaUz0NY4DETgax8tI6XPigBfIdGgsp2taRzJdF55X1Dx+eouhqwWZxSrzre0jtXdwnYcQQDh0RWFOCp5mXd2sJL8sPkvzwgKHdcQ6VheXaspM4OjCtpYDrXvy5fUB+R9/c1tuj0TgqIl5Dc4UgaPBDI3kPi8OqDjDn3CmFe0eNJhzoeAK1npMLxWwSHBB/vTdU3k/uyb7hQ6ADNZ5tOA71oatkNfWVtTVw0py1OJN3hrRCwkc6ERJfyxgnWqMS+DoA2hM9IoCx3/3i1G5MZAXDlVFjaMxPK6VSgSOWjkV811cDhA40HretreVGs4RwWGrLexGO/XhUP74w0t5PLUkM8v7srWLmVb5DshDSCUDD9M8yAkSq+WqJEMtPktHgQP6DeO9n3W5cFphCmIu7/ntVYXGWV+sedqnbKQlnt0lcAx1HckXY93yFTSOX97pkMnuXASOs7P0zCUjcJyZdbHgheGACjLXWlscqMCBKGoe3IWEq8xn13Ao1JtV+ae/Ppe3s5vuMCioKs7m0YJcmR11A7qOepm/leSnxYc0CBQkoYBhLmL43/J5jzruj6adK3CwzSf6YxFMrO/yXPAk2XHHgJbCroz35+WXt0cBHF1ydyIvw+05wX+syMEmyI578J297vpaenlzR+C4vM/+cvWc8gfyhIBhN43leiONLrWPV/PHAI432JZ9QZZxjvnWzpGeZX5coLEc4KHaR16HvpBdZZq6idByoeRvJRlm8WyXXZSPKiQJFBpIXebxcebVMEsgPgWOnlK5afVoHWEg9GtilT9hQ8tltfR66ZbSUiqeVA5HNOeKxzhF5Vha8kXpbDmUG8Md8psHk/JwMi+TfTnpac3h5D8axmGSSp7Bx7WhtEUxVI4DETjKcSXG/Ww5QJlE4DCXfoIGXd2ihPtbLRfkzYd1efJmVqZmV2UeRwxu70Hb8Os8uEVJ0VaZh5IONEqu0+QX01Rj8CVAR0lptA8gXbP4OpLsTCA/fwgAABopSURBVGbAJzKZ53Hotuo9AI7wKmlDGAj9YYFyfm1AuYQgzvLUQzcoDq8DzbR8PlcAGBxBkziUro4WGeltkXsTPfKb+/1ydyQnvXmABrJTF3Sb5LMNaflS6jHUSA5E4GgkNyOtz54DFC0m4hRAELA4DmNxoeAe1nnMrxaxOeKSPHm3Ks/er8nc6qHsAFSOj1GKmgf3t1Ltg102inV0H1/TYbEEFEhNQUE9DhuYkf+1Gu9nVTxe1hPhCYAOOHgCYCA8A29JfJiHtCpeWmnFVKv/ZIaSik8mn4jxIKnxrmyueCStuQPpaDmW4f4OuTneKw+v9Mo311vkOm0byMuc9dZ0ouoYUTcHInDUzbJY4KJzwEShuewPhbJqHfBT89gFgnCtB4euvnuJEwXfrcg0tI+t7T1oHjzLAxsktnD4imVRgHc9Eox5UcT/Uced3BdoGaBJsj6RniSs8fzjPHp0bKpxBA0JvKUNLElQ2uX/aAN8Uugvn7v22IQBrgj6wfUyjFU8hr94hE0N8wfSj+P9ro31yzd3JuQ+hqiuYYhqhENU5ZpTa7dqb2jMWYYDETjKMCVG/bw5kJU3FuYHvA5bQfgQRGg4n8fJUE/eHuBEwQV5im3ZZ5Y2MGxVkCPYPHS6LoZLeJnQ10C1PybctGJXu8p/X85jgYKCy+LyqNbBPCpknXsxgQMMSPoOj+9wDlxXmwY0jXzuGMNQRzLQJTIx1CW3Jwfky1uDcn04JwMtGKYCiRbPFs825xhvSyJjoNEciMDRaI5Gep89B8rJG8bx1uEr7+d6j20MW60APPQs81cz0DwW5dX0Mk4URE5M15U8dtVt8UZzEMB3M0rxMteF0r+QbCbcNIvLlwAHgqk/m+apf5bA4dqa9rOcz3eci2p4saPULGAAp5bRBiTIFw+A2DvSCYv3cF+7XB/rlQc3RuTGaLuMQdPoh1HD1m3AXn7yMt6eTIkxDeRABI4GMjOSuhgcKCdv2HLG280wtQ9bLLi6iRMFZ7flEYasvnsxByDZkx0MZdHmkWu1GVckYNBRqRbkMduIZuEQDeJ4eTcNuwifzWVAgENjmod/nOech6pcO7UPVf9Asvul/G4rF4AGOt4KLaKzPS9drUc6e2qwC7OmhrvkFoDj7tUumcQ0XIxY6QwqGsN5G79KqozAUcKOZgUicDSLs5HuZ8uB08ScpalMRg8IHrz3MW61jqXmr7HK/LtXi/L47Yq8eb8om5s70DrwedxCm4eKMxXmCh9GzDhhgGEu0tU+wvQgr2KBxrlI/WvpSLw4wGGNdh1UmW6MLRSkcHyI2VAFaYO9orOjVfq6WmVsoEOujvbJ5FALNIy8jGCS2DA2o+pDHq7VcLOngL0haZIPrwgeITea4o/A0RS2RqKfMwdOkzmWlsg3dMSGrzCIIovYlv0l9rd6guNof3z+XqbnV9XmcWg2D4IChbtnAH26+pxhAwwTbMjEevQyF4E0zkXqX0uH64BDPT4zjqRKZlVxOq5VUOotiQ/zaAMq/bGKmR76s/nLpTEOt24SScM37gLWZWBoqoWAgaGpbkyzHejpwN0u/T1tMj7YI9fGMSyFrUT6sV1YN3hmC/y4VoM907tcdWGTAhaE0dHfGA5E4GgMHyOVC8SBajLH0unaTfDgsNUOLOg4/0neLxTk0atZNZrT5rEGmwe3KCE4OMEfrDKHEEu3LilllOa1Cllf4Dc5XaK9IP3zBA40nsI62wGARLEAznEhH+/CgbTg7gFgjA50yxVoFzcnhwEULdIHzaIHYNELI0YnbBlc2Md1GgQM6nJZbeNM2HCmQqg8XiUciMBRwo4YuAwcCGXzaf1lPstL18CDQ1drONjj9cyu/IQ1Hj++WYLNY1c2sMr8cP9Q81GKFk3DQP5U60AguIp+vF8/zJ3kdalWMUKfJ3CYBDbtymtWFs0OQbvgQB+Ho1ow+6wDSNCVP8J9jCGoVrk20gvjN4BjvEPGME2qCyiBESkFCIIEL5I7DTCS6jR3jX/OVKhG2pckWwSOS/KgYzdTDgQyOY2s4AvzEjiSYSt41rAg8D32t3o+d6Q2jycvp2V5eU2OsZKwyG9kzLjilXyEe4HltA8frxUgAa56wwq1NOMtkcTwHwR5K2El/qmGqnyD0FyTvTRwF2GvYBvzAErdJkQXN+JI3iNoF1j93d6Wl14MR40M9MBuQZDgDKkWmejPyTAW8vXDeNED4zg1DGKto01G8Ca3rDZXfxgK/S61hr9nKlQD3UuUJQLHJXrYsauOAxRH9VyWn64BB11ujriG6boz60V5MV2Qb5++kanpRVle35U9gEoxR1HoxJ/S0D+QWiq4vPTycV7+a/7sn/MFDutB0CoTvApeAAhqFgAQ3SIE6y9auQYD9gveHJIa6O2QYQxLjQ32YpPCdhnFtFoCxgCGpjAypcNR5JROr1VGkEXKGHisMudayFqTDVv8qe6ZCp1K8dIlRuC4dI88dtiLpLoYwTJ2c6EgR5g4EIMZubKNiEVM152aL2Bb9gWcZf5W5pa2kY6t2ZGRgzhalgX1QmEKRB/U4SrGW7LLlPw9f+DINM4L3qICBkHD38f7yRYhAzB0T45gdtRoP2ZJDcgItIs+oEQPhqO6oYh1QsPgLCkOTan9An3Pe9BwHc8OfflKPVc0RH6VRvvUKs5ZylQhedmSI3Bctice+1tJPlflDOWU3vijLgQQDeYEkF2oIMuYcfVs5lj++HhaXrxfV81jf28fW0oBOFCgoF/orIaSy27QIjG7Qr/FoTaN5h/cbqgKFSZAxKGqHhkYG8UuucGsqhMCMowI/Nk6LcniLaztcZHaIrNhYDiqFYaIduwp1dN+7FZ7D3DxXr9cg/H7ynCLDMLgrYctgZYZu3VKLciRfAqvSac1VhPDKBfrHoDGo3RJ+zKZywXrzV+OxiWPi8BxyX8Al7H7Jg/P0ncrS5c3h6x4c38rah5zAI+p5SLOMt+Tb398KfPzi3IEZDlWzQO76lJVUUmXmHyJBKAVSLMSJEH24FLQQD1FgganufqrvadbBkbHPHC4yJwf5vGwg8igDvOTjBHxruUqbRVzoT5qF5wlBbjECe2wYWDxHpCgt7tTRod6ARKdchVbn09gOu0w9lvkcFQvF/eBaBvKs9dYa6/rMCB8FAR9tXCsZudV24aPCtuoURaRDGWlVKr6gmqq5o0ZynIgAkdZtsTInzsHTO6ctZ8sz9uAgy73ttpC7BqMHzzL/E8/TMurt7OyvLaNtR7HABCsZDDDOb+7S7Zmdy3RdukfF87+zQIHwwQIahr90Dg6oXkklwndBIhMYjq3pBoEXDiEMPpJnylwC1iwV9yD4N/H5oNY4c2V3pgq1dXVIUMD0CzGhlS7mBzOyxCGpbpQmsNR6ZRaBxwkZ/YMrVPbhza5/yiReOB1bU36dMJTLT1ToM7smdIx6DkQgSP+FCIHauSAE6xpZoYJGHR58zucNg8eCLUKzYNnmT/DFiXfP5nCQsE1bFFSkMMjgEcRtg8FDjfrCtmTi3T0SjwW4aMZT40DwrbALd4p0LHFO4FjYGwMwNGlbaEWwyvVNhhyUlNTVPNx7WYKL9J05QgYTmbnIeV564Dc0S6AYBuHJx3IELSJUfwZGRyU4aEBAEePDMGOwZ1sacPgobvsHW0YNHyrHQOt4WFLDoe8tuGaiRy4ABLaQgMLF3Bpvu0+kDqaJw1G36fhQASOT8PnWMvPhAOhnDM/Xd4U4zqIgwDP9diECvIGCwX/+uQDzvRYUoP5xtYBThTEmXbHrW7ghsK6RPgxUBKBsL+QVYGArm7ZwRo569cBR/8obBxdBA5mwF3mcpDg2quN1jzOeJ+AhhfgOR6k5O0XrQSD/L4MtO3KaPeRXOkrYluQbhkeHgJoDEhfbyv2mXIaBkamdEiKpDk0RZsGXa7n0MsDlA63uRj8RSHWm3SdYUukxweSOEuL7nlwIALHeXA91nmhOZAVyRZ23/8OQDBLV7WPJSwU/LCKtR4ftuWHZ+/k/eyKbGwdyu4+LAQF2jxYGmJVJSakogpt5zommaREPvdfQYFClxoHi3GPLJ4A2Ash3t7JCa68kNmKIuS8/GsgQZd18zLCBAoIegCApmIvqRZMre3AWFNvN9ZeDHbINdgurmMfqat9BRmEatGN+jra22AcL128Z1VzphRpBjVr+xWkkOZawPp8Js1pbTcqTDO/a3H8e74ciMBxvvyPtV9QDpjIDZvPOIKHAQjXeQA3ZBOW8+nFgvzwYlFevpuX9/PrsrJ+ILs81wMIw8WCxZz7LleDNmwfKkgTYZrWojhDgasGctQEeZoHcLRD0+jGsFF7J7c9cfmdcRw6RiJz6XG3M9Jz2Ag0aPBGq2nsbs0XpAPAwVXe2HcQe0lh8V5nK4ahunAuRo9cGWqTK4NYh4EhqS6oFtQuUqpOsygX5hCVApQ2DX4N8o9dJMSSZS6Nr5BWJnuMaj4HInA0n8exhp8xB0LRx24ybMBBccwhK2xtJRtAkHmsMn85s6mbI775sAKj+S7sHseYccUt/2BGBng4Yc+BHS8oITSdPPVh0CPUOOBADUg04Ojq7w+AA+WoyIAS/zgaDCBS7RusA8ABg3cRt4IGBtraW7AlSGtBhrDC+9r4oEwM92HFd7sM9rh1GNxHqhu7DlKvof3Ct4qE1U+qvBlvtwuTM7x5aSecW0IBUWlDmRGX1WCui41/z5cDETjOl/+x9p8ZB0w80iWAEDx4HyKwQ81jBVN1sbfVc9g83sysyuLKtmwBVHiioOQIHl7ceuM1iiIKcYFANa2DK7apmeRhgGjr6pSuvn5p6/A0kF+LQWq7ol5oF71Yh8vhKA5FtWLvKNUuULSvo4AptEVMp+2QGxODOBMDW4VgpXcfAMOM3EqX7fK3p6xhUvc1JOkKUAQppKXgoYEKf1xOV4PLYqUtpULBGP2JOBCB4xMxOlZzeThgglSXWqDbBBD6VfOAwXwFQPFm7li+f/5Onr9dkA/zOI6WY1p5fMfnMGzlNQIFCGMbgUD9ZqOACOYCPERS42iDraGzvxfAgflMKtk9cOgUJtpCQJ/DUmwMG8jqAGmcUptuCYLhqIFWmcRQ1Cg2HewHWGABuBq94dWZUb6okmB77GbTzG+uxWml7Axu1zTmqHRZmrlsaupnqdJQJToxvpkciMDRTO5G2peWA6GApcykvMYyDh260nM9eJb5m215/GZOnk7Ny9zyDgzmmJWFaVnc4wo7PeHGt3sJeoAIJS9Fp8phAAIszy1trTpE1dnbK63UOJKLdgs3M4p6Tw4L9zizqR1lOrDxYDfUjEFsODiKPaRGcQ7G+CAOUgJojA/AGI481DBoeeGQFKfTsmbDHXg17FvDoIZDVyN1kaIDDU1DAW6GmF6h32ItzoOkRWdcy5WJjsFPwIEIHJ+AybGKy8mBEvAACyh0OV2Xq8z3AAirODzwzfyx/PAS03WnFuXth2XZ2NzHuR6YUkvtQ8U27BkkRKSAaE5xxInNljYYxrFquwNDVVzD0YJl3LrGAxl5DkauiJlRMHhTu8hhL6nO1iLsFe0AiV65NjYo48NYf0HtApsO9sB2gclTJ6bVujUYbINrhfO5vya8zWUs/dp37prrV7cTKzi7isDn/jGnu7R78LJvSsfA0TJYPs3ocjtbkM+fyReDzedABI7m8zjWcIk5QDHnRJ1zCR721c6V5vMYonr2fh+bI87Loxcz8mEBw1b7eTk8pq2C2kMAHMjvhm04DAUbBSRxK1du93YDODqkHdNic1jTocDBWVfHBxDWnE6LTQW5uWB7EbOh8tjOHMezDnXJjXFsPgjtggcocQ2GaRbl7BQq0IO+wJtclpZEeA9tMGwLcYB52F7+Cy/ljfaLf1xG7VuYyfsT0PT0LEspRYuNbjM5EIGjmdyNtCMHwAEVjt41PxlD7WMTKLIM8ODOuo9ezWDYagFnmS/L+iZS1eZBLcOJRgcaEOsAjXxLK4ziHKJqk24CB9ABC8hVLOsZGZSyOGmPRu9+aBjcR4pAcQVrMMZh7B7BdNoBGC66ACocuuK2INwGJBHybGDmMsGtffDC+zShDegCBc2doeSCBBWjyWzMSU1CgcPTL1swE3laGzJZY7BBHIjA0SBGRjKRA5U4YKIz63K2FQ3mOLpDlmDzeD2zL8/ezstjDF3NLG3pFiUHmI7Fg6F0h13aPHA4VL4FINHaLq3t7QoYXThvtZ1Lu2nDwErvNiyuaMd2tZ2wYwx0t0Gr6NYtzq+Pt8rEYF4Gu7C9OQQ0wcKGocyGwT5QEJcTxibkHSB4Ic8CwWV9zAJGGK9+ggbLpQkIuJrVBgJvuTYEVam3ljzZMjH88RyIwPHxPIwUIgdO5UAoG+m3sNk8OGS1g4WAa9jfanb5CACyLG9g73g7g0OhVgEg+9jjihskYr1HDppGS3snhqg6pa3dDU91tCOO40s4ca8Dhyf1w1DB0/aujHIdRhfsGTnsLQWDt9cwOggskLgGFixKAWxC2FxEnbzQVor8JA9VlJLLYCWNtP4yRf0eNFxJahj0WciVy1JNqdWWns0fw43lQASOxvIzUoscOMEBE5xMMD9d3mbz4BYlXCy4jmGrBWyvO72wDvBYBJBsytr2kWxCLdnH6BXN3LmWdgWPdoAHQaMds6raaO+AIbwXiDDW34l9pGD8HulU0BiB8bsHBgxgiopnZE1ctsmuE8KaDTxxMTJM8MQ0n4u3VOemVBk2WLE8zupRavlIS5yoXCOqpZcvFWMbyYEIHI3kZqQVOVCGAyYkLSkMO2HqRDGHrrCQXBcKbgEoNnZFVraOZQFH0S5v7ANA9qF9HEL7gPjNAyygcXTBIN6FKbjd2GqERm7uWjuOXWqHYMPoxViUrsMAUnAdhm5lzkZQ8pr0NZfx4RU2MolHpI1XMc7K0tX8DhasqDPNOGhgZotP4cMRYXEj5WL4t/wV5iufI8Z+Cg5E4PgUXI51XHoOpEIzZYXFmUvtg+ChNyJpPOfhUKs4lpb3+vYx7B77sn+Ic74xvNPa2qbaBhfxdQMZ+mjwxpDUIG6YMXSWFNdhcEgKs3DddublJG82zhqEcullkeb6lKAsjd28LIe6aKfTJ0LgcGWZbsUruS5n8NeIW5QVtHB0PwkHInB8EjbHSiIHHAeycs/4wnjeBA9zCSBc87EPDeMAgQMgyRGAhMdw6MxVCM0WCGbaN2gbhy0ce005+4XOkkJ52i/0Bp1TZawlsvITVzYyCFs5DxcuxUXSn4aTjEo9oQCPpdDUQb+GkwwnGlMaYYVLY2OoyRyIwNFkBkfykQO1csBkJd2sPwwbPcaFctOEbugyr4WtXEI8iTjNg1rCSsoWttY5OmY6Z6xLMQLmBvX5otpGn6y7pARZEm9pNWm7ypBNykRPUzgQgaMpbI1EIwc+cw5khXDF5iJjIpgrFSqNzwKHS3VEQjN4QhZ1m78iaLB9pdUEhSo2PiY0iQMROJrE2Eg2cuCz5kBWCFdsLDKaVD8huVkoSyi1ZTDFpVqcWTvSyhLSiFJ/SC70p0VSnxU2N02JviZzIAJHkxkcyUcOfJYcqCaUk0YjYyKYw0KhP8kMTwoSLoeF0zxGzlxLKdE2ypG3OCuYdY1QdJvOgQgcTWdxrCBy4DPkgAnhqk1DRhPQiXZRubAbpnIFbMiKVYQlQnLqxx91w0yh39pocUYg61q+6DadAxE4ms7iWEHkwGfIARPCVZuGjCagE/Fvhc11GXQVh0734jwugAWSXQ5PgA4jrBi8JTOpEE6uIM+JOGtP1k0yRk+zORCBo9kcjvQjBz5HDpQTzGXbiYwmoEOJX+J3BZO1gTyzFoUsbFUZGYtnWG9LCOu3QmFc1m/lzM2mx3DTOBCBo2msjYQjBz5jDtQimLX5lYCjUt8UCqxkSaYQMCyhoszPtq9iRlA6Lc0qim5DORCBo6HsjMQiBy4IB7KCuWKz6wEOk+DmlhItBxylOTIha2N5ci7zaWkZcjHYOA5E4GgcLyOlyIGLwwETylVbXCtwmAQ3twzhmuv0ZTU/6z+F5ilJZVoQoxrEgQgcDWJkJBM5cKE4ULMQp+C2npUrlCT6TEG4XHYjVYubqChGkwTht2AtNGKepnAgAkdT2BqJRg585hyoWagjYyKoyxVKEtHhwF8ua70sSYDDF0zIJ556Kcb8DeJABI4GMTKSiRy4UByoWbDXChyBMK+ZdjWOBYQC8q7UiYhqxGJ6AzkQgaOBzIykIgcuDAcCmXxqm0uWc4c5QUBpQICrDA8Eea20Q3IV/SAWkE6zlY1Mk6OvqRyIwNFU9kbikQM/Bw5UQAIdSoIAVxmeEeQVitTMjRJyWWIliTWTjBkbx4EIHI3jZaQUOfAz5kBWeKOrFnXarCfLUytnKmKCEaqYodYaYr4GcCACRwOYGElEDlxKDiTG6yrC3GQ+mVQl66Xk4wXsdASOC/jQYpMjByIHIgfOkwMROM6T+7HuyIHIgciBC8iBCBwX8KHFJkcORA5EDpwnByJwnCf3Y92RA5EDkQMXkAMROC7gQ4tNjhyIHIgcOE8OROA4T+7HuiMHIgciBy4gByJwXMCHFpscORA5EDlwnhyIwHGe3I91Rw5EDkQOXEAOROC4gA8tNjlyIHIgcuA8ORCB4zy5H+uOHIgciBy4gByIwHEBH1pscuRA5EDkwHlyIALHeXI/1h05EDkQOXABORCB4wI+tNjkyIHIgciB8+RABI7z5H6sO3IgciBy4AJyIALHBXxoscmRA5EDkQPnyYEIHOfJ/Vh35EDkQOTABeRABI4L+NBikyMHIgciB86TAxE4zpP7se7IgciByIELyIEIHBfwocUmRw5EDkQOnCcHInCcJ/dj3ZEDkQORAxeQAxE4LuBDi02OHIgciBw4Tw5E4DhP7se6IwciByIHLiAHInBcwIcWmxw5EDkQOXCeHIjAcZ7cj3VHDkQORA5cQA78/65vOJPSRctxAAAAAElFTkSuQmCC;" vertex="1" parent="1">
          <mxGeometry x="411" y="190.00000000000006" width="98" height="77.81" as="geometry" />
        </mxCell>
        <mxCell id="ziRwayuzQX1U7kPAkTH5-11" value="" style="shape=image;verticalLabelPosition=bottom;labelBackgroundColor=default;verticalAlign=top;aspect=fixed;imageAspect=0;image=data:image/png,iVBORw0KGgoAAAANSUhEUgAAAMAAAADACAYAAABS3GwHAAABdWlDQ1BrQ0dDb2xvclNwYWNlRGlzcGxheVAzAAAokXWQvUvDUBTFT6tS0DqIDh0cMolD1NIKdnFoKxRFMFQFq1OafgltfCQpUnETVyn4H1jBWXCwiFRwcXAQRAcR3Zw6KbhoeN6XVNoi3sfl/Ticc7lcwBtQGSv2AijplpFMxKS11Lrke4OHnlOqZrKooiwK/v276/PR9d5PiFlNu3YQ2U9cl84ul3aeAlN//V3Vn8maGv3f1EGNGRbgkYmVbYsJ3iUeMWgp4qrgvMvHgtMunzuelWSc+JZY0gpqhrhJLKc79HwHl4plrbWD2N6f1VeXxRzqUcxhEyYYilBRgQQF4X/8044/ji1yV2BQLo8CLMpESRETssTz0KFhEjJxCEHqkLhz634PrfvJbW3vFZhtcM4v2tpCAzidoZPV29p4BBgaAG7qTDVUR+qh9uZywPsJMJgChu8os2HmwiF3e38M6Hvh/GMM8B0CdpXzryPO7RqFn4Er/QcXKWq8UwZBywAAADhlWElmTU0AKgAAAAgAAYdpAAQAAAABAAAAGgAAAAAAAqACAAQAAAABAAAAwKADAAQAAAABAAAAwAAAAABu8xvwAAAWS0lEQVR4Ae1dD5RcVXm/981ssm9mIwn/DmAT2iOJ9XAqoi1NAmjSYkgiyf7BEvUoAlostqAReviTnc1kd0nwqBWh9Q+CiNLqKWRnk0BCopAoJqEWbAu1NnAoLRSptPxLduZtsjPv9vs2Gd0s2bnfe/PezLt3vptzMjvvfvd73/f7fr/3/90RghsjwAgwAowAI8AIMAKMACPACDACjAAjwAgwAowAI8AIMAKMACPACNiKgLQ1scl55VcWT0un5U5YPm9yH3//DQJKiX1eSS1evz370m+W2vtXSwiAyR+MwK0kAusFwOQPRv6qdauIwGoBMPmrdA732QoisFYATP5wpJ88ynYRWCkAJv9kGtf33WYRWCcAJn99ZJ9qtK0isEoATP6p6BvNchtFYI0AgpBfCeErJS/vK7jfiYYaZnsZ7PY+rqT6FpDB0WVimwisEACTX0dbfX+risB4ATD59eSmWrSiCIwWAJOfSm26XauJwFgBMPnppA5q2UoiMFIATP6glA5u3yoiME4ATP7gZA47ohVEYJQAmPxhqRx+nO0iMEYATP7wJK53pM0iMEIATP56KVz/eFtFkHgBMPnrJ29UHmwUQaIFwOSPirrR+bFNBIkVAJM/OtJG7ckmESRSAEz+qCkbvT9bRJA4ATD5oydrXB5tEEGiBMDkj4uq8fk1XQSJEQCTPz6Sxu3ZZBEkQgBM/rgpGr9/U0XQdAEw+eMnZ6PWYKIImioAJH8qJXdJKebqitSI1xjzi1SHc1zpQ8KRyx0pzhZKnHokrudg/VsqFXVrfnP2l7pYm9mPmDptcrX0xQohxe8cieUleJXxZ/Ai6Fb/jcz387vkSFwx9nd5l0lH3QXEMuL1yqYJIGlb/oFlo28T7f62WmIEEpWEUl+qvJ7pBxKV4yJRGL8g3jSINycdeR3kkJnKB+TwjBh1luW2tT87lU29y03aE2hVWi8Yxxp/04XFU6kT1TZky99VOgfIv7cW+TEPJBYQLHfoLcUTjpVXU5dNGzneScm+WuQ/ksNc4fp78phzTK234N4jlbwCa6dbBcT7djcjdyIndLZx9DdcAJhoJit3QTLaWZobQv6e4sqUFDuhECfFAXASfcJu/2TMebCzuCKu+EwRQUMFkDTyD3QVr0oLOaTbasZFkmb6Hc85JQuIQVxxmCCChgkgWeRXsr+ztAEOZ74KxU/FRQAD/KYQg4Ge4nohVCzng0kXQUMEkCTy589U0+Ak7W+dlLjBAII2JEQp5I0DPd69iE0cK0yyCGIXQKLIv+i1mal53na4PPjhOAptsk/Y/H8kPc976PoLXj0ujjySKoJYBRCU/HjlIK7pCvMrvDnpWe0/gWPfRXEU2AqfUiyeMcPdvWZJaXYc+SRRBLEJIAz5EaA4gM8vH3lXKq32CqnOjMO/VT4Bo/aseKy/e+SsOPJKmghiEUBQ8uNEtXGRf6BrdElquvNj2PKfRiko2D0BN7v2U2yNsoGcxnMjBI1YSeE8itgRzAObJEkEkQsgKPnjPOzB2/JC+g9CQWdQqqSE3DrtgPs+uOXlUexNslFSjmJumCMlbsRMOv4DeFeXYh/UJikiiFQAYcgf15Z/8GKvz3HU3VDINKU4sBf65pND7Sv/cocsUuxNtMHcKq+2d2KuxPjb4LDx23CFKEe0D2SWBBFEJoCkkB+fiRnsLt4FhzHryNXwZS5XcK+8T8gKeYyhhvgME+YKe4I+agpSqH64V3AnYksdQ7VrtggiEUCCyN+RmjW6BR7auYJYgDHhy0t7h91Bor01Zrkhd8BXEg9vxihJwb2CTyC2+MQsxT6ITTNFULcAkkJ+jCM904OTXbWUBD6cFFZ8uQzI/12SvYVGeMlZSWc59aQfsU3N8n4EV9VOiRqOZomgLgEkhfwD3Qff4WblXngC/WxSYZR4EZ5ZP3/tsPswyd5io9zG9h8iFvDuw4uUNOGc6t2pducxxJxiH8SmGSIILYCkkH+wx3uvEJXdcCfzdBLYUj5VHhXz12zseJJk3wJGiAViAucF/0pJ9zDWld2HsaeMoNs0WgShBJAU8q/rLK2C3fcO2CrNokAML4M8cuAN7/z8tsx/U+xbyQYxGdnvnYcYUfIexxywH68BZUAAm0aKILAAkkJ+eJrzupQjvgfP9UynYAuFvfeF592ln//h8W9Q7FvRBrGpPO0uQ6xI+QP2WIObe0rXkuwDGDVKBIEEkATy54VyBntKt8PTnF8A8sPemNLU+lwh87E7npCkKx4Uj7ba5H8uD8Fl0kuVUBtIOUINlBBfBBHchrUhjSEaNUIE5ICTQP7VC5Tb1uNtBPz+gohhRfrqU71D2TVEezYbR0Cq3FD2JlVRfwZfSfdGQARXY22wRlGCGLcISAJIAvmvXbH/xBNO8R4BoLsoAINdEW7gdK4Zzt5BsWebNyOQ25T9hlKqC7F8c++bl2BtsEZYqzf3hl8Spwi0AkgC+fMrR8+Y1ZaGpznFfBKMSvyqItWiNUPZB0n2bDQlArlC9gHEEsj98pRGEzugRjPT6T3js2xMXF7n33GJQCuAIC+w44NtGGiduR41vP/i0h+mUv4eWHjGUR1TfIETuH2qLBfkN2Yfn8KEFwdEYBzLMTkfsaUMhStEc3GWDawdxZ5qE0YEOt9aAYCDeTonsHXw4yA/PNPT6Sj6jA1QoN2vlsYW5ra4z+li5v5gCCCmpf3lcxFjykgQwUkwOdcjeZh1g2JPtQkqAp1figBq+oiL/APdxT+HR3iHYOWkkyoozP2V19wLvrz9uFdrBsydoRHY8PBbXkGMYbIfvBChbSCCDM660d9Z/LTWOIBBEBHo3NYtgKi3/Fe+R7XBNf6vSCn/Gq5xkuLzfXFrpeCugicdR3UJc399CCDG/pB7CWJO9JSCCbv+5ubu0q1YW+IYrVlVBFpDjQGJYLV8YCC1+oP04XXk35ozugmu8V9DGYd7H/i3um84szoPb75QxrBN/Qgg1og57HU/N14DgkuYdOUzs08fHY7yXkEU3KtbAITcySZOp/c5R6pllAEA/ihshS7pHc5Qt0QUt2wTAAG4ufhlMF+FtaAMg8vSy7HGFNtG2SRGAOOTuzris5TEYavzCmxRLlg7nCEdi1J8sk04BHJDmfuxFjCadO7lQI3jeLEmXPTEY+ywzoOMc2YVz4Tr/G/VjQHyP1cZdRb2DWVIVyN0/ri/fgSwFqrsLMTaaL1BjcdrrTVsjEFi9gDSSZ+kS1n54vHKSGV+fmv70zpb7m8sArnN7fu8sr8Aa6RbM6XWOh9R9SdGAHA8X/PBNl+pf2svuYvyO2bQ7khGhRD7ISOwfnPHr7BG8CDdL2oN0tW61tio+xIjAF1iEOiLNs/YoMvflH6sETweasz7FsYIwBQCcJxmIcACMKteHG3ECLAAIgaU3ZmFAAvArHpxtBEjwAKIGFB2ZxYCLACz6sXRRowACyBiQNmdWQiwAMyqF0cbMQIsgIgBZXdmIcACMKteHG3ECLAAIgaU3ZmFAAvArHpxtBEjwAKIGFB2ZxYCLACz6sXRRowACyBiQNmdWQiwAMyqF0cbMQIsgIgBZXdmIcACMKteHG3ECLAAIgaU3ZmFAAvArHpxtBEjwAKIGFB2ZxYCLACz6sXRRoxAOmJ/Lecu31Oan1bi61MlDnPk9OKvrFT7B7pL98EESHOr3yd9Pt1byFxSXQZTxF8Ev0E3WP0++dN3xKf6Nmb+YfJy/k5HgAVAx+qYllI5M2Cy5LOO2QkLpe9M/g3jeTAF2DuPaQ9zC05s4HuWcNTUvgWsm1tdCPAhUF3w8WDTEWABmF5Bjr8uBFgAdcHHg01HgAVgegU5/roQYAHUBR8PNh0BvgpUZwWl8EfgJ4KenNKN9F+b2Ae/pvKMmHS1Z0L/MxP+FgrHKjml7wqse6I9/x0cARZAcMyOGtFXyOyFBVNeqjzKGL7Ar6l8cPKyqb4fuX/w63sIU9nx8vAI8CFQeOx4pAUIsAAsKCKnEB4BFkB47HikBQiwACwoIqcQHgEWQHjseKQFCLAALCgipxAeARZAeOx4pAUIsAAsKCKnEB4BFkB47HikBQiwACwoIqcQHgEWQHjseKQFCLAALCgipxAeARZAeOx4pAUIsAAsKCKnEB4BFkB47HikBQiwACwoIqcQHgEWQHjseKQFCLAALCgipxAeARZAeOx4pAUIsAAsKCKnEB4BFkB47HikBQiwACwoIqcQHgEWQHjseKQFCJgjACnPy3cVuyzA3OoUBntK3QJqZUqSiRGAFOqQBjQ35ciNA12lqzV23N0kBAa7S9fApHf3w+rdWiGkpDpYq7+RfYkRgH+wsg+mDJx60kBABX5ZxZGOuK3/4tIXBMwZ2EigeF21EFByXVfpi1Cgr2CNallijcujladr2jSws3awDQwkv7Xjf3whH6Ks0lHiusEe73tXL1PTKfZsEx8CWIOBbu/7KUdcS1kL1hhrTbFthE1iBIDJppzKDfDhERNfdXK7t+OGD7w++SeIiMPZrF4EEHuowQ+kFL/+XTONT+9IjTVmjeuuWwCg/sujCnfNxo4nRUWtEkrtp/gE4N+bnd62e3C5dzrFnm2iQyC/1PvtjmnT9kANzid5hZoqpS4ZrzFpgN5osNv7uN6qtkXdAhBS3dnf5V1WezX03t5N2S2qkjoHTgaepYyCX1F8h5quHstdXDybYs829SOQ7ym+O+WqvXDM/7sUb1jL8sHUH0z8tUzKuFo2SH4l1bdq2VD66hbA4RNTdVcUaqwGnNvcvq/kVRbA959Wl9X6hK3QKdOV/PFA98jSWnbcVz8CN3cVl6WF/BFiTvT2U6xlfmt7ZCe+VfJrT7gJAeoFoMS/6/xgIKjGKPcEG7bN+N/ymLtYKrFZt/4j/R0QxpaBLu8TRHs2C4hAf2fxk76UWA/AWt+wdlhDrKXemmYRhPzwwyX7dF61AiiV1B9RHMWxJ8hvkaV/Lrg9Ssiv6RLBftgqpaWj7hzoKeYp9mxDRwDIv85JyW8ixpRRWDOsHdaQYk+xCUp+r6QW6/xqBbB+e/YldEQVAe4Jojwcuk/ISm7I/bTy5U26+wTVZOG8YO1gT/HuK9+j2qrL+DMcAogh/GL9t4H8fSQPcJ0f9hI3Ys2wdqQxBKMw5Efu6lxrBYAOmi0CjCE37G7wfflROKHS3TFGc2jystlzSg98fqXiX1M/DEjg/xG7OXNKD0opSVdbsDZYo76N7i2BV1ZjQFzkx1WSBICGSRBB3yb37+BGylLYvb6BMekaFG7JWMp7NL+yeJrOlvuPRgAxQ+zguPL9R/dM+e114csLsUZTWoToiJP8GA5ZAGicBBGsHXJ3qrHyuRDOCxiTtklxVjotH+tfceBMrS0bjCOAWCFmcJmT+uN/L/hjlfNgL70rSgjjJj/GGkgAOCAJIujbMuPn5bKaD+cE/4IxEdpspy31E7hCtIhg29Im63q8xbItvRtAmE0CAmqAtcCakOyJRo0gP4YSWAA4KAkiyG/O/rKt4p4Pd41/gDER2ky4WLu9v9P7CMG2JU0QG0eoh+DJ3ONIAAD2WAOsBcmeaNQo8mM4oQSAA5Mggus3ywPPP5/5ANxivwdj0jW4VDvNcdS9A52l63W2rdaPmCA2iBEld8QcsccaUOypNo0kP8YUWgA4OAkiuOMJOQa32C/zhRrEmLQNrpHKlLhloMf76p8IldLaW26AGCAWiAkc8wP/9U35agAxR+z11nSLRpMfI6tLAOggCSLAOPqGsjm/ov4U7leU8buuwW7+qt/r8Qr5FSqjs7W1H3NHDBALSo6ILVzk/2RuOEu7J0BxesSmGeTHVdctAHSSGBFsyt7pKLUSQhrBuHQNkl+RbvN23rjswEk6W9v680sOnIy5IwbE3ABTfwVc6bmLaE82axb5McBIBICOkiKCNcPZbWWh3gdbK+pLF+dk3NTegYtG52IerdAw11RHag/keg4lX8QSMc0VOkgvLFF8Vm2aSX6MITIBoLOkiCA/lP1ZxZML4DKp9kE+jBsOfN8m2/w9/d0lfALV6jae4zR/L+ZMSRSebPiFPCjnI6YU+yA2zSY/xhqpANBhYkTwkPufI4cOLYSt16MYl7ZJcaIjxcPjsxpojc00wNwwRyD/CZQMELviwbFze7e6/0WxD2KTBPJjvJELAJ2GEUGUj1JjDNhueXDmay+Puu+HQv794SXa/114nuV+2CWcqLU0zABJP56bZsaGalqIGWKHGFaXRfWZFPJjPrEIAB0HFQE8xhzpSzUYA7bbt8mDuYL7IV+Jvzq8pPb/QBTExMbLo6kjudUGAHorvvgSYobYaY0DGiSJ/Bh6bAJA50FFEPWj1BjD4SZVXyFzLZwTfAa2gn51KX8ejQBio3xxzdrhzHVwZgRfo21JIz9mF6sAcAXJEYEQvYXMbbAV/CCERZ15AlNoleYhNrnhzO1xJJxE8mOesQsAV5IoEQxlCnA49MeweXsFY+MGCCjxf4hJL2ATBx5JJT/m2hAB4IqqIoA/tS9H47FqfIdDcNe4kNkrDjl4mfQ/MLZWbrAheFaNOQvHMYkBiCSTH9NtmABwZSiCUlEtgj+bLoLcA+3PlIuVBXC14x8xthZt4zM2IBZx5J908mPODRUArjBJIsjvmPFypewugrPiLRhbKzXMOeoZGybiZwL5Md6GCwBXWhUBbH2101bEfTiEsxY8NeR2+0p+HWMjtBG/Uj5EsGusyaHxmOB5HX3DGRsw5yhnbJi4VlPIjzE3RQC44uo5QRJEgLMX9BXcq+AC6WqI55hz2MDyMhDnG+VRf24cN4cQk3paftes10tl/wyMEWM9li/MDS5zfjbqGRsmrssk8mPcsIFtbrvpwuKpbkbuhPlm3q6LBK9TSyWv6C249+hsw/bnF6m0ON77/bRS7/J9caqTdip+RTzv+/6OqN98Chujbtyai0pvbW+TS2Aq+dl+2U85jnjJd+Q/PbXRfTzKqUomx2Ea+TH+pgsAg0ARZLJyF/w5D7/Xao0QQa31c9+xETCR/JhJIgSAgbAIEAUzm6nkR7QTIwAMhkWAKJjVTCY/Ip0oAWBALAJEwYxmOvkR5cQJAINiESAKyW42kB8RTqQAMDAWAaKQzGYL+RHdxAoAgwsqAqXk5XA9/zs4lls8CNhEfkQo0QLAAFkEiEIymm3kR1QTLwAMkkWAKDS32Uh+RNQIAWCgLAJEoTnNVvIjmsYIAINlESAKjW02kx+RNEoAGDCLAFFoTLOd/IiicQLAoFkEiEK8rRXIjwgaKQAMnEWAKMTTWoX8iJ6xAsDgWQSIQrStlciPyBktAEyARYAoRNNajfyImvECwCRYBIhCfa0VyY+INe2VyPrKdfRofL0SfqhtMSwlzTYhpbq7v9u79GgvrfutVcmPFbdiD1ClLv62Lfy85074rn2zrDqGP+kIwDvF+7ySWowbHPqoZFtaJQCEmkUQD+FsJD8iZZ0AMCkWAaIQXbOV/IiQlQLAxFgEiEL9zWbyIzrWCgCTYxEgCuGb7eRHZKwWACbIIkAUgrdWID+iYr0AMEkWAaJAb61CfkSkJQSAibIIEAV9ayXy69FgC0aAEWAEGAFGgBFgBBgBRoARYAQYAUaAEWAEGAFGgBFgBBgBRoARMBmB/wfImyVTJZ+iOAAAAABJRU5ErkJggg==;" vertex="1" parent="1">
          <mxGeometry x="-80" y="320.9" width="70" height="70" as="geometry" />
        </mxCell>
        <mxCell id="ziRwayuzQX1U7kPAkTH5-12" value="" style="shape=image;verticalLabelPosition=bottom;labelBackgroundColor=default;verticalAlign=top;aspect=fixed;imageAspect=0;image=data:image/png,iVBORw0KGgoAAAANSUhEUgAAAMAAAADACAYAAABS3GwHAAABdWlDQ1BrQ0dDb2xvclNwYWNlRGlzcGxheVAzAAAokXWQvUvDUBTFT6tS0DqIDh0cMolD1NIKdnFoKxRFMFQFq1OafgltfCQpUnETVyn4H1jBWXCwiFRwcXAQRAcR3Zw6KbhoeN6XVNoi3sfl/Ticc7lcwBtQGSv2AijplpFMxKS11Lrke4OHnlOqZrKooiwK/v276/PR9d5PiFlNu3YQ2U9cl84ul3aeAlN//V3Vn8maGv3f1EGNGRbgkYmVbYsJ3iUeMWgp4qrgvMvHgtMunzuelWSc+JZY0gpqhrhJLKc79HwHl4plrbWD2N6f1VeXxRzqUcxhEyYYilBRgQQF4X/8044/ji1yV2BQLo8CLMpESRETssTz0KFhEjJxCEHqkLhz634PrfvJbW3vFZhtcM4v2tpCAzidoZPV29p4BBgaAG7qTDVUR+qh9uZywPsJMJgChu8os2HmwiF3e38M6Hvh/GMM8B0CdpXzryPO7RqFn4Er/QcXKWq8UwZBywAAADhlWElmTU0AKgAAAAgAAYdpAAQAAAABAAAAGgAAAAAAAqACAAQAAAABAAAAwKADAAQAAAABAAAAwAAAAABu8xvwAAAm50lEQVR4Ae19CXwcxZlvVfeMZlqSb3MuYTGHIWCcvIVswpLdcDgkNvEhCXDIbx8hG0wSsEnCkQSw5LFlcyQhEBxICM7jwW6WGGPJNocXJyZ+WRM/smsIZiEBAmh3ARPAB1iabknTXfuvkcaWJXVV9Uz3qGdUbcTM9PdV1Vf/+r46vroI0Y9GQCOgEdAIaAQ0AhoBjYBGQCOgEdAIaAQ0AhoBjYBGQCOgEdAIaAQ0AtWKAK3WjJU/X4xmZnUdZqSMKYyRYyijU0yDHckomcw8NomYdDJxyURikDRArwFPDaUk1S9nDz67GSE9xCMOMclu6pFdhJL38H6X59I38dlBDPa6k2UdNz1R+zYhFOz6KRUBbQBFIJiZzWoTSed0z2PTKaXToYvTEc00gFlXRHSBg0Dzu5DWCzCCHTCuHYzSHVZX+t+v20S7Akc2ygNoA1BQgGtmfzB5fDJxFvPImQDsk6iZP4raO6EQtGwsaFFyhkGeQwuyNUfIU47jbrl545h3yyZAhSakDWCYgssQZhhN9scoYzMpoTNR454OoIxhWGP7CjJ7hJHtaCE2eibdSNqs32UIOlb6OQgBbQD74UAfvsE5M0nZRR4jF6KGP3w/qRq+MPJnFPbDrkdXt6xPb9VjiL5CHfUGkJnlTDVT3mXo1lwMMI6qBl2X5oGRNz2DPEh7jVXNG9IvSfmrmGFUGkDmLJamE5wmg7AFqOk/VcXlK80axg6/YYze6+1NP5zZQh1pgCpjGFUGcP25H0yqHZe8ghC2EBk/tMrKsqTswBDeJYzetdftveu2R8Zy9+uoeEaFAbTOtqeQJLmOEnYpStWKrGQZfPmUvcaY0WFQ9jqUqgPzAW9T4r3XS+gu0mu8R3p7O0lPruf97vHdb2yD3x/PUWeQmnGpvSlSk6ghyWS9kXInmR6Z7BJjEmHscMMkUxihx2BcOwVKOgWtVhrBonpsj9H7vR76vcxj6deiSiQu8Va1Adx4XvZDVj1djBr/SwA8GSrojH1AqLENSrnddekOwzB37GiveXkNoW6o6QyK7ELCzOkNPVM9z52OLtyp1DROh8fnEzDucYNYS/rJ3aoYKN/n5sjyzCPWf5UUWYwDV6UBXD9z3yH1ltmMQrwcg9vCbGtpxQCFRy38K7gVN2NG9imvve75uLgVuds22dQ1DTPGZzKDngvX7YywDALG1WMwcm9vl7sss2nMO6WBGL/QVWUAl5/GkkcfbS/CzGhLGAoAA3oFk19rDfjRc7vTv8UgEbVi/B8M8hPGOOcMtHyz0H1qhMRTS5YaFYDn0VbvT9admRdovutWcpwxiKBqDKB1btcsatLbQyjsDqzfWd1D2OrWtXXPxqCMShYhM6vzo0bSmE9NMh8FPqWUCHmlAMO6urm97tFS4olL2Io3gMx5+w5N1Jt3AtD5xYLKm3nMmq4jhnFv89rU5uqdJGJ06TznHCzSW4A8N6Dwa4rFDHitybreops21P+56DhiELCiDWDZPPtSw2C3AceJRWK5k3l0ZbY7t2q0rZvh65vG1SQvMxi7CtgdUQx+aA32YFx0bUu79X+KCR+HMBVpALzWN+sT96GfP6soEBl9ATXgbe7L6Z9XU3+2GCwyp7Aa4wTnC9Qg1wDPacXEgYm0f7Fd99JKbA0qzgB4Xx9r66H8wSeyGGF/QI2faVlnranebk4xKszDoHvUYF8AI8gYlJ4cNBa0Blh5yv6h0sYGFWMAvKZKnmh/HzX3osCFQ8jr1KNLcutQ4+sVkUL4MnCp0gbnYpOwZXAhHytkHoaIbTp39b5sXV0pLWtFGEBmTteRZoI+DGHh2gv0dMI3frP3fvoHo3GdSyCkBjEvmslSh9Q638QY4UaQ6geRhT9RST3t9JCmFY/W8p1ssX5ibwDLG+2/w3KAh1AbHRYESTTJ/2Rn2bdueqJuZ5BwmvdgBOBCPdxM0Vux8+2SgyniXzCCd4hH5zevs7aIOUeWGmsDaG3oWoC++t1Y+xJk91UH84yvNK9LbxpZaKsr9aUNzqcN6t0DhZmimjNUQjnisYXN6+vuUQ1Tbr6Y7nJidNnc7M2odX6qrPwY4XoeuSPVaU3Tyh++Gi1pT//S7bWmYbPQD1C7K+0s42WHycmfLG/M3soH2eFLVXqMsROK9z0Ps+z7kTX1iS1s8HAZ/eKSdRYmsfQTNQJLG+2zsRDvASjPUcppYeIst8e6JG5jsVgZwPfOY3VObXYdNegMVWDRzLbtzvYuuP2JcbtVw2i+0hH4zvl7J9TV1PAW+gLV2FBWT6a7rDlxOr0iNgbw7Rm7x9WPST8GQM9UAZT3L+Fyu27xuto7VPg1TzQILG/IXoUu0W2qXVXwbuv8wJl5668mvh+NRMFijYUB8J1a9eMTT0CpT1MSHxu8CaUXLW6zfqPEr5kiRSDTYH8S8wZrYARqBwl45Nk9bu68OOw8G3EDyMxkY5O19pOqyg++Z1yXzc5sqHsr0lLVkQdCgM/VJJN0g2o5Yhj97L5O5+yRbglG1ADyff46+wnVbg+26j2GE9Dmx6kPGUhLqpyZl6ddbz8I1+Jslazy7lC60/r0SJbniBkA9/Ycmso+GmDAe/dzbdZVUW85VCk4zeOPAN+y+ZFGm4/LFvpzHaCgxXjS3WOdP1LeoRGaB2CUuzpVlR9HnC1f3FZ7pVb+A4oT12+8jFBWizwXa4kUHrT+5yQm2A+M1DzBiBjAsrn2TcBGyc/PXPKdlra6ZgUsNUuMEGhZX7cEtfu3lESi5MLWBhuTZeV/yt4F4ssb+AyvUlYZ+fri9lq+20s/FYrAsnnZhTi0d6WK+MxlXy33somyGgBf2MYY26ziM+Y1f/P62hGpFVQKS/OoI9DakL0OZf5dWQi0GDmsmPh0ORfQlc0AuJssYdJnVFZ18j6/7vbI1KWy6Mvmdi3F6RotMqnhGXrHtclpmY21b8h4w6CXZQzAN7Pw9fwqyo9M3a2VP4yijVccfEwAiX4kkwo18qGmRR7mOiPjDYNeFgPgO7mQMelmFu7n567OMDKm44gfArk26+tYRvqITDLoyseTU+0fyPjCoEduAHwPL5o16TZG9P+e4ZNc2tUZRrHGMw6+HdXqtC7GeGC7TEIsnr4SDpPPyfhKpUc6Bug7vcF8njdrQkGxtifnsr/SyxuEKFUN8YbPdB1h1dJnYAjCtUOoFN91u73pmcfrcSlgNE+kLUDf0SVi5c+P/LGwTSt/NAUcx1j5NlWX0AvzZS8QEAZyiJky7xOwlEyKzAD4oVUq5/bklzTrVZ0lF2SlRZBpt7aiZ3CNTG5K2Wdb59lflvEVS4+kC3TDnM7DahPGixBKeGIbaoC25vbapmKF1+EqHwHMEfBl1MJNNdCTPegKnRxFVyiSFsAyDT57K1R+nC35Jt/JVflFqHNQCgJdPT2Xw0ki9PnDQCaYKUNpNjmoLKEbQP6UZkouEgqCDex8D6/exihEaVQQb3ls/B6P0EtgBMKN9ryViMIrFKoB8PP5+48oFxYeThb4od7ALoRoVBGXtFm/RjdHurUVa8huD3uCLFQD4JdToOSmSkqvw8pauLZIPxqBAwh4OasZ3eLXDrwZ9tvxxvF2qBOloQ2C+bVEtVbiFXh+hHdV4dCqz+hze4Yt3FH/srXJmUGZ90shELipJtflnRDWdU2htQD8Ti6p8uO4Qq38wuId1cTmtelfYbXwA0IQKB2brDOli+qEcQwghmIA/DZG9OEuHxDvcF87+VmdwxH0O41AAQG3m30burSv8Hu4T4+SBZnZ9tHD0YK+C8UA8leRSm5j5Kc064NqgxbP6OPP+/o9skKUc/TbaxJJEsouwZLHAPwSappkL0HgpJ/QcHG9/o5tfXjlRtrtxyN6j400OFyVyVqYg6Pov9bU7Tauzzyefvlgov4VZwTyx2Om7RexfP5YPznRSuSIY5zUvDH9qh+PyvvSWwDcwI6EfJWfC4FbWVqKVX6VTAzLg74ifMeNibT3dGaWI/NMDRuFfjkyCHBdwZWswhoeZZsgFuO6V9JTkgHwi9Yw8L1UJAG/lshbl/5nEU/EtPFGyrsl4jR09CEj4K1P/8JjjC+n8X8Y+yL3PvozyCklGcCEmuQVSMISJcPv5Brpa4nQz1M+bFeUF00rHwJcZzDxtUSUIlqBdK1lXCnikdGKNgDcRp6Gy0qcOG5j7LuQTiZGtHQANSbaFHTsUSDQ3GatxRmwz4vipoxeyXVRxCOiFW0AdILThJr1UFHkGPzehhte8BGHJ54XNMQBmfjKAN3xuA4JHkomJ8Y7Fwo4hKSiDQAXJMhWcu7k9/AKU9dEjYAEgdzL6Qfh8XlLxMaoVBd9gyd8KQIC96pQ6n1KwMI9Pysr5arM1s85J5AkBsqUniubzRblWdPECORdl4S8ijU/P8bZP1gyL+8dcB1qPT57JzGJryMDXdy/zTR1n5RZm/qjWIKh1KIMwEx5lw2N6sAb9Hl6st25VQfelPYN9wB8Bc7Ur4piwVyBcDmtX9h+5X8aIE5AGn5s+n0ICABjrm8nwr9/x7IG56SWdvI1lWiznblVdWMTSxEu5cdPXZfr5LV+dL/3RXSBGPJBvuAXYf49I+tu3jgGN4eH+fDaQvRXZFqo+fuUv8jwOlhRCBiUfRVXsH5UJfDNm8fuQuG3i3gNSi7O4JJvEc9wtMABMg3OmbDEvxgusv3vDOPe/d9j/gVdnhkxF7FqxTOSRgDsqVCnUIkdmWh0PhkUrMAGkKBMdqpzR/Pa1OaggowYP2aMRyztUZ4wNrwrY9/cnv61fL+AVDeHIB7IAHgTg4GMcAOz55JfqAxuhkiiX2gEhAhQBm/PaiELI038gg4hzyBiIAMgjfZfo6kRHmbUm2APDUpD/9QIhIIAJl7FBkDJYafMtT8eJLFABoCbAD8rihytwyuta+ueFfFomkagWARa2uufg47xlce+j4lzhHyJwxC4W0r5oYTOFDEzj6wV0SuRBhdsoEqiEvMYlczLmxzs82VLw4wf4wboGL3BP868jirvGFMuXL7yE66o0/0TJgTnv28U0SuXJnK/apqfexq1degTKzlmCHUMXfTT+Jm0qrqmbABjE4mz4f/35WeEvp/bnf6tasKar/oRgDJCZcJ9XmhPb0OMe31jRZrUMs/2pQ8i+Cr0ID4+hXfm4HcDf8PYf4WrLnMD3+nvoxuBKFqA/PH5jPxShGzCFOvqwLDKBoDDrIQGQFz25MCI9XeNQBQtQB+qYl2T6uqAolEyAH4DOBoz4bS1mWBbB8Srv2oEMP4NfwzAYc31eEJdg+F9BHsE6lWKQMkL1F3vnIbOnD8vNqD3ttX9h0qC1cvD6PIGexFGfXyX3HEoBH+8KgAEKC/vzgZauTk4W/kWIPRhMFJ5rP5FzEnxccD4wWn2/zbN8Q532Gzxoe9/rdQCMI99ZH+I4b5QY1sGW9iGI42Wdysa7JVoJX+IQj+x0pWflxnPQz4vRn7l5t1xKkeua7hPjg+GBY9EZ/tDKhkA0DhVkBJI3nYxvbqpy+Z2nsrvtKrWXAZZuVk2DKhE5wwm0dk+SRUNgE0XZcx16Q4Rvdpp1AiyqrEy0Qi2cjP6PGJhkFjnGBXqbEFCBQPI76WdVggw3KdhmGJhhgtUTe9Y9a8oDbJysxxFa7iGTOdOwQYn6TyE1AAys7oOQyx1vplipHtHe40+ec0XIE2IAoEdG1J/Qry2X9wYv9Rm5mSP8KMX3ksNwEgZUwrMw31iiepr+m7f4ZDR76Jyg3Jk+ybE6GsilI0EFeouDys1AOKJI2HM6BAJoWkagagQgNuxQxi3RHd5WBVf9TGiROAheF1E1zT4yFy2rGV9baYULDDHgKt18c/nea7NSqyR3LPlEzT/OpqVm5A3inmA/ozIdA+1+zGiPHOatAUwTPYXokjQzHWI6JpWQKDUVaOFeIb/5CM+v1WZau+HjzfOb1EbdIjkwz0CQt3lYaUGAJ5JokTgjtopomtaOAjAnxFhXQrriWDZQhRxDkQT7neh7uHwNqHu8rjkBsDI5IGJDv5uEm/X4Hf6t0agHAiwhCvTPaHuchmlBoCTVoRW5BrkvXJkVqehERiMAHWpUPfQZAp1l8cnNQDiim9897pNmRUOllv/LgIBjCB8B8BFRDckCPzmoccfRZwDBfccQ6x7VKy7PC65ARgkPTDRId97ezuHvNMvQkdAjwGGQrovKdY9VBpi3UWUUgNAtVAzNOkBb3pyPQN+6a8agbIhMCY3RqJ7TKy7kFRqAOBJiXL0fvf4oi6+E8WpaRoBFQTQ/5HoHhXqLk9DxQCEVvTGNiKxQpWsaB6NQHAEVm6U6p5Qd3mKKgYQXDIdInQE9CA4dEjzEaoYgLCGP+oMyRghGrlHXax6EDy0yBfNlOqeUHd5jCoGIOxnjUvtlfazhoqu32gESkcATn6J7jGh7nIJpAaAyQSxFdUkpP2s0rOqY9AIDEVgX2KfRPeoWHcRpdQAcEufMzTpAW+SSaXjJwaE0F+LQECPAYaCNqZXrHvoNop1F1HKDcAku4cmfeCNkXKl080HuPW3YhHQY4ChyBlpT6x7TKy7PEbpfgAcdrJLNElueuLFckPFHn1vqEH/rrXRbi4l51gMKqysEk3O4lZmF79ilLGzROVcjOz5pRDFSyRNkplssmjbLyZxxUslkILUAACKcMGRSwyxFUqzUf0MUISzsOAYfxE+OIa8pMU8JQUePl98OXQE0e5PjObMScQUWphQd3lEwlqlPyWxFTEmvDFmv7T6y6hDIOrFcIYh1j2PULHuokSkBuC59E1RyRkmmSKia9roRSDqDTHonQh1z2BEqLu8ZKQGAJ4Ozuj3YJXuMX60UfPezJ+jWdXZpaYR+Oj7qFsA7JET6p500zxKTG4AhmzTuye0wqrWiv7M4ezUV6s9n66Hg3Jj91Cx7kl1V8EAnCzrEOab0SlBr6YUxleBRKvLegS1kbS5rcCsFUTeyfak1xd+xOEzw71ilB0rksXLySpvBQO46YnatzHO7vJLCM1cenpDz1Q/+mh4f90m2uUxNhd93reqML87c5TNwe0/sdr4ZM7pPgFYWwK87cyG2p0Cep4kd4PCzCjJvgDuv/aLzPNcfhDpH/zoo+F9y7q67bhIZGq2zplnGuQ45noK2MYXGd7n590eXvPHTfk5ap7pTRfdiI3K6D/6joMRY6xYSPwkXuZrADh+4lQkI77EWCxHVVB5S4CM/LwqMhNCJqKcBzAYdA7dD78HE4fP+9EGvpcPgsGNQZ7wJF7UFqcPjFR/1whwBKL0AjEq1jnp8en9RaRkAJjKf05UpBgjfCI/KBExaZpGIDQEoP6UnSGOTqyzhbBKBpDqTG9Hc+brB0ZzMy7Z1DWtEKn+1AhwBHgXKAokMud34iRI3/vBeJKuuzf97yppKxlAvm/LyO9FEWLGWHyNqiiwplUlAlF1gcyEIdQ1GN5zqgN3xUEw/KWUPAVz9u3rM4Oei1L8cbWVJD81mfWvsqQe2+cxb3PL+nqlAVYUWGTO3zfNTJrnokDGFhN/KXn45hnMmnCYPRtL3I6nJhE5YfKiYez4KcE4tRjx82HQ/+G65vtwXfUlDiIoGwD6P08hx18fFH7/TxwsNgN3syaq7rb4gass0V4a+LeiIXvXje3WIhU3236ASv7C6IpG+4eohJAuf4rsXfTnYXlj9u7FbdZC1TxkZnV+NJG2NyDhDymn7e+kyeegmP/lJ12p/WlR2JyrbgBKXSCemOO4WwC571WofBxgjHMkAxOR2JVDw8TIla3z7KvKKfGyefaVB5Q/lJSvWD7P9q3QBqbAa/5E2uhX/oGU8n8/tdH+BFL1ux+Y2yYabPfXqpIpG8DNG8e8i8i3iyNms8T06qFSI38hdtkyhGb9yrATgyHzS72lT77bk6/5payRM2DOSahjKJdnMpvGvKMqiLIB8AjRp9soihhLoxtF9DjSRN4tkbyojY8X0UOnUXJcNHHCDGQP+vwylmLoxawwxfhDqGMuE+voYDkDGYBnUqEBIPKpvK84OJGY/y5qlSO0BtgpKE9YmWcKu/cCpsXzkMEgQBbMSISfNk8z6ArTFU2d0yHtSSJ54Y2U6ehBwQMZAGmzfoca8+2DYhj0Axcqzx/0KtY/cdrCT2ItYPUKF3iFKWZ3hbqFVvmdF9ZbTweBLJABZAj1EGCtKAG4xyBkGWtGkTAKtMXrrB96jGojUMAqRJYiVpjiQl4iNgA0ZQ8HvbJX2Q1ayLzr0dW4OM93QAYhpiyd55yzZB3ZXAgT70/KWtrJ19B1uwet14yBN6LD39wcb9kPSOcRthwneKASPPgpRx7QK/hX+F62HJzy0F+lrDBd2uicBd0SjoNQkT00NFXxm8AG0LI+vRVXdr6JvpjvDXymwRYg2QoxgD6AMo/X85nug2a74SuPjQGgTeXNKv4b/vHaapfwFnowtbUxeyMCBWrpB8cBBRc36VD+5nV1LYPDhfnbZNAp39znU9rptaf/NWiaRQBDGfpBD4oSQjXUcM3sDyaLeDQtGALFngxXbLiB0kW1pGFgGqLv15/7AT96R+j98Rh5cLgKQBQvpwVuAXgg2musIgnvWv59uAeGWjOuJnkZaLcMR6+WdzjsChPk2XJlR1z/FSmF2Wj3tsrywMSHchWZtHIwa0ziy6j9hQfhUmKuUo5wAGMRLQAhzRvSL6FZ/M2AeIZ8xYaFqzKnyK+oGRKwgl7wrkW5/oqFhXedRGFV5BeFj5p2+WksCZDFs+6MbG1uT/2hGFmKMgCeEFxS90oSPMI4wfmChEeTNQJCBI462rlYNN7kgXEAlkwXfdMo2gC8vemH0Qq86xszCJiWvqaSXKKivFQqLYwxwMjlnWH4waBDgoeR9/a8nV4j4BCSijYArPp04Bu4SxQ7hJ+2tMG+QMQTaxpjH8Ravn7h0Mfp8hsAQoUizwN6A5GksXSe3QgL4Acu+D6ex+6+fRu1fRkkhKINgMe71+3lBiBMHEaQyUhONpbIOGJkNK0V4crFEYD+cjLmTwsJ2d5E+GlwnTEpXSoSET0Qx7M9YSUsCs9pJRnAbY+MfQ+TD/eLEjEoPZk2oB9XgQ91jesh9t44i47Z0fd7DfPbfjK63VHngf60dW3ds37pF/uezrPn40SeU0ThKaUPBFn5OVxccAKU9mTOd441a7yX0FT5u1QZee3PjnXyyo20u5jU4G7EUoX85JpvcO7N8CWCgM0foKNHHPBpneOcyEzvVngizkXQ+oDBI2Pn3R5e83Plz6xN/VGUEM+DkfBuQZgZYeQB8XjA+zX4l36ca7fu8Ot+iWQS0bj30DzRfhFp+M78ovbPua7x4cyG9J9Ecclo/korC9lPzzyWfq21wb5PqKCUHHtIrfNNBClqXgBA4D+xgiuKG5iNu3wRaB4PGKeuXBCl689DQ1h5yKCwi6lMePoqj3GC/Q2R8ufjoOz+UpWfx1OyAfBInC7Wmq4nX4TQvpeWYV7gRqy3+b9YciBcTcrji+sTROl0HopD4IY5nYehN7FYFBrW10Mdo1XEo0oTdhtUI1mxqfa/ofw/lfDXmyl6q4RHk0c5ArUJegsMYIwYBvqzxY9b/ynmUaOGYgA8qVyn28oHZKJkMWi5pLXJ4f3Qcj+dUTbZ5c5MtaaHrvQ5KKdLhfmDa9rOuUuFPAGIoRkAH41jv6a0WaKed09mNqsNIGPJrFgoFbkrsGQhR3kEfOM9fBSyXgSB13HFTRvq/xwWXKEZABeo9yVrJUbnrwiFw4DYSNhSQxHGEYDIWyXPML8TIIhmHQEEJhxpL0M32tfrw0VC3/9V7xXrjjDFC9UAMi/QHpzZyL09wgd9vG8sbbTPFjKVSARYOLOfrHep8QmZm7DEpHTwEhFY1mB/Cg7qq2XRuIRdzXVMxheEDqML/1nekH0IjssLRTFDQd/o6u6Zfstj4/eI+PpojGbQOZTzHeCoBo/NgdxU77fMWXvGJyamdiCHHxLlEjt91ra01Ya+rCYUN+hgwbOut8gy+fZCMmEwrfAb2nxUXU0N7/MJDaWPn7JMvgUshNaf1YKAOSF1D/IiVH7Q98LV3n8iXrg5D7ULVBCND1LQ97628NvvEwZyAVoL8Vpvv8D6fcUjsGxediF04CJZRjyXXXfTE3XS645k8QxHD9StGC4C0Tv07R7HmGCmiAe03hyj52Tara0SPk2uIgQyc7N/kzDJFmQpKc4WfWJxWxo6FHwZizjePmokLUAhYcd1vyTbMwDepEnYmhs+03VEIZz+rG4EsCLgcCj/w7zshTnFWv+c414alfLztCM1gD5/LfsHYSZBRDN4eF09fQSXzNXJeDW9shHgc0BmKn/QrrTCw+2UX4566UykBsCLqrm97lE0XtI122gpTrPr7QfjtOCsslUtftLzssUc0D+jwvuYTDqMIX+caavbIOMrlR65AXABe1+2robb82mZsBBmdgJn4Mv4NL0yETDm2rdjWflcBel/946dls4nKcQjZSmLAfDJC6eHNMEIVI6tXtja2JWRSq4ZKgqB5U12C04Pl3r8+JjR7iQXFLt3JCgoZTEALtSKR2vfxDaK+cggztIRP7htZsmyuVmpG1Uci6bGBQG4uq/GMSJLFeRxMSL8PF9drMAbCkvZDIBL27zO2oLVTLiWR/6gtvhea0PXlXJOzRFnBFrndX0Nc/i3qcgIf/9Vze3Wkyq8YfGU1QC40M3r6/jM33dVMoDl0z/SLYEKUvHk4TU/Due9W0U63BVwW8v6OiVelfhUeSKdCPMXglEcsLtatl6oEB5nsy5tbqvLFH7rz/gjwPv8it0efvEc1vlYWBITzWSXCK2ytwB9wlCW22NdgvGAUnPHxwQrGrN3ahepqCjjQeNlhFs071BVfujAFm+39fcjofwcsRFqAfoKi098OfX2LyHEGSrFh/phQ2/OujjzCM2q8Gue8iLAJ7mSSfvn8PblDxGQpc5d4+5ua4bqpday+Iqhj1AL0Ccqv4G+8wNnJtrAZ1WEx0Gvc0zT/n962YQKWuXl4csbzIS9RVn5Kfm9u7v7syOp/ByhEW0BCkXE7xKYYCY2YWHG/yq8k3zuxAK6i/QCOglKZSLzhW2mQdZghvdIlSRRkf0+m3XPy1+9qxIgQp4RbQEK+eInzO3rdM5G7bGt8E7yeUSCsidb52UjWSMuSVuTByDAXdV8Vaey8vNuz67us+Og/DwbsWgBCnhmzmL15gR7PcA8p/BO+snIms6enq+o7SyTxqYZFBHgO7n4ZhaU1UWKQTAuJlvcPdbske72DJQ3VgbABYMRpBMT7AdUXaQ8DFqONzDL/L/zE238hX4iRYDv4cU+j39EIrKdXPvl4K5O7u2B8jv7X8bgS+wMoA8TRnFGzK2oXa5TxQhG4HkeuZ25Vov2EqmiFoyPH10y8XB7KSqna6A4yt1nPsm1ZJ2Fsiy/n1+Ww5gaQJ/Yyxu6vorNAj/CL1OWkf10HMTrMno5AN+8/53+UjIC+UOrcG4PFOa4AJG5fHnDSMzwqsoYawPgmWidZ59FDLYagh6qminOxxi73+1m34l6Q0UQmSqRl5/VaZn0ZixL+VIQ+dHffxc1/ufLvbYniIycN/YGwIXMzMweZVrkYQj7cf5b9UEh7MMcw4p3eqw7yrW8VlW2uPPljyifan8dF5wsRis8Noi8wP3fnC7SVM5VnUHkG8hbEQbABeYFkjjRvh1frxiYAZXvGB+8ylza4q1P/yIzzGXSKnGMFh6+lMFosC/CxpVW5Pn4oPnG0YU/eddJf6NSKpyKMYBCQSyf2zWbGfRnGCAfUnin/MnoCy5jSzA+aIvjgEw5H5Ew5h0PDajtl/K73QIngQ3s6Hhetri9bn3gsCMYoOIMgGOVn3ZPmfdRyj5bFHaUPg+P0fff+K/0gz/dTnuLiqNKAvF7eI/+kPN5Rtm1qFSmF5MtjLc22VlyaVRn9xQjk2qYijSAQuYwQP4yNdj38Xt84V2gT0bexPmhd9r7cj+7efPYXYHCVjjzNz/z/sSJtUl+A/tVUIKjiszOXij/t5rba1dVaota0QbAC62vNTBWovYq/txIRroRVZtL6b1L2tJbKrUwOR6yp9+rtgAe+SYof0rG70fHQLfNzrKFlVjrD8xTxRtAITN8bEBM+gP8DjxwK8TBP/mAGX3g1eherb5xbT0/tLXin2VzO0/Fnor5wOfzKPAgfvwheef45E9pLsORJUMSj+BF1RgAx6YU192w2DLyR+axtcykG59vs/7/GkKxaTv+z4WEmafMtT9umGwmCrgJyv/hUqXmLmX8Lefn84d9RHmpspUSvqoMoABE5rx9hybqzSWorS5DBn0v7ivwK36iv0s2YVP/k8zztrY8Uv9ifLpKjC6b3XmyaRpnwkN2DuQ8D13CCYr5krH14pCqVfxaojBvZpElWi56VRpAAbzls+y/JGmyGAO1S6EQYR8FvxeK8VusQNpODLrDdYwd5PHUnzIRzzNwPz2Z1X08rfFOpYxNJ4ZxGrpsfxOiwufhgxHlEO8DOdtozfyL1VHAtNo+q9oACoXVOtM5jlrsWzCES6Ao6cL7CD5tGMWrUMwOpPM6lKjDZWSnQYxdruG+l3CMXV3dvZ3j68b02K+S7kJXgnfdMKtR023uS9WlkvW5tDfJ9MzJHvEmYULqcPxNQd/rGHRlpkApeR/eikD2fJSQGas16T+6Lv1uGPfwRiVnWPGOCgMogHX9zH2HWDXGQsOgV8ADMrnwXn/mB/+70L272816P+IXHo4WTEaVARQKlS/rnXC4cyFutVwAQ/hk4f1o/ESN/xRalnt3vZ1+6PZt1B5tGIxKAxhYyJmm7pMMz12AbsbFeH/EQFq1fofSv40NKg8mE+aqG9akMJgfvc+oN4BC0fPBpdHg/C367vPRIYDrMNjy60I8cf2E0r+L8claTICtdtelfxP1YD2uOAyWSxvAYETwe6Af3aR0JvPIX6GrVFlY4Tg9uIGfRb9+Y6XNYwxTJJG9qqxCjQwGccR8XoFa5tmmifGCR87EZkC+aMwUhyo7FRvhyPOGR56Cx2ir43q/rka/fdioagMoAlF+egWd6HzM8Nh0LJmYzhidTg1yCqKKzD05SEwbXbUXPY/toIzuYJTuqHHT//btDXTfID79U4KANgAJQKpkPobo/Zx9RDJJpxgMPnuDTEEf5Ej47bm7dTJOSZ6E7shE1NJpLDiqQYcqBfDzs9ToqvTgew8+u9FHdzCxthtLMPjq1PewPn8XlP0t4pLXMTP1OnFYB9lovaX78Kolo/k0AhoBjYBGQCOgEdAIaAQ0AhoBjYBGQCOgEdAIaAQ0AhoBjYBGQCOgERitCPwPBFnTxbjahX4AAAAASUVORK5CYII=;" vertex="1" parent="1">
          <mxGeometry x="200" y="325.90000000000003" width="60" height="60" as="geometry" />
        </mxCell>
        <mxCell id="ziRwayuzQX1U7kPAkTH5-15" value="" style="shape=image;verticalLabelPosition=bottom;labelBackgroundColor=default;verticalAlign=top;aspect=fixed;imageAspect=0;image=data:image/png,iVBORw0KGgoAAAANSUhEUgAAAKAAAACgCAYAAACLz2ctAAABdWlDQ1BrQ0dDb2xvclNwYWNlRGlzcGxheVAzAAAokXWQvUvDUBTFT6tS0DqIDh0cMolD1NIKdnFoKxRFMFQFq1OafgltfCQpUnETVyn4H1jBWXCwiFRwcXAQRAcR3Zw6KbhoeN6XVNoi3sfl/Ticc7lcwBtQGSv2AijplpFMxKS11Lrke4OHnlOqZrKooiwK/v276/PR9d5PiFlNu3YQ2U9cl84ul3aeAlN//V3Vn8maGv3f1EGNGRbgkYmVbYsJ3iUeMWgp4qrgvMvHgtMunzuelWSc+JZY0gpqhrhJLKc79HwHl4plrbWD2N6f1VeXxRzqUcxhEyYYilBRgQQF4X/8044/ji1yV2BQLo8CLMpESRETssTz0KFhEjJxCEHqkLhz634PrfvJbW3vFZhtcM4v2tpCAzidoZPV29p4BBgaAG7qTDVUR+qh9uZywPsJMJgChu8os2HmwiF3e38M6Hvh/GMM8B0CdpXzryPO7RqFn4Er/QcXKWq8UwZBywAAADhlWElmTU0AKgAAAAgAAYdpAAQAAAABAAAAGgAAAAAAAqACAAQAAAABAAAAoKADAAQAAAABAAAAoAAAAACEJDuzAAANCklEQVR4Ae2dCWwVxxnHP9v4fr6xsTHY+ADLHCYc5SYFEq7WKKQplUKaqEfapqhKq5YECVVVgaK2JKikUihpGxUkklYNJKiImIAghhiwwWDuwza+sMEH4APfNqazxu+9nfeeH5j47Q4z/5XMm292dueb//djj9nZHa/126c9ICxQwCQFvE2qF9VCgV4FACBAMFUBAGiq/KgcAIIBUxUAgKbKj8oBIBgwVQEAaKr8qBwAggFTFQCApsqPygEgGDBVAQBoqvyoHACCAVMVAICmyo/KASAYMFUBAGiq/KgcAIIBUxUAgKbKj8oBIBgwVQEAaKr8qBwAggFTFQCApsqPygEgGDBVAQBoqvyofAgk6F+BkKAwSoqdRLFR6RQVlkyRIYkU4BdCvr5B5O3lQ51dLdTR1UyNzVV0u7GUausLqaz6DEvf6n+nWMMpAAA5OYjCLVGUkbyExiVn0lAGnbsl0D+ctL9wywhKjJ1uK9rSVkeXy76g8yX76ObtEls+Es4KeOHLCA9FiR+aQnMyXqcxIxc4q/Q1cm7dvUw55z6gaxW5hE9QOAupPIDaEW/xtNWDDp6j1DX1VykrdyPdqC10XKW0rTSAM8e9RN+c9Cb5+gS4hKD7fidV3T5LZbfy2PVdEd1pukHNbY3U1dVOPQ96yM83gJ2CgykydARFs9N1QuxUShw2rfc60eUOWWZB0Sd04OR71Nnd1V8RpfKVBDDQP4iWz11HqfHPugx2ZV0BFRTupivlR9lNRofLMv1lent5UUr8ZJo4+gVKG7mQ3aw4dzTcbiyhXdmrqa6hqr/dKJOvHIAR7JS7ctE2dkeb4BTkippTlF3wPpXXXHFa9yQZkaExNDfjxzQh+QXyYmDqlw52B/3Jl7+k0lsX9NnKpZUCMDo8nl5d9AEFB0ZzgW5tv0sHTv2JLpQc4fIHyxgRnUrfnvk7iolI43Z5v6eLPjv6FjvSnuDyVTJ85i+P/70KDQ4LjqTXlnxIlqAYrrnlNSdp54GfU2Wd524Omlrv0rmi/1FQQBANHzrBVr/Wl5iW8By7zsyn+ns1tnyVEs4XKBK23t/Xn15ZuJVCHOA7W7ybdn7xJruxaPJ4q7t77tPnuVvY37reGxhrhT7evrRi3hYaFjHCmqXUrxIAZs5ey55kJHGBzbu8g/Ye28RgMLZ37vS1z2kPO+1qd9HWxc83mF6at5n8hvhZs5T5lR7ASaMX09jEJVxAL5TsYdd8W7k8I41LZTmsT3A9V2VU6ChaMuPXXJ4KhtQABgVY6Pmpq7k4Vt2+wI58f+byzDDOFGbRqSsfcVVPTHmR9SOmc3myG1ID+NyUVaxTONQWw/bOZvr0yBq632M//dlWmpA4mP8+Vd/lu3yWzvitU5eNCa4ZVqW0AGr9fRnJyzkhswveo4bmO1yemcZ9dmOy7zh/UxIdnkrjRs010y1D65YWwFkZPyBvbx+bmLUNhZR/ba/NFiVx804pnSvexbkzO+MnnC2zISWA2t3k+KRlXNy+OreNHhh8x8s54MbIOb+dXRZ020rEhI+hhBi+09q2UrKElACmJ85hXRqBtlA1NFfSlbJjNlu0hHZZcKV8P+dWRmomZ8tqSAng2KSlXLzOF+8Rfize2aI9nM/prOvI8fkxV0ASQzoAtdEoCTFTuPBcKjvI2SIaZdUXqbXdfoOk3b3HRiaK6Oqg+iQdgMPZyGbtyYJ1aWqtZu9oVFtNYX+169PS6jzOv1Gx/H8kbqUkhnQAxkSM5kJTXn2Ss0U2yqtPce4NixzD2TIa0gEYFcqfturqi5+auNU1lHC+RoamcLaMhnQAhofwo0ruNJU/NXG721TF+RphiedsGQ3pAAzws3Bxauto5GyRjbaOFs49P1++LdxKSQzpAPQdwgets7vtqQmV9oxaexHKugzx8SMfb+lCZG1e7690rfPx5t+11z9h4FouqKEN09cvPrrHifp8WdLSAShLYFRpBwBUJdKCthMAChoYVdwCgKpEWtB2AkBBA6OKWwBQlUgL2k4AKGhgVHELAKoSaUHbCQAFDYwqbgFAVSItaDsBoKCBUcUtAKhKpAVtJwAUNDCquAUAVYm0oO0EgIIGRhW3AKAqkRa0nQBQ0MCo4pZwHylPGT6RMmeto9DgOFVi4JF23mutpay8DWyGJrFfSxXuCAj4BodH7XvYy2b9YXB25sG9CAcgjnyDF+1A/zD2kSbfwduhB/YkHIAeaCN2KbAC/CtkAjq6Ycd0Ab0S16W3Vx4mf923ccT19KFnOAKKHiHJ/QOAkgdY9OYBQNEjJLl/AFDyAIvePAAoeoQk9w8ASh5g0ZsHAEWPkOT+AUDJAyx68wCg6BGS3D8AKHmARW8eABQ9QpL7J/yzYFH0j49OpZS46RQTmUaWwGg2i5E3tXc20e2G61Rec5pKqs5QN5v9EsvAFACAj9BrYsoCmp3xM9JmNHe1pMY/SzPG/ZDBeI/yr35Mxy9+RB1dHa6KIs+FAgDQhShaVjCbbX3F/E000mHar36Ks4mxQ2gOA/WZ0d+h3dm/oYraa/0VRb5OAVwD6sSwJqPD4+n1zJ2PDZ91O+1XOz1/f/GHpB05sTxaARwBHTSyBIbSKwv/RiFBw7g12vQJRZVfUnHlV2zW9are6RS0Ye+j4r5BYxMXU1BAlK28j7cvZc7eSC3tq6i4qsCWj4SzAgBQp4k2PeqK+e84wVdUmU378zYx8OyzWT7crJjN83ucDuVvpVnjV7JrxTfIm92caIv2++Kz79I/936P6p22e7g1/mU6QQS7ApPHLKUR0c/YM1gq99K/6D+H1riAz16ss7uLss/uoP8e/gWb+dw+z4c2a9OiaavtBZFyUgAA9kmiHf3mTPgpJ9DVioN0MH8bl+fOKKo8zY6UG7kiY0YuoGER/Px1XAHFDQDYB0BS3ATuXeQuNsXX/rx3BozHmcIsqqw7y203MXUZZ8OwKwAA+7RIGT7TrgpLXS7LonutTzbRYe6lHdy+UlhfIRbXCgDAPl1io9I5hQpvHOHsgRjXq/Kp50GPbZOo0CQa4oP7PZsgugQA7BPDEsh3u9SzrpYnXTq7O6m13X7HrF1fWgLDnnR3Um8HAPvC6zjLZnf313ucpl1D6hfZZ73Ut3UgaQDYp1YbG1igXyyB9o5lff7jprUnIvqlrbNVbyLdpwAA7BPiTuN1DoqEYZM4eyBGXNQo8h0SaNukraOBnZKbbTYSdgUAYJ8WJTdP2FVhqfHJmeTF5Ty+MSF5KVf4+s1jnA3DrgAA7NOiuOpU7/NdqzRDw1LYyJZFVvOxfyMsUTQl7WWufGHFYc6GYVcAAPZpoZ0izxV/aleGpRZNW0uxkQlcnjtD+xTaigWbWZeLv61Y/b0b7HkxjoA2QRwSAFAnSM6F7Wxgqf1azY9dx73KhlYlD8/QlXKdDAuOoNeW/p09duP7Ew+f+QvrE3zgeiPkYjCCnoGmlnrKyl2nz2IDTbXhWf+g785bTwkxaWwoPn9lGBUaQ/Mn/YjeWP4ZxUWO5bY9f30Pe6KCox8nioOB7nkHQS6WHqVwyxaaP/lX3Jp0NuZP+9OOkE0tbDwgG/USysYMOna3WDcquZlD+04M/FmydXtVfgGgi0jnXPg3e6+jmZ6f+ja7nvPjSmhDrAL80rg8R+Ni6V7am/NHvKTkKIwLGwC6EEXLOnV1L3vbrYC+NWPtYw/Nb2SP7w7mv9s7SLWf3SLbQQEA6CCI3qytr6TtWasYgGNIG1KVHDebwizx+iKkdTKX1eTRldIDvXe7uOHg5HmkAQAfKRHRjdpC9reZldxMa9g3mP1032D+665lpA0+wPJkCqAbZoC6OXeoOOcMcJdKFweASoff/MYDQPNjoLQHAFDp8JvfeABofgyU9gAAKh1+8xsPAM2PgdIeAEClw29+4wGg+TFQ2gMAqHT4zW88ADQ/Bkp7AACVDr/5jQeA5sdAaQ8wGmaA4d/08YIBboHi7hTAEdCdOljncQUAoMclRgXuFACA7tTBOo8rAAA9LjEqcKcAAHSnDtZ5XAEA6HGJUYE7BQCgO3WwzuMKAECPS4wK3CkAAN2pg3UeV0D4JyFvvXzI4yLIVIG/7p3lp6FdwgOofYsFi7wKCHcKbm6rk1dtg1umfcmri81jJ/IiHIBZuRvYJ9D4L9aLLKCovnV0tbCpxtaT6N9tEO4UfLUij65VLGTfX7F/5lbUIIvsV2dXh/DwafoJB6DmlPa/toMJiEV+BYQ7BcsvOVqoVwAA6tVA2nAFAKDhkqNCvQIAUK8G0oYrAAANlxwV6hUAgHo1kDZcAQBouOSoUK8AANSrgbThCgBAwyVHhXoFAKBeDaQNVwAAGi45KtQrAAD1aiBtuAIA0HDJUaFeAQCoVwNpwxUAgIZLjgr1CgBAvRpIG64AADRcclSoVwAA6tVA2nAFAKDhkqNCvQIAUK8G0oYrAAANlxwV6hUAgHo1kDZcgf8D78Ddj1jGalIAAAAASUVORK5CYII=;" vertex="1" parent="1">
          <mxGeometry x="119" y="130" width="60" height="60" as="geometry" />
        </mxCell>
        <mxCell id="ziRwayuzQX1U7kPAkTH5-18" value="" style="shape=image;verticalLabelPosition=bottom;labelBackgroundColor=default;verticalAlign=top;aspect=fixed;imageAspect=0;image=data:image/png,iVBORw0KGgoAAAANSUhEUgAAAKAAAACgCAYAAACLz2ctAAABdWlDQ1BrQ0dDb2xvclNwYWNlRGlzcGxheVAzAAAokXWQvUvDUBTFT6tS0DqIDh0cMolD1NIKdnFoKxRFMFQFq1OafgltfCQpUnETVyn4H1jBWXCwiFRwcXAQRAcR3Zw6KbhoeN6XVNoi3sfl/Ticc7lcwBtQGSv2AijplpFMxKS11Lrke4OHnlOqZrKooiwK/v276/PR9d5PiFlNu3YQ2U9cl84ul3aeAlN//V3Vn8maGv3f1EGNGRbgkYmVbYsJ3iUeMWgp4qrgvMvHgtMunzuelWSc+JZY0gpqhrhJLKc79HwHl4plrbWD2N6f1VeXxRzqUcxhEyYYilBRgQQF4X/8044/ji1yV2BQLo8CLMpESRETssTz0KFhEjJxCEHqkLhz634PrfvJbW3vFZhtcM4v2tpCAzidoZPV29p4BBgaAG7qTDVUR+qh9uZywPsJMJgChu8os2HmwiF3e38M6Hvh/GMM8B0CdpXzryPO7RqFn4Er/QcXKWq8UwZBywAAADhlWElmTU0AKgAAAAgAAYdpAAQAAAABAAAAGgAAAAAAAqACAAQAAAABAAAAoKADAAQAAAABAAAAoAAAAACEJDuzAAAY3UlEQVR4Ae1dB5Qc1ZV9nSWhnLNG0ihLKI4CAhRAICEJhAzYCGww+CzpeNcGJ85yDN41GLNgy4t9bFiDMTYmBxFEUACBhFAcUM5xJBRAOUznfbeGUv9f3T3T09MVeuq/c3qqpsIP79/64b333/P8euaZJClSHLCJA16b8lXZKg5oHFAAVECwlQMKgLayX2WuAKgwYCsHFABtZb/KXAFQYcBWDigA2sp+lbkCoMKArRxQALSV/SpzBUCFAVs5oABoK/tV5gqACgO2ckAB0Fb2q8wVABUGbOWAAqCt7FeZKwAqDNjKAQVAW9mvMlcAVBiwlQMKgLayX2WuAKgwYCsHFABtZb/KXAFQYcBWDigA2sp+lbkCoMKArRxQALSV/SpzBUCFAVs5oABoK/tV5n63sqBZW6J23b3UpouHWnXyUJNWXmra0kOh8zwUDBH5Ax6Kx4nisSRVnkrS6eNJOnkkSV/tS9DXFUnatzVJR/Yptzp1xY9rANioKVHpCC+VDvNRl74+atzCUyPv/Dw+AIihhh5q1qbq8T7CW2cZmDvXxGnL8jhtW52g8GnhpjrNiQOe+uwdK9iIqP8FXjp/vJ86M+g8NWMuJ6ZleigWIdqwNEqr3ovT/i2qZ8zEo0zX6iUAm7fz0OirfBrwAqH8UJfg4dfDPWA+oN25Lk4fPx+lik0KiJlAJ16rVwBs2ITo4m/7adhlAfL6xGqmn4fPYh6XoIM7E3R4T4KOHU7Sia+Izp5MUrSSKJmoegfpNGhMdF4zD7Voz/PFjh7qUOqlzn181ITnjNXR2o+jNP+ZGJ05Xt1T7r5XbwDYe5SXrrgtqAElU5MmuTPav5XnayvitONzBt6u5DmQZXo+l2uteQHTu8xLA8f5qU3nzAKF0yeS9NYfw7R9leoNM/G06AGIHurSm/1UdkUgU/3o+KEElS+I0dpFcTpxOOMjBbnYua+HLpjpp17DM6/rPno+Qkte4XFdkcSBogZgoAHRtb8IUvdB6ePtkS8TtOiFKG38NFHnnk7iWA3/dCj10OW3BqhT7/QyrZ4XpXf/EqshBXfdLloABhsSzfplMK2h41Gij1+K0GdvxilhY1uPutJHE24Iks/QIS5/J0rznraxYA7Dt4E9DitdluKgUdHzGXuZYwcT9PIjETrE8zu7aRl/AHs3VdJ194bovKapxcrIqQGqPJ2kT15UwzHaKPPM2e7WqyH/ybf5qWSgPMTt2xKnp34edgT49OJDHvjMvWFNg6Jfw/Hi64LUl+WTiooQgIMv8dKQifKCY+/GOD33qwhVnnRekx47kKTn/ztM0JqINO3OILVkFaDbqag+w6asDpv0/aDUZtDNvvibiCa7k2446J/De5L04kNhioZTIIR6b+bdwRrllQ6qhilFKSoATrktoOlldU7EeMHx+mORotDB7tucpA+eZn2dQO1KvDR6hjyVEG674rRoANhjmIdKh8prpgXP8oJjd6pXcXqLfT4/QRuXyivgi64NUosO7h2K5RZ1cAuO/44874O+deXc4ltJvvPnqKTG83O1xs/yc0/O3fk3BNVf3zFe6trfS227+qglAxRWOdBNo9c/xsL1fdDqLEvQtlUJgt66WKkoANh9COtfe6aGKuhp5z2VarBiYj5Mtj58LkJX/pCNDr+hfmP8tKQEOuMkTfiunwZcECCf/L3pjzIQiVp38mq/weOJ9dcscH8xSmsWfqO8PvdkcZwUBQBHTJaLuWlZjA0IimfoNUJh7aIElU2NU4ceVR8VLG5m/ChITVtX2R4an6/u/6atvTT9rhDro+P0xu8iRWf44Pg54HnN2ZB0mAzAT1+X51HVNZAj7/G3s/Afcg/epotXWmAZy42hF1qebNSd5aK3PByi5myxU0wkt6wDSw4rF9G06sDOOB3YXry9n87iXWuSdIjNwNp2zdwHHNyVoDUfxmj3Ot4CsD9JMHgFQf8NffPAi3w0aFxAG5Kr7hA1a+ulGx8IasLvU0f1q84+Zq69g8rcuyw190Ox1n9SxDNuA19XzE3v0io5fPMbs8P013vCtPztuGY2poMPr8NWcc+6JM39c4z+8h+VtHuDzI9mbbx0zc+KR77oaABi1de1nwzAzcuLc7JtwJ727zqeC55hA1idoCP+x31h/shyq+Pxg0l67v4IrflIBjJ05Bd8S+abnofTjo4GYLvuvEOtQWpOg11pR79MNZjTmFnb8qBnm/O/YW2nHYbcFx5kXXYt5ZqQCLz9pxgb2srz4rEzg9S4ZW1LZP3zjgZg224p8IE1FZvl4cZ6dhU+xx2rk/TEv1cNudCW5EMA4ZuPRzWRjP4+xDVj2UDW6eRoAGJlKNKh3bkNTeI7bjmHfHHeM/JQPOTSAEGK4GSSW9hhJYVcTKQjbFmiKDsHNi1NEKQEOqEXHHChs+eCjgZg4+YyADEHVFQ9B1a+K88F+41RAKyeY9Xchdm9SOFT4n/qPBMHNnIvGBcw2Im3jzZukelJZ1xzdA/oD8o9YFS2ZnIGBx1WisgZlhNuSg3DUPN1HejcZnZuybhhsZdXpHy8FIjvu+V8r0E43bGnc5vZuSVjtMQqZQQah2S3AKq29TTKElt1lkeS2qZn5vOOFBRB91sy2EONhN1kYAJcbyiqmQNHWHcsUs8hfvrhk146wkJ8bN6CZ4g9G/gZ+THxFcvOHQVA+OwbzqZXgyf6qVGT9K8W/lkcwTXLmie/jE4dk5GFqUtT+D9sxR82W82MnclGrbyF9bO3orT6fWs37htr5AgAQmU07no/nc/WHaLli7Gw8LOiqGYOnD1BdOposlofiM3beWnyD0K8wzDO6sAofbXXHt7aOwfkLxMeBO54vIG21TIb+CI8F1w6J0o7y+1hUs1Nbv0TMNSojt74Q5gO701IO/EyPd++h49uejBEXQakjziZni/0Ndtcc2A+d/VP2K+LYYO5XsEz3NthA8/GpXGq2JiUZFv6M247wth0xGS2A2SHmwHenQr+LH+rymSrOl4ArM3aeqh9D/bmNdJH/Ub5yS/vbiV85NhEb7WluS0AbMYOJG+8P0gYBoyEfb5LXmWnQktkgarxOdf8zx1TT94ROGKKn7CYyCSK2rU+zkCM0daVrCvPYZDAlGfS9wPsPVaegR09kKAn7w5TLGwddy0HIDaX3/TrEO9/kMEHzwEL/xmhLxbYOym2jvXV54SdcYMn+rjH82f8UDO9DY9gcH605kMeetlwtSYae42Pxl8vd4WLX4vQoudSguya0qjrfUsBCHPymx8KUdtuMvj2sOD09d9H6NSRulan+N+HDeTwKT4aeCEPs3m6F4Zha/n8GK2YG6OT7PW1OprCfnbgUVYn7Dt5/PazdPqYfsXco6UAnHqXP82vy7rFMXqLbdnsdKVmLotrTt3LIyH2AY+43E9dDBbgxrchx1vBBgcA2chpAepxfnZjA+wXxg7C5W/HKJutITqF22aHOApAqlP45JUI+7i2pheUJwHG2hbw/26DPGnggxXvm3+IWupAsoBVqnNSMBIYeplP64GMlj9i4rCcXreYPfC/yxuydqQmedtXRahNVw+NnM495kXyBiW8D6kC5nn4AbjLGIgw2YIBq04YqhfznHvq7SHtOjb8W7npy7Ie8NZHg9S+e+pr/Xp/gp76KTvsyWGuojOrvhy79PewS2E/9Rnpr1buCWHxqvdj9PnCeI2evxpyHJThl2POCCPU7CIVbGTH0Fw+P37Opw5WxCN42F+/OE4nv7aWy5YAsPtQD826j/t6gf5+X6UmXhEu1etTPztCGHixl8qmBNLmwGLFYYCxY01MczsCtxu5rGrF9+G8s/+FXho1PUBwfpSNIHbBts/l78Rt3WdjyRA8bJKczWYeeiHbcwPB8dBwlt0NnuCnBhwGLBthOyYAsZKH2bpsvIIt4NqPEvwLE6Y9o6b7tY39RvENNnuN4I9hOPeYW1fFaBmLcbDd02qSkWFC7pjk9jJ4NvhsjmAxaUKetifJOCsdzosKHtZ6DM4su9PLiM3pK9+N0rqPcxOd6O/lcty9Nkm710bZ+1aMRk7lwD38EYi7DJEGgNl7hF/7YWfeMtYPb1hsnQzW9CEY8dm+zX6SdcK85k93Wijp1DO26Nh1oIems/fTTEJ2vQhYnW5ezmISXs3uXW9drxM6jxc9l/q0+adRDquXDUcYM+CjgJ9rcVO8+Eyhzk3vATv1kYedbautWd4XikG1TefqH4WyGgGgYcs5VMPqD+J5yTwbsPpyCAunq3oy9hKxJKbFpss1/gl2zn02h1fDrL6D2GfUNH+ao3fUFytyCKhbdWYpxWx5p11t+VHT86YDsJ1B6FyxWZAB1FS6IrsPl2qZonBWsIn8yveg12ZffnnMPqDDrRJOs6hFUFxcMCNIY64k2rISi4nc53AQw0DVuXFJhDr2rpon9mX9MMQ2IlXJGIscgM3ZYY5Idpn9iGWw6hxD7dM/r+R4dLUfZrGahSf9MtYBG8NRiOWHoQHEOfhhPrmCVXGYT+Y6dMKTP5xjNmkd1RYso1i4rZMRkPr1Qh5N7wGNPcIJF22tBABrC74mrYmGsTxv6CUsz9MMcHNvbnjamnpHiCZ+F6q4qtCxuQ7PUNl98lKMh+UUAHPPOf8nTQegUZ+JXVuK0jlQcn6VxQtizdW152nYmOPWfTM8Q+S1AsOzhYud9Nplv2I6ALE7XyRxz6p43Y3nCKg9aBzENQHN5W42HkA4vb28atU8jXs4MUzsq4+Fqe9otvEbnQ5cDM+Y2+EHtyawlIHnrVyH52zlKeR10wEIz54iCDGJdhIDCsnMXNOC/hbC6UEc5tUolxPTgIna5xzpc9X7cYIrNlBS26uakixUbEzQJg7IOL9lVBu6YdkihgbT04MF0rQ7Q3TJ96qGZwi8a7KU0d8182g6AM+cSGgbYvRKQGfphIrr5bH6CL99EHEYNRNiOb7cwatmlhFCIJzrxwpTNliwICRs/7G8eJnqP+eDWkxbH55HTWOPWhzHeEOOvgjFNAp5bjoAsTkGu7F0atrKwwCs/apQf7+oj9xxXXRNZvDBDm/D0qqFQzbTqVzqjnSqVHERQgxjADGTiAWr7LFXBxiA9ioFTAfgUR46OpamWNeaN0nXhcGplIrvzMdyNlGOhxrAOmXVB2zxMi9OZ3g3WyGpYlOSKjZF2VFlVBvyh06Sh+cQz0HtJllIZ0JpjD79OpaanqUJtTAnScyP/3hHmD59tfDgE0uM4XnRv+L09M+cZ/tmOhr2b5M1HyUZopuLzHLVOc9ERONQs+sOuaTTyHQAwuwKX7pOLTt4NSte/X91dDcHTAcgVnE72cBSJOz2UqQ4AA6YDkBksnaR3PcPudRPMA1SpDhgCQC3cGwPiGN0QrDmsd8yfQGuZ+eYY4oDjimS7QWxBICQTcHSVqSRUwOaqwjxmjp3HwcsASDYCtXPcY5zqxMEoTN+HFRDsc4Qlx4tAyAWI+89JfeCrTp66bpfBLUAfC7lv7XVduAcwDIAgtPb2HnOyvdkEHbt76Mbf8VhpRzsyd1alLgrN0sBCNbO/1uMdvHue5E6lvroB79rQP1Yia7IXRywvMVhD/jybyOaqwiR1TAhmnl3iJ0lBqlXmZdgy6ao/nPAFlkIrKL/+UCEZt4TIFgAi9S5r4/nhT6CO95tq3nb4gYO2LwvScfZgibKhhtYUdtJbnQlYia/5dY3MydD2nCC+NJDURp9VYL9Qwclo1U8ih5x8PgA/wwv2vgvFlK/vf5s/iVw4CIg/8oU5k3bBzrsU32CI39j74Ii93HAth5QZPUxthl85eEote4S09xZ9BvDYRoMMULE59V5/eGAIwCosxN7ht97MkYfPBXTNkx37ceWM7yXoSU758YWReyww+ZvuyhX83i7yleM+ToKgDoDYbcGM66KjRDXyCIb/Rl1rD0HtP1MtX/N1DdsnwOaWjuVuOM5oADo+Caq3wVUAKzf7ev42ikAmthE1e39NTHbvJM2ugSxYr+KAmDezZX+ItSM4kQfK3ZRpSjeS3/b/itBNhQWKRo2X3KuAChyvK7n3F5h9vUsUkOOeFQs1Li5XFLE6zObFAALzGFjrN4m7AnCKST2xpnK1KyNXNaTFrjSUwDM1BJ1uHb8cMrqG8m0YCG6TphTicMavCQ0Yl85VlHLjqmyIM/ThsDWxvvwamE2KQAWmMNH9suNBlckIh3cKQO0ZLB1TVAySM7rgKEsxrgiX1XIZRXrUahzuUSFStXF6cBNrkjte8osRigskfqxbz+rCE6KRNq9Xi6r0W1Kbb27imnnei5zJ9e31HNZOWCMs9a5jwywrSvkRu/FMTqsGIY79vJQmy6p5saKfXt5qiyI4dy0lXCf7S4P7ZJ786yVrsONVI51SES9muLAQW608NlUw8GusW1Jahj+cluSEJRbJ+wORLBBs2nMDLn3Q3QkhG3QqceQVBlxrWJr3JIo9QqAegsU6IiFBuIfi4SoSSIhCIxI2CPdRPChKN4rxDl6v77swlckBCwUqc9I+SPYUS7XQXy2kOcyZwqZsovT2rJCbrwBY+XGR1R40VMEzMyuuN0cOzMIw6feIQQX4Xap2ByX4sI1akbUfZBcxi2GqYJZzakAaAJntyzjgDQCBuGfuX3P1BAHu8KPnuc/ApVyPL0xV8u9kHD73Kmnlvq9yf/ml6JzQhuz4Fm5Bx5yiU/yzI+FlFXxXBQAzzVt4U7g6XTHF/IQV3aFDC70grsNQ/WEG4I05NLqm6TKSXluZZ34vfQI9QgVBs+pOiFa+/DJcu+HqJ1WUfW1taoU9TAfeLYXCRHNm/NKU6Q5syPsljcFBnRuCDQz7gafpEMW38nlHOEfZtwdoDFXycP64b0JmveMDC4AXlz9QlD+xUK57Lnkme8zCoD5cq6G9xBsWlztwtJkwo1yT4Po5K8+GpYceCLZC2cG6ZZHgoTIm0aqbgiGqg1BsW+bHSLjvBMqwpd+EyHsRtQJLvIuvlaeH5bPj1HlKf0J84++if3+8wHzs3FnDojzgQAyOkEOV7ElTscO6FeIjh/mcF4cp9foyb5xC68W5Bqb9BswULAnOsz7qUfwUB5qlALmFwvi1JrjjiC8FxYbgycGpPvICQuef/1XmIxamstu9VO3AampAXq/V/8nouWVKqG5Z6bHCza3+A5PnXFyy8NB6sCuR3SCgv//7qmkswaP+Ahre81Ps4d6xfsQ8RCnWZt1yIEdcXr5kQgZY8b1Ge3V8tPLhSMWRogzYiWpIdhMbvP0bu4TUckROcJszfxJkDD5FwmhK578cSVt+FSeo4nPYIjNFXzwILH4tQj97d508EEwPu0ueeg9zHrfpW9YCz7UTQ3BYgubcH7qKCfqTUpDHULYwkhhM4trRCNViGc2cUzhnWvimrewFu3ZR05qtM2pdJFKXkTwKva1xyK05bOkBH4k0LKTh2b9MiSF8wJYX3woTJiTWk1qCLaA4+i5Zt0fpJKBqaEY2W7jAISvPRqlbP5mmrYh6l3mox5DvARLFXG1qhcbOt0jXyZo/7Y47fg8QVj8RLJ4D8Ewf929IWrUREb13CfDVP5+Sj2op23FUQHQCi5zHlhx3vRgSDIIQNYAz+u/j5DRiCFTsQINSFuQwMd2jIEXYZ3z2ZM5xBphvI2ZURWjzrjvY+mcKC18Nvuwn6kchbymAFhIbtaQFvS9s+4PpYVmhdYEAaYXvRBLW5zUkGSNt7sN8tCkm4NaD2p8eAXrpD/4q33gQ3kUAI2tYvL/DZsQfee+IMfPk4djZIs54NqPo1TOceNgNZMvQRDdm8U3ZVf4M+aDeeeiF6xf8WaqjwJgJq6YfA0mWJfc7KcyDlSdjU58nWB1XpwdeSY42DT7RzyUZBP69Kdh1o99Jy06EIPNS136+agbuz1GHpkIfhfffDxMO1bnD/BM6eZ7TQEwX84V4L3uQz10+S1BgrP2XAhDdTTCoc9YKO3hDjTA4IMlTS6EXg+964K/x+jM8VzesOYZBUBr+Jw1F8gDh07y0ujp0BXnBsSsiWW4AeBtXRmjxa/E6jSsZ0i6IJcUAAvCxronAlFNrxFeGnCRj0qH+SjYILeeLVvO0ENvXBqjNR8mWPXnjOE2U1mzzBQyPaqumckBqNkQ0gw/XyCq+Ufs3MvLajwvNW/roWYsvDbK71AeDMsIen3scJJ9aSfY2BS/pKNBJ/JRAVDkhkPOoZnYuz7JP6jG8Ksi9JJYdOAHwDrBabtetnyPCoD5cs6G9zTQcdDzbJoTG4pU5ywLP+utc5FUAm7igAKgm1rbgXVVAHRgo7ipSAqAbmptB9ZVAdCBjeKmIikAuqm1HVhXBUAHNoqbiqQA6KbWdmBdFQAd2ChuKpICoJta24F1VQB0YKO4qUgKgG5qbQfWVQHQgY3ipiIpALqptR1YVwVABzaKm4qkAOim1nZgXRUAHdgobiqSAqCbWtuBdVUAdGCjuKlICoBuam0H1lUB0IGN4qYiKQC6qbUdWFcFQAc2ipuKpADoptZ2YF0VAB3YKG4q0v8DsPrjoqilTzQAAAAASUVORK5CYII=;" vertex="1" parent="1">
          <mxGeometry x="50" y="50" width="60" height="60" as="geometry" />
        </mxCell>
        <mxCell id="ziRwayuzQX1U7kPAkTH5-19" value="EC2 Instance Connect Endpoint Service&lt;br&gt;(EIC Endpoint)" style="text;html=1;align=center;verticalAlign=middle;resizable=0;points=[];autosize=1;strokeColor=none;fillColor=default;" vertex="1" parent="1">
          <mxGeometry x="-40" y="430" width="240" height="40" as="geometry" />
        </mxCell>
        <mxCell id="ziRwayuzQX1U7kPAkTH5-20" value="Visual Studio Code Server" style="text;whiteSpace=wrap;align=center;" vertex="1" parent="1">
          <mxGeometry x="380" y="262.9" width="160" height="40" as="geometry" />
        </mxCell>
        <mxCell id="ziRwayuzQX1U7kPAkTH5-21" value="&lt;font style=&quot;font-size: 21px;&quot;&gt;Public Subnet&lt;/font&gt;" style="text;html=1;align=center;verticalAlign=middle;resizable=0;points=[];autosize=1;strokeColor=none;fillColor=none;" vertex="1" parent="1">
          <mxGeometry x="187" y="143" width="150" height="40" as="geometry" />
        </mxCell>
        <mxCell id="ziRwayuzQX1U7kPAkTH5-22" value="&lt;font style=&quot;font-size: 21px;&quot;&gt;VPC&lt;/font&gt;" style="text;html=1;align=left;verticalAlign=middle;resizable=0;points=[];autosize=1;strokeColor=none;fillColor=none;" vertex="1" parent="1">
          <mxGeometry x="130" y="60" width="70" height="40" as="geometry" />
        </mxCell>
        <mxCell id="ziRwayuzQX1U7kPAkTH5-24" value="Amazon EC2" style="text;whiteSpace=wrap;align=center;" vertex="1" parent="1">
          <mxGeometry x="380" y="404.4" width="160" height="40" as="geometry" />
        </mxCell>
        <mxCell id="ziRwayuzQX1U7kPAkTH5-27" value="" style="shape=image;verticalLabelPosition=bottom;labelBackgroundColor=default;verticalAlign=top;aspect=fixed;imageAspect=0;image=data:image/jpeg,/9j/4AAQSkZJRgABAQAAAQABAAD/2wCEAAkGBxAQEhIQEBASEBUSEQ8YGBAYFxcVFhUYGBUYFxoSFRMYHiggGBolHRUTITEiJSkrLi8uFx8zODMtNygtLisBCgoKDg0OGxAQGy0lICUrLTItLS0tLTAtLSstLy0tLS0tLS0tLS0tLSstLS0vLS0tLS0tLS0tLS0tLS0wLS0tLf/AABEIAOEA4QMBIgACEQEDEQH/xAAcAAEAAgMBAQEAAAAAAAAAAAAAAQcEBQYCAwj/xABBEAACAQICBwQHBQgCAQUAAAAAAQIDEQQxBQYSIUFRYXGBkaEHEyIyQlKxI2JyksEUU4KiwtHh8EOy0hUzY3OD/8QAGwEBAAIDAQEAAAAAAAAAAAAAAAUGAQMEAgf/xAA6EQABAgMEBwcCBQQDAQAAAAABAAIDBBEFITFBElFhcYGhsRMiMpHB0eEU8AYVUoKiM0JT8XKSwiP/2gAMAwEAAhEDEQA/ALxAARAAEQABEB5lJJXbslxOO09r9Qo3hh16+a+K9qa/i+Lu3dTy97WCrit0CXix3aMNtfTecuK7JnP6T1vwWHupVlUkvgp+2+xyXsp9G0VdpfWTFYq/rKj2X/xR3U/BZ99zVHE+cJ8I81PQLCbjGdwHufbiu/x/pJnvVChFcpVJN3/gja35maLFa6Y+p/zqC5RSj52v5nOko53RohxKlYchLQ/CwcRXrVbCpprFT3SxNaXbUm/K5iTqSecm+1tnzJNdSV0hrRgOi9xm1k2ux2MujpfEx93EVo9lSa+jMElCpyWS0HELe4XW7H08sRKS5TSn5zV/M3uC9I1WNlWoQmucG4Pwd0/I4Uk9tjRG4ErmiSMtE8TBwFOlFbmjtdMFWsnN0ZPhUWz/ADK8fFnRU6ikk4tNPJren2MoJGw0XpnEYZ3o1ZR3745p9sXufbmdLJwjxDy9lFR7CYb4LqbDePPHqrxBw2hNfqc7RxUfVP8AeK7g+1Zx812HZ0K0ZxU4SUoyV1JNNNc01mdjIjXirSoKYlYsu6kQU6HccF9gAe1zoAAiAAIgACIAAiAAIhqdOaco4OG3Vlvd9mmt85PouXV7ka3W3Wqngo7MbTrNezT4R+9O3Dks30zVTY/G1K9SVStNzk85P6JZJLkjljTAZ3W49FL2fZbpikSJczmd2obfLZt9YtbMRjG4t+rp33Uovd/G/jfl0NAggiPJLjUq1Q4TIbQxgoFJJBJ5XtCUQSgikkgkIhKIJQRCSCQilAIBFJtdCaexGElenP2W/apvfGXdwfVbzVEmQSDULy9jXtLXioORVxavax0MZH2Xs1EltUm9/bH5o9fGxvShMPWlCSnCTjJO6knZp80yzNUtbY4hKjXajW4SyjU7OUunHhyUhAmdLuux6qr2hZJggxIN7cxmPcdM9a68AHWoVAAEQABEAARDl9cdZ44KGzGzrTXsxzUVl6yS5clxfY7bLWLTNPB0ZVp73lCHGU3kuzi3wSZSWkMdUr1J1qstqUndv6JLgkrJLoc0xG0BojHopey7P+od2kQdwczq3DPy3eMRXlUlKc5OUm25Se9tviz5gEarapQQQQRSSQSYRCUQSgikkgkIhKIJQRCSCQilAIBFJJBIRESnbetzXHiuqZCJCKztS9Z1iIqhWf2sVul+9S/rXHnnzt2BQtKpKDUotxlFpqS3NNb00W3qnp1Yykm7KrCynH6TS5Pyd0SEtH0u67FVa1rOEI9tDHdOI1H2PVb8AHYoRAAEQ8ykkrt2S4no5LX/AEt6qiqEH7da9/wL3vHLs2jy5waKla4sQQ2F5yXAa56eeNrtxb9VTvGC6cZ9srJ9iRoD74ulZ9JZL6IxyHcSTU4r6BKmEYLDB8BApuN/nr1GqkkgkwuhSggggikkgkwiEoydH6PrYifq6VOU3ySy6yeUV1Z2+iPRw90sVVa+5T3vvnJW8F3mxkNz/CFzTE3Bl/6jqbM/L3ouBIZdGC1UwNLLDQm+c71P+90u42lPCUoe7ShHsil9DoEm7MqLfb0IeBhO8gdNJUImSkX7LDwecE+5GPV0Th5Z0odyt9Dy6TeB3SCdtR0B6LyLfZnDP/avoFRfcLLkXHX1djnTaX3ZL9UafE4KVN2nC3W2feRM1MR5a+JBu1h1R50u437F1Q7WhxPCOFb+irVLoLdCxNhckNlckcP5wP8AH/L4W368fp5/Cry3Qmy5Fg7C5IbC5IfnA/x/y+Fn64fp5/Cr7fyJt0LA2FyQ2VyQ/OB/j/l8J9cP08/hcBv5Gx0BpWWErRqwu7bpR+aDzj+q6pHXbC5IbC5IC2aGoZ/L4Xl041zS1zKg43/C7fC14VIRqQe1GcVJPmnvPuaDVzF50Xwu4/qv18Tflsk5ps1BbFbniNRzCqMaH2by3y3ZIADqWpCm9YtJftOIqVb+zfZh+GO5eO9/xMsfXLH+owtRp2lO0I9stza6qO0+4qY5ph2DVFWlEvEMbz6eq8VobScXm19Fl5/Q1rVtxtDExlP4+L+rv/vicUQZqxfhS0rzJvOss6ub/wCh+7YsYkgk1K7qUEEEEUnU6qao1MW1Uq3pUU/e+Kp0p34fe+u+0akasvGT9bUTVGm9/D1ks/Vp8srvu43VuUqailGKUUkkorcklkkuCOqXl9PvOw6qFtO0zBPZQvFmf0/PTfhjaN0dRw0FTo0400uCzb5yecn1ZkzmopuTSSzb3JdWzQ6z60UcEtl+3VkrxpJ/zTfwx83w42q3TensTjJXrVG433UluhHsjxfV3ZYZOzYkcA+Fuv2HrgqVMzzYZNe877xOvnsVm6R13wNG69a6rXCmtpfndovxNNV9JkF7mFm/xTUfJJlbgmWWTLNF4J3n2oox1oRjhQcPeqsan6TY/FhJLsqJ+Tijb4DX3A1bKUp0W/nju/NG6XfYqIGX2VLOFwI3H3qjbQjDEg8B6UX6Cw9eFSKnTnGcXlKLUk+xo9VacZJxkk0+BQ+i9K18LLboVJU3xWcZdJRe5loaq640sZalUtSrfL8E/wADfH7r39u8h5uy4kEFze83dfxHspGXnmRDom49dy+2lNEOnedO7jxXGP8AdGpO8Ob01o3Y+0gt3GPy9UUK1rIENpjQBcMW6to2axliLrhYZWa0joPxyP398VpwSQVpSCEEkhZXkEkGEX0w9ZwlGazjZ/4O1p1FJKSyaTXecOdNq9X2qew84Pye9Fi/D0xoxXQTg4VG8e46KPn4dWh+rofnqtsAC3qKVf8ApMxd5UaCeUZza7Wox+kvE4g3muuI28bW5Q2IL+GKv5uRojgiGryq9NP0ozjtp5IRJbmnxvu7rbVwDwtcKK+E8RGGjgQQdRF45+awKkdl7L4X3+R5MvFU7ra4rPrm9r9PAxDnIoaL65Z86ydl2x2Z4jU4YjhlsoVKMrRmBniKtOjTznJJclzk+lrvuMVFheivRi+1xUlk/Vx7WlKT8NheJ6hs03Bq2Tcx9PBdE1Yb8vfgu60XgIYelCjTVowjbq3xk+rd2+01WuGsUcFSurSqzuqcHl1nL7q3draXVb6pUUU5Sdkk23ySzZR2selpYzETrO+y3aEflivdXbm31bLRZsmI8TvDutx26h95BfOZ6ZMNta9532T950WBiK86kpVKknOUm3KTzb5nzALWq+gACIAAiExk0002mmmmtzTWTT4MgBFbOoms/wC1wdGq/tqaz/eRy2/xLcn2p8d3VzgpJp701ZooTR2Onh6sK1N2lTkmuvOL6NXXeXpo3Fwr0qdaHu1IRku9ZPqsu4q9qSYhP0mjuuy25jcclOyMyYrdF2I5j3yXL4/DOlNweWafO+X+9D4HRaw0LwVRZw+j/wA2OdPllpSglphzBgbxuOXAgjcrXLxe0hhxxzUEHog4FvUEggwig2urtbZq7PzprvW81ZkYCps1IS5SXhff5HVIxeymGP1OHkbjyK1xm6UMjYu0AB9J0Cq+qU01V2q9eXzVaj8ZMwT1Vldt8234s8EUqw41cSpIBAXlS39LGHXp2e7J3t/gyzxUhdW4rLuT3Hh7ahWT8M2l9NM9i89yJQbnYNO4+E/tOSxC69SsH6rBYdcZw9Y//wBG5/RpdxSdz9A4CnsUqcPlpwXhFI2yY7xOzr/pWy3n0hMZrJ5D5Wh9IGO9TgqlnZ1XGmuyW+S/KplPFkelmraGGhznVl+VRX9TK3LzZLNGWB1kn09F86tB1Y1NQHv6oACSXEgACIAAiAAIhaHotx23h50G7ujO66RqXf8A2U/Eq87f0UTtXrQ50U/yzS/qZw2kzTlnbKH74VXXIu0Y421HKvorLxFLbjKPzJryOLO6OKxMLTkuUmvqfLPxHDuhv3jofdXKzz4huXyBJBV1IoQSDCLyCSDyRUUWV2H7cgc1+0sFw/Pyoz6IKuJqza5No8GZpens160flq1F4SaMMkFR3ChIQEAwvKBogkJisfEw33WUr36XeRfuEntU4S+aEH4pMom26z7+3kXHqhiPWYPDvJxpxg+2n7Dv+U2SvdeRrH31V2NoGekYb3HvsOi7bUXO/cGn9wdqXL+luHs4WXKdZeKi/wCllclu+kfBetwUmld0pwn3e7Lyk33FRF3sl4dLAaiR6+qqk+2kYnWB7eiAAklxIAAiAAIgACIdr6KKd8RVl8tFr804/wDiziizfRVgtmjWrv8A5JxiuyCe9d82v4TitJ4bLOrndzXVJN0o7dlTyXdnFYt3qTfOc/1OwrVNmLlyTfgjiz5Z+In3Q2f8j0HqrlZ48R3eqAAq6kkIJARQCSGeHXCqyvt6hg6T/wBPJLV+QuUf9YFVuudD1eNrrhKUZL+KKb82zSHaek7C2q0aqW6cJQb6xd15T8jiyXiCjiFSZhujFcNvW/1UEg8nhaUAARCwvRnpBONXDt+1F+sXfaMl4qL7ZMr0y9EaQlha1OvDe4PfH5k90o96v5HtjtFwK6ZWZMB+w3HzrXgfUZq7cRQjUhKnNXjOMoyXNNWa8GUTpnR08LWqUJ5wlufzRe+Mu9W8y9MLiYVYRqU3tRnFST5pnN686t/tlNVKa+2pJ2XzxzcO3iut1xuWGzJsQImi4913XI+ikZ2B2rNJuI5j7vCqMEyi02mmmm009zTWaa4MgtKgkAARAAEQABF9MNh51Zxp01tSnJRiubbsXtobR8cNQpUI5U4pX5vOUu9tvvOS9HurDor9qrxtOS+zi84Rec2uEn5LtaXct23vdbiVq1JsRXiEw3N5n4w86KbkJcw26bsT0+cVrNPV9mnscZ/Rb3+i7zmzM0ni/WzcuC3R7P8AJiny61JoTEwXNwFw3DPia8KK1y0Ps4dDivIJII5b1BIBhZQ+uDp7U4R5ySPkbHQNLaqp/Km/0X+9DolIRix2M1uHlW/lVa4rtFhdsXUAA+kdoVX6Lm9fMB67CTcVeVJqa7Ful/K5PuKlL7nBSTi1dNNNc0+BSOmtHvDV6lB/BJ2fOL3xfg15nFMNvDlFWjDo4P4e3r5LCABzqNQHkBEAICLsNRNZVh5fs1aVqUn7M3lBvnyi/J7+LtaJ+fjstUddHQ2aGKblTVlGrnKHSSzkvNdVl0QotO6VJSc2Gjs34ZH0XQa3amwxd6tFqlW4/JP8Vspfe8b7rVfpDAVcPN061OVOS4Pj1i8pLqi+qFaNSKnCSlGSupJ3TXNNHxxuBpV47FanGpHlJJ965PqielLTfBAY8aTeY3a9x5LfMSLIp0m3HkfvWFQQLR0j6OcNO7o1J0Oj+0iu52l/MaWp6NcQvcr0n27cfJJkyy05Z48VN4/2o58jHacK7iPWi4gHa0/Rrin71ajHs25eWyjb4D0bUI769adX7sUqa7G978GjL7RlmiulXdVYbJRz/bTfT75Kt8Nh51ZKnThKpKWUIq7fciydUtRlRca+KtOas40s4wfzSfxS8l13W6zRuiqGGjs0KUaa4te8/wAUnvl3szJySTbaSSu28l1ZDzdqvigsh90cz7cN1VIy9ntYdJ955e54+S9nM6W0qpzlRpu8YO1SSycs/Vp9Nzl3LmlpdZtcXOX7LgHeU3Z11l1UPO75Zc16wWGjRhGnHKKz48231vdlOtie7KF2bDe67hn54V36lKSVI8U0va3E5E5Aa6YngL63fYkAqCnkBBJhF5B6BhF5Oh1eoWg5/O93Yv8ANzQU6bk1FZtq3edjRpKEVFZRSRPWBL6UYxTg0U4n2Fa71xT0SjA0Z9B80X2ABblFIcN6SdD7cI4qC30/Zn1i3ul3N+EnyO5PlWpRnGUJpSjJNOLyaas0zy9ukKLXGhiIwtKoY8mz1j0PLB15Undx96Evmi8u9ZPqupqzgIIuKrjmlpIOIUkAGFhAQSZRQSQAi2WhtO4jBu9GpZN76b3xl2rg+qszutF+kHD1EliIyoS5q84+XtLw7ysge2xHNwW+FMxIVzTdqOHv5EK9sFpKhX30q0KnSMk2u1ZozT89OJl09JV47o1qseinJfRm76jWF2ttL9TfI/fVX0YuLx1Kir1asKa5yko/VlHz0piJe9Xqy6Ocn9WYb58eY+o2I60h/a3mrW0rr/hKV1RUsRLpeEe+cl9EzgtPazYrGbqk9mn+5huj/E85d+7ojTGXonBOvVjTW5PfJ8orj+na0aIsbukuNAFzOjxphwhjO4ALoNUdHWTryW+V1Hpzl35dz5nSEU4KKUYqySSS5JZI9lNmY5jxC858hkrrKSzZeC2GMsdpzPnhsuyXkEkHOulCCQYWUAPph6DqSUI5t+ADS4gNFSUJpeVstAYW8nUeS3Lt4+X1OhPjQpKEVGOSX+s+xfpGVEtAEPPPecfYbFBRovaPLvLcgAOxakAARaLWrQUcbR2VZVIXdOfJ8Yv7ry8HwKeq05QlKE4uMotpxeaazTL+OO131X/aV6+ivtorfH95FcPxLg+OXK2iLD0rxiuCdltMabceoVXEkN8Hutwya6NA5VDIAQEQAgIpIBARSeSSAiAEBFLO41Y0b6mltyVp1LN/h+Ffr39DnNWtG+vq3kvYp2cur4L/AHgjvSFtaZpSC3efQevkrHYcneZh25vqfQcUPJIIJWVAQAsoQeiDCKDpNEYH1UdqS9uWfToY+htHWtUkt/wrl1N2WixrNLP/ALxRf/aNQ17zlqG+6Nm5gO7jePsgALCuBAAEQABEAARcZrjqfHE3rUEo1vijlGp/aXXjx5qsalOUJOMouMotpxas0+TTyP0Cc9rNqvRxq2n9nVS3VUv5Zr4l5rgaIkKt4UfNSWn32Y6tap0g2GmdDV8HPYrwtd+zUW+M/wAMv0e/oa05qEYqIc0tNDivRBBJhYQgAIhAICKRGLbSSu20kubeSR5Ol1O0btSdeS3Qdo9ZcX3LzfQ1R4zYMMvdlzOQXRLS7piKIbc89QzK6HQ+AWHpRh8XxPnJ59yy7jOPRBUnvc9xc7Eq+w4bYbQxooAKBQADxRe0APpQoSm9mCbf0634BrS40AqUJpeV8jd6L0Va06i38If3/sZOj9Gxp+0/alz5dhsizWdY+gREj45N1bTrOzAbco2Ym691nmgALAuFAAEQABEAARAAEQABFj4rDU6sXTqQjUjLOMldPuZwenfR3nPBzt/8Mn5Qm/pLxLEB5cwOxWqLAZFFHD3VA4/BVsPLYrU5UpcpK1/wvKS6q5jl/wCKwtOrFwqQjUi84ySa8GcnpT0e4Spd0ZTw75L24/llv7k0c7oByUZEs94vYa77j7KqwdZjvR7jKd3T2K6+7LZl+Wdl5mhxeg8XS/8Acw9WPXZk1+ZXXmai1wxC5HQIjfE0rXghzWVxc8rVUFffB4aVWcacM5O3Zzb6Wu+4srCYaNKEacFuirdvNvq3d95odTtGbEHXkt81aPSP+X5JczpbletOaD39mDc3mfjAcVbrGk+yhdq7F3JuXnieGagH2p4acvdhJ9i/UyaWiKss0o9/6I44crGieBhPA088OalnRGNxKwCYU3J2im3yzN7Q0LBe/Jz6ZL+/mbCjSjBWilFEpAsOM7+qQ0bLz7DfUrmfOsHhv6LS4XQze+o7L5Vn4m5o0IwWzCKiv9z5n2BPyslBlv6Yv1m8+foKBcMSM+J4jwQAHWtSAAIgACIAAiAAIgACIAAiAAIgACIAAshaDWbIqnTPvPvANEXFRtpYFWFov3KX/wBdP/qjpdHkghLH/qcVYZnwLNABZYmKjggAPCygACIAAiAAIgACIAAi/9k=;" vertex="1" parent="1">
          <mxGeometry x="-350" y="316.09999999999997" width="79.6" height="79.6" as="geometry" />
        </mxCell>
        <mxCell id="ziRwayuzQX1U7kPAkTH5-31" value="" style="endArrow=classic;html=1;rounded=0;" edge="1" parent="1" source="ziRwayuzQX1U7kPAkTH5-27" target="ziRwayuzQX1U7kPAkTH5-11">
          <mxGeometry width="50" height="50" relative="1" as="geometry">
            <mxPoint x="-400" y="350" as="sourcePoint" />
            <mxPoint x="100" y="210" as="targetPoint" />
          </mxGeometry>
        </mxCell>
        <mxCell id="ziRwayuzQX1U7kPAkTH5-32" value="" style="endArrow=classic;html=1;rounded=0;exitX=1;exitY=0.5;exitDx=0;exitDy=0;entryX=0;entryY=0.5;entryDx=0;entryDy=0;" edge="1" parent="1" source="ziRwayuzQX1U7kPAkTH5-11" target="ziRwayuzQX1U7kPAkTH5-12">
          <mxGeometry width="50" height="50" relative="1" as="geometry">
            <mxPoint x="-52.5" y="364" as="sourcePoint" />
            <mxPoint x="212.5" y="366" as="targetPoint" />
          </mxGeometry>
        </mxCell>
        <mxCell id="ziRwayuzQX1U7kPAkTH5-33" value="" style="endArrow=classic;html=1;rounded=0;exitX=1;exitY=0.5;exitDx=0;exitDy=0;entryX=0;entryY=0.5;entryDx=0;entryDy=0;" edge="1" parent="1" source="ziRwayuzQX1U7kPAkTH5-12" target="ziRwayuzQX1U7kPAkTH5-4">
          <mxGeometry width="50" height="50" relative="1" as="geometry">
            <mxPoint x="275" y="355.28" as="sourcePoint" />
            <mxPoint x="400" y="360" as="targetPoint" />
          </mxGeometry>
        </mxCell>
        <mxCell id="ziRwayuzQX1U7kPAkTH5-34" value="" style="rounded=0;whiteSpace=wrap;html=1;fillColor=none;" vertex="1" parent="1">
          <mxGeometry x="-110" y="290" width="390" height="140" as="geometry" />
        </mxCell>
      </root>
    </mxGraphModel>
  </diagram>
</mxfile>
